<svg width="575" height="400" viewBox="0 0 575 400" fill="none" xmlns="http://www.w3.org/2000/svg">
<path d="M107.967 388.834H99.4305L98.1548 348.331L107.968 348.331L107.967 388.834Z" fill="#FFB8B8"/>
<path d="M110.144 399.014L82.619 399.013V398.584C82.6189 396.854 82.896 395.14 83.4344 393.541C83.9728 391.942 84.762 390.489 85.7568 389.265C86.7517 388.042 87.9327 387.071 89.2326 386.409C90.5324 385.746 91.9255 385.405 93.3324 385.406H93.3331L110.144 385.406L110.144 399.014Z" fill="#2F2E41"/>
<path d="M156.049 388.834H164.585L165.861 348.331L156.047 348.331L156.049 388.834Z" fill="#FFB8B8"/>
<path d="M153.871 385.406L170.682 385.406H170.683C172.09 385.405 173.483 385.746 174.783 386.409C176.083 387.071 177.264 388.042 178.258 389.265C179.253 390.489 180.042 391.942 180.581 393.541C181.119 395.14 181.396 396.854 181.396 398.584V399.013L153.871 399.014L153.871 385.406Z" fill="#2F2E41"/>
<path d="M156.273 383.643C155.56 383.641 154.87 383.341 154.314 382.793C153.758 382.245 153.37 381.481 153.213 380.626L132.055 267.103C132.009 266.814 131.881 266.555 131.695 266.371C131.508 266.187 131.275 266.09 131.036 266.097H131.03C130.791 266.092 130.557 266.191 130.371 266.377C130.185 266.564 130.058 266.825 130.014 267.115L110.584 379.874C110.432 380.736 110.046 381.509 109.489 382.065C108.931 382.62 108.236 382.925 107.519 382.928H98.2631C97.836 382.928 97.4135 382.821 97.0214 382.613C96.6294 382.405 96.276 382.1 95.9831 381.718C95.6902 381.335 95.4638 380.884 95.318 380.39C95.1722 379.896 95.11 379.371 95.1352 378.846L102.029 235.93L104.803 234.92L104.855 234.921L159.346 235.507L170.951 378.267C170.992 378.776 170.949 379.29 170.827 379.779C170.704 380.268 170.503 380.721 170.237 381.114C169.97 381.506 169.642 381.829 169.273 382.064C168.903 382.299 168.499 382.442 168.085 382.482L156.524 383.631C156.44 383.639 156.356 383.644 156.273 383.643Z" fill="#2F2E41"/>
<path d="M133.77 104.103C143.215 104.103 150.872 94.6839 150.872 83.0654C150.872 71.4468 143.215 62.0281 133.77 62.0281C124.325 62.0281 116.669 71.4468 116.669 83.0654C116.669 94.6839 124.325 104.103 133.77 104.103Z" fill="#A0616A"/>
<path d="M123.294 251.599C120.294 251.645 117.305 251.127 114.432 250.065C111.876 249.117 109.505 247.535 107.465 245.418C105.425 243.3 103.758 240.692 102.568 237.752C102.191 236.868 102.108 235.838 102.335 234.879C104.221 226.96 113.335 185.799 107.52 153.078C106.699 148.532 106.631 143.83 107.32 139.251C108.008 134.672 109.439 130.311 111.527 126.427C113.567 122.574 116.217 119.266 119.318 116.7C122.42 114.133 125.91 112.362 129.58 111.491L129.58 111.49C130.545 111.258 131.515 111.068 132.462 110.925C136.519 110.31 140.637 110.807 144.52 112.378C148.403 113.95 151.955 116.558 154.923 120.015C157.979 123.541 160.364 127.854 161.907 132.645C163.449 137.437 164.112 142.589 163.847 147.733L159.377 235.959C159.346 236.62 159.176 237.26 158.883 237.817C158.591 238.373 158.185 238.825 157.707 239.131C152.56 242.449 137.098 251.599 123.294 251.599Z" fill="#CCCCCC"/>
<path d="M106.328 237.112C107.307 236.513 108.167 235.657 108.848 234.604C109.529 233.552 110.014 232.329 110.269 231.02C110.524 229.712 110.543 228.351 110.324 227.033C110.105 225.715 109.654 224.472 109.003 223.392L114.596 156.12H102.508L98.0632 221.808C96.6604 223.275 95.7437 225.323 95.4868 227.566C95.2299 229.809 95.6507 232.089 96.6694 233.976C97.6882 235.862 99.2341 237.224 101.014 237.802C102.794 238.38 104.685 238.134 106.328 237.112Z" fill="#A0616A"/>
<path d="M115.451 124.272C117.811 124.856 119.918 126.477 121.378 128.832C122.838 131.187 123.55 134.116 123.382 137.07L121.717 166.401C121.687 166.915 121.564 167.414 121.356 167.862C121.148 168.31 120.861 168.694 120.515 168.986C120.17 169.278 119.775 169.47 119.361 169.548C118.947 169.626 118.524 169.589 118.123 169.438L98.0528 161.88C97.6873 161.742 97.3488 161.514 97.0583 161.208C96.7678 160.903 96.5315 160.527 96.3641 160.104C96.1967 159.682 96.1019 159.221 96.0855 158.751C96.069 158.282 96.1314 157.813 96.2686 157.374L104.252 131.845C105.092 129.16 106.677 126.927 108.727 125.541C110.776 124.155 113.158 123.706 115.451 124.272Z" fill="#CCCCCC"/>
<path d="M153.09 67.58C151.313 62.088 148.059 57.5116 143.871 54.6147C139.683 51.7179 134.813 50.6758 130.076 51.6625L135.468 57.0225C128.768 57.3 121.716 56.7099 116.933 62.4866C118.456 62.4346 120.452 66.4415 121.974 66.3895C119.127 66.4588 116.546 68.9196 115.288 72.0625C114.123 75.2914 113.851 78.9008 114.512 82.3384C115.075 85.7724 119.364 93.8173 120.519 97.0194C120.32 88.651 133.713 68.6901 140.253 70.7733C136.93 72.2898 134.047 74.9827 131.967 78.5123C136.416 75.7501 141.448 74.7373 146.381 75.6111C147.507 75.9288 148.669 76.0088 149.817 75.8477C150.521 75.6765 151.177 75.2862 151.723 74.7142C152.269 74.1421 152.687 73.4074 152.936 72.5801C153.186 71.7529 153.258 70.8608 153.148 69.989C153.037 69.1172 152.747 68.2949 152.304 67.6006L153.09 67.58Z" fill="#2F2E41"/>
<path d="M265.984 400H0.696292C0.511624 400 0.334519 399.91 0.203939 399.749C0.0733586 399.588 0 399.371 0 399.143C0 398.916 0.0733586 398.698 0.203939 398.538C0.334519 398.377 0.511624 398.287 0.696292 398.287H265.984C266.168 398.287 266.345 398.377 266.476 398.538C266.606 398.698 266.68 398.916 266.68 399.143C266.68 399.371 266.606 399.588 266.476 399.749C266.345 399.91 266.168 400 265.984 400Z" fill="#3F3D56"/>
<path d="M570.126 24.8394H565.948V25.6959H570.126V24.8394Z" fill="#E6E6E6"/>
<path d="M557.508 25.6959H549.069V24.8394H557.508V25.6959ZM540.629 25.6959H532.189V24.8394H540.629L540.629 25.6959ZM523.749 25.6959H515.309V24.8394H523.749V25.6959ZM506.869 25.6959H498.429V24.8394H506.869V25.6959ZM489.989 25.6959H481.549V24.8394H489.989V25.6959ZM473.109 25.6959H464.67V24.8394H473.109V25.6959ZM456.23 25.6959H447.79V24.8394H456.23V25.6959ZM439.35 25.6959H430.91V24.8394H439.35V25.6959ZM422.47 25.6959H414.03V24.8394H422.47V25.6959ZM405.59 25.6959H397.15V24.8394H405.59V25.6959ZM388.71 25.6959H380.271V24.8394H388.71V25.6959ZM371.831 25.6959H363.391V24.8394H371.831V25.6959ZM354.951 25.6959H346.511V24.8394H354.951V25.6959ZM338.071 25.6959H329.631V24.8394H338.071V25.6959ZM321.191 25.6959H312.751V24.8394H321.191V25.6959ZM304.311 25.6959H295.871V24.8394H304.311V25.6959Z" fill="#E6E6E6"/>
<path d="M287.431 24.8394H283.254V25.6959H287.431V24.8394Z" fill="#E6E6E6"/>
<path d="M432.956 104.497H428.779V105.353H432.956V104.497Z" fill="#E6E6E6"/>
<path d="M420.464 105.353H412.149V104.497H420.464V105.353ZM403.835 105.353H395.52V104.497H403.835V105.353ZM387.206 105.353H378.891V104.497H387.206V105.353ZM370.577 105.353H362.262V104.497H370.577V105.353ZM353.948 105.353H345.633V104.497H353.948V105.353ZM337.319 105.353H329.004V104.497H337.319V105.353ZM320.689 105.353H312.375V104.497H320.689L320.689 105.353ZM304.06 105.353H295.746V104.497H304.06V105.353Z" fill="#E6E6E6"/>
<path d="M287.431 104.497H283.254V105.353H287.431V104.497Z" fill="#E6E6E6"/>
<path d="M351.49 142.184H347.312V143.041H351.49V142.184Z" fill="#E6E6E6"/>
<path d="M338.758 143.041H330.204V142.184H338.758V143.041ZM321.649 143.041H313.095V142.184H321.649V143.041ZM304.54 143.041H295.986V142.184H304.54V143.041Z" fill="#E6E6E6"/>
<path d="M287.431 142.184H283.254V143.041H287.431V142.184Z" fill="#E6E6E6"/>
<path d="M570.244 34.2698V180.959C570.237 188.34 567.851 195.415 563.608 200.634C559.366 205.852 553.614 208.788 547.615 208.797H305.305C302.129 208.799 298.987 207.977 296.087 206.382C293.187 204.788 290.593 202.459 288.476 199.546V198.235C290.514 201.252 293.065 203.684 295.948 205.36C298.831 207.037 301.977 207.917 305.166 207.94L347.076 156.385C347.625 155.709 348.278 155.173 348.996 154.807C349.714 154.441 350.483 154.253 351.261 154.253C352.038 154.253 352.807 154.441 353.525 154.807C354.243 155.173 354.896 155.709 355.445 156.385L377.719 183.777L429.935 119.555C430.484 118.878 431.136 118.342 431.854 117.976C432.572 117.61 433.342 117.422 434.119 117.422C434.896 117.422 435.666 117.61 436.384 117.976C437.102 118.342 437.755 118.878 438.304 119.555L468.934 157.225L568.859 34.3126L569.548 34.2869L569.868 34.2783L570.244 34.2698Z" fill="#F87E0F"/>
<path d="M547.845 208.994H305.535C299.535 208.985 293.783 206.05 289.541 200.831C285.299 195.612 282.912 188.537 282.906 181.156V27.8373C282.912 20.4569 285.299 13.3813 289.541 8.16257C293.783 2.94388 299.535 0.00835396 305.535 0H547.845C553.844 0.0083517 559.596 2.94388 563.839 8.16257C568.081 13.3813 570.467 20.4569 570.474 27.8373V181.156C570.467 188.537 568.081 195.612 563.839 200.831C559.596 206.05 553.844 208.985 547.845 208.994ZM305.535 0.856531C299.72 0.864624 294.145 3.70983 290.033 8.76794C285.921 13.8261 283.608 20.684 283.602 27.8373V181.156C283.608 188.31 285.921 195.168 290.033 200.226C294.145 205.284 299.72 208.129 305.535 208.137H547.845C553.66 208.129 559.235 205.284 563.346 200.226C567.458 195.168 569.771 188.31 569.778 181.156V27.8373C569.771 20.684 567.458 13.8261 563.346 8.76794C559.235 3.70983 553.66 0.864622 547.845 0.856531H305.535Z" fill="#3F3D56"/>
<path d="M305.781 208.868L305.289 208.263L347.305 156.577C348.416 155.213 349.921 154.448 351.49 154.448C353.059 154.448 354.565 155.213 355.675 156.577L377.949 183.977L430.164 119.746C431.275 118.382 432.78 117.617 434.349 117.617C435.918 117.617 437.423 118.382 438.534 119.746L469.164 157.424L569.88 33.5303L570.372 34.1358L469.164 158.636L438.042 120.351C437.557 119.755 436.981 119.282 436.347 118.959C435.714 118.636 435.035 118.47 434.349 118.47C433.663 118.47 432.984 118.636 432.351 118.959C431.717 119.282 431.141 119.755 430.656 120.351L377.949 185.188L355.183 157.182C354.203 155.98 352.875 155.304 351.49 155.304C350.106 155.304 348.778 155.98 347.798 157.182L305.781 208.868Z" fill="#3F3D56"/>
<path d="M351.49 148.608C354.182 148.608 356.364 145.924 356.364 142.612C356.364 139.301 354.182 136.617 351.49 136.617C348.798 136.617 346.616 139.301 346.616 142.612C346.616 145.924 348.798 148.608 351.49 148.608Z" fill="#3F3D56"/>
<path d="M432.956 110.921C435.648 110.921 437.831 108.237 437.831 104.925C437.831 101.614 435.648 98.9294 432.956 98.9294C430.265 98.9294 428.082 101.614 428.082 104.925C428.082 108.237 430.265 110.921 432.956 110.921Z" fill="#3F3D56"/>
<path d="M570.126 31.2634C572.818 31.2634 575 28.579 575 25.2677C575 21.9563 572.818 19.272 570.126 19.272C567.434 19.272 565.252 21.9563 565.252 25.2677C565.252 28.579 567.434 31.2634 570.126 31.2634Z" fill="#3F3D56"/>
<path d="M119.392 250.201C129.502 250.201 137.698 235.853 137.698 218.153C137.698 200.454 129.502 186.105 119.392 186.105C109.283 186.105 101.087 200.454 101.087 218.153C101.087 235.853 109.283 250.201 119.392 250.201Z" fill="#3F3D56"/>
<path opacity="0.1" d="M119.392 250.201C129.502 250.201 137.698 235.853 137.698 218.153C137.698 200.454 129.502 186.105 119.392 186.105C109.283 186.105 101.087 200.454 101.087 218.153C101.087 235.853 109.283 250.201 119.392 250.201Z" fill="black"/>
<path d="M121.86 250.201C131.97 250.201 140.166 235.853 140.166 218.153C140.166 200.454 131.97 186.105 121.86 186.105C111.751 186.105 103.555 200.454 103.555 218.153C103.555 235.853 111.751 250.201 121.86 250.201Z" fill="#3F3D56"/>
<path opacity="0.1" d="M121.86 245.64C130.531 245.64 137.56 233.334 137.56 218.154C137.56 202.973 130.531 190.667 121.86 190.667C113.19 190.667 106.16 202.973 106.16 218.154C106.16 233.334 113.19 245.64 121.86 245.64Z" fill="black"/>
<path d="M121.724 231.394V228.167C120.469 228.153 119.247 227.662 118.227 226.761L118.775 224.621C119.726 225.498 120.879 225.979 122.067 225.995C122.417 226.029 122.768 225.973 123.099 225.83C123.43 225.688 123.733 225.462 123.989 225.168C124.245 224.873 124.448 224.516 124.586 224.12C124.723 223.723 124.792 223.295 124.788 222.864C124.788 221.107 123.896 220.021 122.204 219.062C119.873 217.785 118.432 216.315 118.432 213.536C118.397 212.307 118.728 211.105 119.364 210.157C120 209.21 120.897 208.582 121.884 208.392V205.166H123.302V208.265C124.359 208.282 125.39 208.67 126.274 209.383L125.702 211.491C124.854 210.777 123.849 210.398 122.822 210.405C122.512 210.365 122.198 210.407 121.902 210.527C121.606 210.648 121.334 210.845 121.105 211.105C120.876 211.365 120.694 211.682 120.572 212.035C120.451 212.388 120.391 212.769 120.398 213.152C120.398 214.814 121.244 215.644 123.233 216.794C125.588 218.136 126.777 219.797 126.777 222.64C126.808 223.929 126.46 225.189 125.796 226.187C125.132 227.185 124.198 227.854 123.165 228.071V231.394L121.724 231.394Z" fill="#F87E0F"/>
<path d="M131.66 199.794C132.042 199.848 132.421 199.94 132.792 200.067L159.005 172.415L157.472 162.269L169.618 157.423L173.749 175.06C174.083 176.485 174.032 178.005 173.604 179.391C173.176 180.777 172.394 181.955 171.375 182.748L138.178 208.59C138.201 210.416 137.772 212.207 136.948 213.725C136.124 215.244 134.944 216.417 133.564 217.09C132.184 217.763 130.671 217.904 129.224 217.493C127.778 217.082 126.468 216.139 125.468 214.79C124.468 213.44 123.826 211.749 123.627 209.939C123.428 208.13 123.681 206.289 124.353 204.661C125.025 203.033 126.084 201.695 127.389 200.826C128.695 199.957 130.184 199.597 131.66 199.794Z" fill="#A0616A"/>
<path d="M154.118 125.329C156.475 124.725 158.931 125.197 161.025 126.658C163.12 128.118 164.71 130.467 165.499 133.265L173.333 161.043C173.471 161.53 173.517 162.049 173.469 162.561C173.42 163.073 173.279 163.565 173.054 164C172.83 164.436 172.528 164.803 172.172 165.075C171.816 165.348 171.415 165.517 170.998 165.572L150.128 168.321C149.748 168.371 149.364 168.324 148.999 168.183C148.634 168.043 148.297 167.811 148.008 167.504C147.719 167.196 147.485 166.818 147.32 166.394C147.155 165.97 147.062 165.509 147.048 165.039L146.238 137.704C146.153 134.829 146.897 132.01 148.339 129.745C149.782 127.48 151.829 125.915 154.118 125.329Z" fill="#CCCCCC"/>
</svg>
