<svg width="247" height="228" viewBox="0 0 247 228" fill="none" xmlns="http://www.w3.org/2000/svg">
<g clip-path="url(#clip0)">
<path d="M75.5311 120.186C75.4413 128.947 66.9051 134.137 58.5935 131.023C56.0326 130.068 53.6964 128.615 51.8094 126.746C47.137 122.304 47.2717 115.204 52.079 110.886C55.2688 108.021 59.8964 107.025 64.1195 108.229C65.1978 108.478 66.2761 108.81 67.3094 109.225C72.521 111.675 75.2166 115.536 75.5311 120.186Z" fill="black"/>
<path d="M60.6152 129.279C54.9094 129.404 49.7427 124.961 49.6079 119.48C49.3384 113.834 54.1007 109.059 60.2108 108.81C66.321 108.561 71.4876 112.962 71.7572 118.609C72.0268 124.255 67.2645 129.03 61.1543 129.279C60.9297 129.279 60.75 129.279 60.6152 129.279ZM72.1166 122.927C72.7007 123.051 72.9702 123.383 73.3297 123.508C74.0036 123.715 73.9137 124.131 73.6891 124.587C72.9253 126.207 73.1499 125.999 71.6224 125.044C71.3528 124.919 71.2181 124.629 71.3529 124.38C71.3529 124.338 71.3978 124.297 71.4427 124.255C71.6673 123.881 71.892 123.383 72.1166 122.927ZM74.0934 122.76C72.3862 122.013 72.3862 122.013 72.7905 120.062C74.6326 120.643 74.7673 121.39 74.0934 122.76ZM69.7804 126.663C69.9601 126.248 70.2746 125.916 70.634 125.625C71.0384 125.791 71.4427 125.999 71.7572 126.29C72.1615 126.497 72.2963 126.995 72.0268 127.369C71.892 127.535 71.7572 127.66 71.5326 127.701C71.3079 127.784 71.1282 127.66 70.9934 127.535C70.5891 127.286 70.1847 126.954 69.7804 126.663ZM74.2282 119.439C73.1499 119.19 72.6108 118.609 72.7007 117.612C72.7456 117.28 72.476 116.948 72.6108 116.616C73.8239 116.906 74.1384 117.446 74.2282 119.439ZM67.9384 128.116C68.2079 127.909 68.3876 127.784 68.5224 127.66C68.8818 127.286 69.2413 127.328 69.5558 127.66C69.6905 127.784 69.8702 127.909 70.005 128.033C70.1398 128.158 70.6789 128.324 70.3644 128.739C70.1398 129.154 69.6007 129.279 69.1514 129.071C69.1065 129.03 69.0615 129.03 69.0166 128.988C68.7021 128.739 68.3876 128.449 67.9384 128.116ZM65.7369 129.362C67.1746 128.49 67.1746 128.49 68.3876 129.819C66.905 130.691 67.0398 130.483 65.7369 129.362ZM63.2659 130.109C64.2094 129.611 64.9731 129.736 65.5572 130.649C64.2992 131.147 64.0297 131.064 63.2659 130.109ZM71.6673 113.709C71.9369 114.041 72.2065 114.374 72.476 114.706C72.6108 114.83 72.7007 115.038 72.7007 115.245C72.3413 115.412 72.1166 115.245 71.9369 114.955C71.7123 114.54 71.5326 114.124 71.3529 113.709C71.3978 113.626 71.5326 113.585 71.6224 113.668C71.6673 113.668 71.6673 113.709 71.6673 113.709ZM60.5253 130.525C61.6036 130.234 61.6036 130.234 62.0529 130.815C61.5587 130.815 61.0195 130.732 60.5253 130.525ZM70.8586 113.045C70.7239 112.92 70.4543 112.796 70.6789 112.671C70.9036 112.547 71.0833 112.837 71.1731 113.045C71.0833 113.17 70.9934 113.17 70.8586 113.045Z" fill="#FFB674"/>
<path d="M71.6673 113.709H71.3528C71.218 113.709 71.1731 113.585 71.1731 113.502C71.0832 113.419 71.0832 113.294 71.1731 113.211L71.218 113.17C71.4427 113.294 71.6224 113.46 71.6673 113.709Z" fill="#FFB674"/>
<path d="M71.2181 113.211C71.2181 113.294 71.1732 113.419 71.1732 113.502C71.0384 113.377 70.9036 113.211 70.8587 113.003H71.1732C71.2181 113.086 71.2181 113.128 71.2181 113.211ZM60.3906 117.031C59.8514 116.45 59.4471 115.827 59.2225 115.079C59.0877 114.664 59.2674 114.415 59.7616 114.374C60.0761 114.374 60.3456 114.374 60.6601 114.374C62.0978 114.498 62.1877 114.706 61.379 115.785C61.1094 116.2 60.7949 116.533 60.3906 117.031ZM60.2558 118.899C60.4355 119.065 60.5253 119.107 60.5253 119.19C60.75 119.646 61.1993 120.145 60.7051 120.56C60.2109 120.975 59.5369 120.768 58.908 120.435C59.4022 119.896 59.8065 119.439 60.2558 118.899Z" fill="#FFB674"/>
<path d="M118.347 24.6506C118.257 33.4111 109.721 38.601 101.409 35.4871C98.8484 34.5322 96.5122 33.079 94.6252 31.2106C89.9977 26.7681 90.1325 19.6683 94.9397 15.3503C98.1296 12.527 102.712 11.5305 106.935 12.7346C108.014 12.9837 109.092 13.3159 110.125 13.7311C115.337 16.1392 118.032 20.0005 118.347 24.6506Z" fill="black"/>
<path d="M103.431 33.7433C97.7252 33.8263 92.5585 29.4253 92.4237 23.9032C92.1542 18.2566 96.9165 13.4819 103.027 13.2743C109.137 13.0667 114.303 17.4262 114.528 23.0729C114.753 28.7195 110.035 33.4942 103.925 33.7018C103.745 33.7018 103.611 33.7433 103.431 33.7433ZM114.932 27.3493C115.516 27.4739 115.786 27.806 116.145 27.9306C116.819 28.1382 116.73 28.5534 116.505 29.0101C115.741 30.6293 115.966 30.4218 114.438 29.4668C114.169 29.3423 114.034 29.0516 114.169 28.8025C114.169 28.761 114.214 28.7195 114.259 28.6779C114.483 28.3043 114.708 27.8476 114.932 27.3493ZM116.909 27.1833C115.202 26.4359 115.202 26.4359 115.606 24.4845C117.448 25.0658 117.583 25.8131 116.909 27.1833ZM112.596 31.0861C112.776 30.6709 113.09 30.3387 113.45 30.0481C113.854 30.2142 114.259 30.4218 114.573 30.7124C114.977 30.92 115.112 31.4182 114.843 31.7919C114.708 31.958 114.573 32.0825 114.348 32.124C114.124 32.2071 113.944 32.0825 113.809 31.958C113.405 31.7088 113.001 31.3767 112.596 31.0861ZM117.044 23.8617C115.966 23.6126 115.427 23.0313 115.516 22.0349C115.561 21.7027 115.292 21.3706 115.427 21.0384C116.64 21.3291 116.999 21.9103 117.044 23.8617ZM110.754 32.5392C110.934 32.3732 111.159 32.2486 111.338 32.0825C111.698 31.7088 112.057 31.7504 112.372 32.0825C112.506 32.2071 112.686 32.3316 112.821 32.4562C112.956 32.5807 113.495 32.7468 113.18 33.162C112.956 33.5772 112.416 33.7018 111.967 33.4942C111.922 33.4527 111.877 33.4527 111.832 33.4111C111.518 33.162 111.203 32.8714 110.754 32.5392ZM108.553 33.8263C109.99 32.9544 109.99 32.9544 111.203 34.283C109.721 35.1134 109.901 34.9473 108.553 33.8263ZM106.082 34.5322C107.025 34.0339 107.789 34.1585 108.373 35.0719C107.115 35.5701 106.845 35.5286 106.082 34.5322ZM114.528 18.1736C114.798 18.5057 115.067 18.8379 115.337 19.1701C115.472 19.3361 115.561 19.5022 115.561 19.7098C115.202 19.8759 114.932 19.7098 114.798 19.4192C114.573 19.004 114.393 18.5888 114.214 18.1736C114.259 18.0906 114.393 18.049 114.483 18.1321C114.483 18.1321 114.483 18.1321 114.528 18.1736ZM103.341 34.9473C104.419 34.6567 104.419 34.6567 104.869 35.238C104.374 35.238 103.835 35.1549 103.341 34.9473ZM113.674 17.4678C113.54 17.3432 113.27 17.2187 113.495 17.0941C113.719 16.9695 113.899 17.2602 113.989 17.4678C113.944 17.5508 113.809 17.5923 113.719 17.5508C113.719 17.5093 113.674 17.5093 113.674 17.4678Z" fill="#FFB674"/>
<path d="M114.528 18.1735H114.214C114.079 18.1735 114.034 18.049 114.034 17.9659C113.944 17.8829 113.944 17.7583 114.034 17.6753L114.079 17.6338C114.259 17.7583 114.438 17.9244 114.528 18.1735Z" fill="#FFB674"/>
<path d="M114.034 17.6339C114.034 17.7169 113.989 17.8415 113.989 17.9245C113.809 17.7999 113.72 17.6339 113.675 17.4263H113.989C114.034 17.5093 114.034 17.5923 114.034 17.6339ZM103.251 21.4952C102.712 20.9139 102.308 20.2911 102.083 19.5437C101.949 19.1286 102.128 18.8794 102.622 18.8379C102.892 18.8379 103.206 18.8379 103.476 18.8379C104.914 18.9625 105.004 19.1701 104.195 20.2496C103.925 20.6232 103.611 20.9969 103.251 21.4952ZM103.072 23.322C103.251 23.4881 103.341 23.5296 103.341 23.6126C103.566 24.0693 104.015 24.5676 103.521 24.9828C103.027 25.398 102.353 25.1904 101.724 24.8582C102.218 24.3185 102.622 23.8617 103.072 23.322Z" fill="#FFB674"/>
<path d="M216.783 42.5454C216.693 51.306 208.157 56.4958 199.846 53.3819C197.285 52.427 194.948 50.9738 193.062 49.1054C188.434 44.6629 188.569 37.5631 193.376 33.2451C196.566 30.4218 201.148 29.3838 205.372 30.6294C206.45 30.8785 207.528 31.2107 208.561 31.6259C213.773 34.034 216.469 37.8953 216.783 42.5454Z" fill="black"/>
<path d="M201.867 51.6381C196.161 51.7627 190.995 47.3201 190.86 41.8396C190.59 36.193 195.353 31.4182 201.463 31.1691C207.573 30.92 212.74 35.3211 213.009 40.9677C213.279 46.6143 208.517 51.389 202.406 51.6381C202.182 51.6381 202.047 51.6381 201.867 51.6381ZM213.369 45.2441C213.953 45.3687 214.222 45.7008 214.582 45.8254C215.256 46.0745 215.166 46.4482 214.941 46.9049C214.177 48.5242 214.402 48.3166 212.875 47.3616C212.56 47.154 212.47 46.9464 212.65 46.6143C212.919 46.1991 213.144 45.7424 213.369 45.2441ZM215.346 45.1196C213.638 44.3722 213.638 44.3722 214.043 42.4208C215.885 43.0021 216.019 43.7079 215.346 45.1196ZM211.032 48.9809C211.212 48.5657 211.527 48.2335 211.886 47.9429C212.29 48.109 212.695 48.3166 213.009 48.6072C213.414 48.8148 213.548 49.313 213.279 49.6867C213.144 49.8528 212.964 49.9773 212.785 50.0604C212.56 50.1434 212.38 50.0188 212.246 49.8943C211.841 49.6037 211.437 49.313 211.032 48.9809ZM215.48 41.798C214.402 41.5074 213.863 40.9677 213.953 39.9712C213.998 39.639 213.728 39.3069 213.863 38.9747C215.076 39.2239 215.39 39.8051 215.48 41.798ZM209.19 50.4756C209.46 50.268 209.64 50.1434 209.775 50.0188C210.134 49.6452 210.448 49.7282 210.808 50.0604C210.943 50.1849 211.122 50.3095 211.257 50.434C211.392 50.5586 211.931 50.7247 211.617 51.1399C211.392 51.5551 210.853 51.6796 210.403 51.472C210.359 51.4305 210.314 51.4305 210.269 51.389C209.954 51.0983 209.64 50.8077 209.19 50.4756ZM206.989 51.7211C208.427 50.8492 208.427 50.8492 209.64 52.1778C208.157 53.0082 208.292 52.8421 206.989 51.7211ZM204.518 52.4685C205.461 51.9702 206.225 52.0948 206.809 53.0082C205.551 53.5065 205.282 53.4234 204.518 52.4685ZM212.964 36.0684C213.234 36.4006 213.503 36.7327 213.773 37.0649C213.908 37.2309 213.998 37.397 213.998 37.6046C213.638 37.7707 213.414 37.6046 213.234 37.314C213.009 36.8988 212.83 36.4836 212.65 36.0684C212.695 35.9854 212.83 35.9438 212.919 36.0269L212.964 36.0684ZM201.777 52.8837C202.856 52.593 202.856 52.593 203.35 53.1743C202.811 53.1743 202.272 53.0497 201.777 52.8837ZM212.111 35.4041C211.976 35.2795 211.706 35.155 211.931 35.0304C212.156 34.9059 212.335 35.1965 212.425 35.4041C212.38 35.4871 212.246 35.5286 212.156 35.4871C212.156 35.4456 212.156 35.4041 212.111 35.4041Z" fill="#FFB674"/>
<path d="M212.964 36.0684H212.65C212.515 36.0684 212.47 35.9439 212.47 35.8608C212.38 35.7778 212.38 35.6532 212.47 35.5702L212.515 35.5287C212.695 35.6532 212.874 35.8193 212.964 36.0684Z" fill="#FFB674"/>
<path d="M212.47 35.5701C212.47 35.6947 212.47 35.7777 212.425 35.8608C212.29 35.7362 212.156 35.5701 212.111 35.3625H212.425C212.47 35.4456 212.47 35.4871 212.47 35.5701ZM201.687 39.3899C201.148 38.8502 200.744 38.1859 200.519 37.4385C200.385 37.0233 200.564 36.7327 201.058 36.7327C201.373 36.7327 201.643 36.7327 201.957 36.7742C203.395 36.8988 203.485 37.1064 202.631 38.1859C202.361 38.5595 202.047 38.8917 201.687 39.3899ZM201.508 41.2583C201.687 41.4244 201.777 41.4659 201.777 41.5489C202.002 42.0056 202.451 42.5038 201.957 42.919C201.463 43.3342 200.834 43.1266 200.16 42.7945C200.654 42.2547 201.058 41.7565 201.508 41.2583Z" fill="#FFB674"/>
<path d="M209.64 156.682C209.55 165.442 201.014 170.632 192.702 167.518C190.141 166.563 187.805 165.11 185.918 163.242C181.29 158.758 181.425 151.699 186.277 147.381C189.467 144.558 194.05 143.562 198.273 144.766C199.351 145.015 200.429 145.347 201.463 145.762C206.629 148.17 209.325 152.031 209.64 156.682Z" fill="black"/>
<path d="M194.679 165.774C188.973 165.899 183.806 161.456 183.672 155.976C183.402 150.329 188.164 145.554 194.274 145.305C200.385 145.056 205.551 149.457 205.821 155.104C206.09 160.751 201.328 165.525 195.218 165.774C195.038 165.774 194.858 165.774 194.679 165.774ZM206.225 159.38C206.809 159.505 207.079 159.837 207.438 159.962C208.112 160.211 208.022 160.584 207.798 161.041C207.034 162.66 207.258 162.494 205.731 161.498C205.461 161.373 205.327 161.083 205.461 160.834C205.461 160.792 205.506 160.751 205.551 160.709C205.776 160.335 205.956 159.879 206.225 159.38ZM208.202 159.214C206.495 158.467 206.495 158.467 206.899 156.516C208.741 157.138 208.831 157.844 208.202 159.214ZM203.844 163.117C204.024 162.702 204.338 162.37 204.698 162.079C205.102 162.245 205.506 162.453 205.821 162.743C206.225 162.951 206.36 163.449 206.09 163.823C205.956 163.989 205.821 164.114 205.596 164.155C205.372 164.238 205.192 164.114 205.057 163.989C204.653 163.74 204.248 163.408 203.844 163.117ZM208.292 155.893C207.214 155.644 206.674 155.062 206.764 154.066C206.809 153.734 206.54 153.402 206.674 153.069C207.887 153.36 208.247 153.941 208.292 155.893ZM202.047 164.57C202.316 164.363 202.496 164.238 202.631 164.114C202.99 163.74 203.305 163.781 203.664 164.114C203.799 164.238 203.979 164.363 204.114 164.487C204.248 164.612 204.787 164.778 204.473 165.193C204.248 165.608 203.709 165.733 203.26 165.525C203.215 165.484 203.17 165.484 203.125 165.442C202.811 165.193 202.451 164.944 202.047 164.57ZM199.801 165.857C201.238 164.985 201.238 164.985 202.451 166.314C200.969 167.144 201.148 166.978 199.801 165.857ZM197.374 166.563C198.318 166.065 199.082 166.19 199.666 167.103C198.363 167.601 198.138 167.56 197.374 166.563ZM205.776 150.205C206.045 150.537 206.315 150.869 206.585 151.201C206.719 151.367 206.809 151.533 206.809 151.741C206.45 151.907 206.225 151.741 206.045 151.45C205.821 151.035 205.641 150.62 205.461 150.205C205.506 150.122 205.641 150.08 205.731 150.163C205.731 150.163 205.776 150.163 205.776 150.205ZM194.634 166.978C195.712 166.688 195.712 166.688 196.206 167.269C195.622 167.269 195.128 167.186 194.634 166.978ZM204.967 149.499C204.832 149.374 204.563 149.25 204.787 149.125C205.012 149.001 205.192 149.291 205.282 149.499C205.237 149.582 205.102 149.623 205.012 149.582C205.012 149.54 204.967 149.54 204.967 149.499Z" fill="#FFB674"/>
<path d="M205.776 150.205H205.461C205.327 150.205 205.282 150.08 205.282 149.997C205.192 149.914 205.192 149.789 205.282 149.706L205.327 149.665C205.506 149.789 205.686 149.956 205.776 150.205Z" fill="#FFB674"/>
<path d="M205.327 149.665C205.327 149.748 205.327 149.872 205.282 149.955C205.147 149.831 205.012 149.665 204.967 149.457H205.282C205.327 149.54 205.327 149.623 205.327 149.665ZM194.499 153.526C193.96 152.986 193.556 152.322 193.331 151.575C193.196 151.16 193.376 150.91 193.87 150.869C194.14 150.869 194.454 150.869 194.769 150.869C196.206 150.993 196.296 151.201 195.443 152.281C195.173 152.654 194.859 153.028 194.499 153.526ZM194.364 155.353C194.544 155.519 194.634 155.561 194.634 155.644C194.859 156.1 195.308 156.599 194.814 157.014C194.32 157.429 193.691 157.221 193.017 156.889C193.466 156.349 193.87 155.893 194.364 155.353Z" fill="#FFB674"/>
<path d="M163.993 191.018C164.577 191.392 165.251 191.599 165.97 191.516C169.25 191.516 172.574 191.807 175.854 191.807C177.337 191.807 178.864 192.014 180.347 191.973C184.66 191.765 188.973 191.682 193.241 190.727C196.341 189.98 199.576 189.689 202.811 189.938C205.282 190.146 207.663 190.852 209.774 191.973C211.347 192.803 212.785 193.758 213.773 195.211C214.537 196.332 214.941 197.62 214.941 198.948C214.941 199.695 214.941 200.401 214.941 201.149C214.986 205.301 212.874 208.331 209.1 210.49C208.202 211.03 207.258 211.57 206.36 212.11C205.282 212.732 204.114 213.148 202.9 213.355C202.002 213.563 201.148 213.895 200.295 214.186C196.386 215.431 192.342 216.179 188.299 216.884C185.783 217.3 183.222 217.632 180.661 217.964C179.403 218.13 178.1 218.13 176.798 218.255C173.832 218.545 170.867 218.587 167.902 218.421C165.88 218.296 163.814 218.296 161.792 218.088C159.411 217.881 157.074 217.59 154.738 217.3C151.863 216.926 148.987 216.511 146.157 215.929C141.889 215.099 137.666 214.02 133.532 212.691C130.253 211.611 127.018 210.449 124.098 208.705C122.166 207.584 120.279 206.38 118.976 204.512C116.954 201.647 117.583 198.616 119.74 196.291C120.998 194.962 122.66 194.132 124.412 193.426C127.557 192.222 130.882 191.433 134.296 191.059C135.734 190.852 137.216 190.727 138.654 190.769C139.463 190.769 140.316 190.686 141.125 190.561C141.709 190.561 141.844 191.018 142.069 191.35C142.832 192.513 143.506 193.675 144.09 194.921C144.809 196.415 145.753 197.827 146.786 199.114C146.741 199.82 146.651 200.526 146.472 201.19C146.202 202.685 146.696 203.847 148.134 204.636C150.785 206.089 153.75 206.837 156.76 207.377C158.108 207.584 159.501 207.709 160.893 207.667C163.589 207.626 166.329 207.75 169.025 208.082C171.766 208.331 174.551 207.999 177.157 207.044C177.696 207.044 178.28 207.044 178.819 207.169C178.64 206.712 178.145 206.546 178.056 206.131C177.966 205.716 178.145 205.259 178.19 204.802C178.19 204.47 178.1 204.138 177.966 203.847C177.786 203.391 177.831 203.017 178.415 202.892C178.729 202.809 179.044 202.975 179.448 202.726C178.325 201.481 176.438 201.938 175.225 201.066C171.316 198.657 167.138 198.325 162.825 199.903C161.927 200.235 161.073 200.609 160.174 200.941C158.827 201.481 158.198 201.024 158.467 199.737C158.692 198.242 159.186 196.789 159.95 195.461C161.118 194.547 162.061 193.385 162.69 192.097C163.005 191.682 163.229 191.101 163.993 191.018Z" fill="#FFEFE1"/>
<path d="M149.167 49.1469C149.392 49.313 149.706 49.23 149.976 49.313C150.56 49.6867 151.009 49.1884 151.548 49.1469C151.863 49.1054 152.132 49.2715 152.402 49.23C152.716 49.5206 153.256 49.5621 153.615 49.3545C153.84 49.23 154.109 48.9393 154.469 49.23C155.637 49.6036 156.895 49.6452 158.108 49.8943C160.848 50.3925 163.364 51.5135 165.835 52.6761C165.925 53.4234 166.599 52.9667 166.958 53.1743C167.048 53.548 167.408 53.6725 167.722 53.8386C167.318 55.0842 168.441 54.2538 168.756 54.5029C168.98 55.0011 169.205 55.4994 169.924 55.4578C169.699 56.1637 169.699 56.1637 170.283 56.4128C170.328 56.5373 170.373 56.6204 170.463 56.7449C172.125 58.6133 172.619 60.7723 172.619 63.0974C172.619 64.0938 172.754 65.0903 172.844 66.0868C173.024 67.4569 172.799 68.8685 172.215 70.1556C172.035 70.5293 171.945 70.7784 172.44 70.986C175.315 72.1901 176.663 74.4736 177.561 77.0893C178.145 78.9162 178.325 80.8261 178.145 82.6944C177.651 83.1511 177.112 82.819 176.618 82.7359C175.764 82.5284 174.866 82.2792 173.787 82.4453C175.315 83.0266 177.022 82.6114 178.056 83.8985C178.19 84.2306 178.19 84.6043 178.056 84.9365C177.561 85.4347 177.157 85.0195 176.708 84.8534C176.034 84.6043 175.405 84.1476 174.327 84.0646C175.001 84.6458 175.674 84.7704 176.169 85.061C176.663 85.3517 177.427 85.5177 177.651 86.2236C177.516 86.5142 177.247 86.7633 176.887 86.8879C176.034 87.0539 175.764 86.2236 175.001 86.016C175.405 86.8879 176.573 87.137 176.663 88.1334C176.348 88.5071 176.214 88.9638 175.854 89.3375C175.09 89.2129 175.135 88.4656 174.686 88.0919C174.327 87.7598 174.147 87.3031 173.563 86.9709C173.832 87.7183 174.327 88.175 174.641 88.7562C174.866 89.1714 175.36 89.5451 175.09 90.1264C173.787 91.4135 172.215 92.4099 170.463 93.0327C169.564 93.2818 168.98 94.1122 169.115 94.9841C169.16 95.5239 169.474 96.2712 168.531 96.5203C168.037 95.856 168.261 95.1087 168.261 94.4028C168.261 93.8631 168.082 93.7801 167.632 94.0292C164.218 95.9391 160.444 96.4373 156.58 96.8525C155.143 96.977 153.66 96.8525 152.312 97.4337C152.043 97.5583 151.728 97.4753 151.593 97.2261C151.414 96.977 151.009 96.894 150.74 97.0601C150.29 97.0601 149.841 97.0185 149.392 96.894C148.943 96.6034 148.448 96.7694 147.954 96.7279C145.528 95.6484 143.147 94.5689 141.125 92.9497C140.721 92.7006 140.406 92.4099 140.137 92.0778C139.732 89.6281 138.205 87.7598 136.363 86.099C135.644 85.5177 134.925 84.8949 134.341 84.2306C134.251 83.7324 133.937 83.3172 133.443 83.0681C131.87 82.2377 130.522 81.0752 129.04 80.0787C126.614 78.501 124.367 76.5911 122.076 74.8473C121.717 74.5982 121.537 74.2245 121.627 73.8508C121.672 73.1865 121.851 72.5637 122.211 71.9825C123.199 70.5708 124.322 69.2007 125.535 67.9551C127.602 66.8756 129.938 66.2528 132.319 66.0868C133.892 66.0452 135.509 66.1698 137.037 66.4189C140.406 66.8756 143.686 67.5814 147.101 67.4154C148.044 67.4154 149.032 67.2493 149.931 66.9587C150.74 66.668 150.964 66.1698 150.695 65.3809C149.931 63.305 147.864 62.4331 145.663 63.305C144.63 63.6786 143.776 64.3014 143.057 65.0488C141.889 66.2944 140.496 66.668 138.789 66.2944C137.172 65.9622 135.509 65.7961 133.802 65.7131C131.601 65.63 129.444 65.9207 127.377 66.6265C127.018 66.7511 126.569 67.0417 126.209 66.668C125.85 66.2943 126.119 65.8376 126.299 65.464C127.692 62.6407 129.444 59.9834 131.915 57.866C132.319 57.5338 132.993 57.2016 132.364 56.5373C132.274 56.4543 132.23 56.3297 132.185 56.2467C132.769 56.0391 133.308 55.7485 133.757 55.3748C137.756 52.4685 142.069 50.1019 147.235 49.5206C147.415 49.4791 147.55 49.4376 147.73 49.396C148.134 49.3545 148.628 49.1054 149.167 49.1469Z" fill="#FC9538"/>
<path d="M134.386 84.1475C135.285 84.8949 136.183 85.6422 137.037 86.3896C137.98 87.2615 138.789 88.2579 139.373 89.3374C139.912 90.1678 140.227 91.1228 140.182 92.0777C140.541 92.9496 140.092 93.6554 139.688 94.3613C139.238 95.1501 139.328 95.6068 140.227 96.022C141.754 96.7694 143.012 97.8074 144.585 98.5132C145.933 99.0945 146.202 99.0114 147.056 97.8489C147.37 97.4337 147.415 96.8109 148.089 96.6033C148.493 96.0636 148.898 96.2296 149.257 96.6033C149.482 97.7243 148.763 98.5547 148.044 99.2605C147.146 100.174 147.011 101.046 147.64 102.084C147.999 102.624 147.864 103.62 148.628 103.703C149.392 103.786 149.706 102.831 150.156 102.333C151.234 101.336 151.504 99.7588 150.83 98.4717C150.605 97.9734 150.29 97.3922 150.605 96.8109C151.009 96.3542 151.279 96.3127 151.548 96.6863C151.683 96.8524 151.593 97.1431 151.818 97.2676C152.357 97.5582 152.402 98.098 152.537 98.5547C153.121 100.049 153.121 100.049 154.873 100.049C158.153 100.091 161.073 98.9699 163.993 97.8074C164.308 97.6828 164.577 97.5167 164.892 97.3922C166.375 96.8524 167.498 96.1051 167.183 94.4028C167.183 94.1122 167.273 93.863 167.498 93.6554C167.767 93.4894 167.992 93.2818 168.441 93.3648C168.486 94.3197 168.531 95.3162 168.576 96.2712C168.89 96.9355 168.351 97.2676 167.947 97.5998C167.273 98.098 166.554 98.4717 165.79 98.8038C162.017 100.465 158.198 101.918 153.885 101.586C153.076 101.503 152.267 101.918 151.953 102.624C151.638 103.163 151.234 103.703 150.785 104.118C149.572 105.115 149.392 106.402 149.257 107.772C148.808 111.799 148.314 115.827 147.864 119.854C147.595 121.556 147.505 123.3 147.505 125.044C147.595 127.078 146.876 128.698 145.034 129.943C143.866 130.732 142.877 131.77 141.754 132.6C140.002 133.929 139.238 133.763 138.295 131.812C136.453 127.992 136.498 124.214 138.43 120.394C140.586 115.993 142.473 111.467 144.809 107.149C144.944 106.817 145.124 106.526 145.348 106.236C146.876 104.575 146.517 102.914 145.573 101.17C145.393 100.797 145.079 100.465 144.675 100.257C142.877 99.5512 141.35 98.4717 139.733 97.5167C138.475 96.7694 138.475 96.7694 137.576 97.9319C136.138 99.8418 134.386 101.544 132.409 102.956C132.14 103.163 131.825 103.371 131.466 103.537C131.151 103.745 130.702 103.703 130.433 103.412C130.163 103.122 130.163 102.665 130.477 102.416L130.522 102.374C130.837 102.084 131.196 101.793 131.556 101.544C134.251 99.4681 136.498 96.8939 138.07 93.9876C138.969 92.3268 138.969 90.7906 137.756 89.2129C136.318 87.3445 134.521 85.7668 132.454 84.4797C129.399 82.5698 126.254 80.826 123.469 78.584C121.537 77.0893 119.83 75.387 118.392 73.4771C116.685 71.1936 114.798 68.993 113.36 66.5434C112.956 65.8376 112.506 65.8376 111.877 66.2113C109.901 67.4568 108.104 68.8685 106.172 70.1556C102.308 72.6883 97.9949 74.349 93.4572 75.5531C91.6152 76.0513 91.5703 76.0513 92.5587 77.546C95.3442 81.6564 98.2195 85.7668 101.814 89.379C103.521 91.0397 105.543 92.3683 107.789 93.3648C109.631 94.2367 111.563 95.0256 113.18 96.3127C115.741 98.3886 117.493 100.797 117.718 104.118C117.898 107.357 117.448 110.512 116.954 113.668C116.864 114.332 116.73 114.955 116.505 115.578C115.067 119.065 116.505 122.096 118.437 124.961C120.459 127.826 122.975 130.317 125.94 132.393C132.364 137.043 139.463 140.697 146.427 144.516C147.101 144.89 147.864 145.098 148.673 145.139C150.425 145.222 152.177 145.471 153.93 145.305C155.098 145.181 156.266 145.264 157.434 145.264C161.747 145.222 166.015 144.599 170.283 144.101C170.777 144.101 171.182 143.769 171.182 143.312C171.182 143.229 171.182 143.146 171.137 143.063C170.732 140.365 170.598 137.624 170.283 134.884C170.014 132.268 169.879 129.653 169.654 127.037C169.385 123.881 168.98 120.726 168.801 117.57C168.756 116.699 168.351 115.91 167.588 115.37C166.824 114.747 166.24 113.958 165.835 113.128C165.611 112.713 165.341 112.215 165.925 111.882C166.509 111.55 166.959 111.965 167.273 112.422C167.677 113.045 168.172 113.626 168.711 114.166C169.25 114.747 170.103 114.955 170.867 114.664C175.854 112.92 180.931 111.592 185.873 109.765C187.985 108.976 189.827 107.647 191.085 105.904C192.028 104.658 192.972 103.454 193.825 102.167C194.499 101.212 194.724 100.049 194.364 98.9699C192.882 94.0291 191.714 88.9638 190.231 84.023C189.872 82.7774 189.737 82.6944 188.434 82.9435C186.547 83.3172 184.705 83.7324 182.593 84.106C183.761 84.7703 184.84 85.3101 185.918 85.8498C186.861 86.265 187.715 86.8463 188.434 87.5521C188.793 87.8843 189.153 88.341 188.659 88.7562C188.164 89.1714 187.715 88.9223 187.311 88.6316C185.783 87.6767 184.211 86.7633 182.593 85.9744C181.021 85.1855 179.269 84.6873 177.741 83.8154C176.663 83.1096 175.405 83.1096 174.192 82.8605C173.832 82.7774 173.473 82.7359 173.114 82.6529C172.934 82.6113 172.889 82.4453 172.889 82.2792C172.889 82.1131 173.024 81.9885 173.159 81.947C173.428 81.9055 173.743 81.9055 174.012 81.9055C174.866 81.947 175.764 82.1131 176.573 82.3622C177.022 82.5283 177.472 82.6113 177.921 82.6113C178.774 83.1096 179.763 83.2756 180.751 83.1096C183.672 82.6113 186.502 81.9886 189.377 81.3658C189.872 81.2412 189.917 81.0336 189.872 80.6184C189.827 79.4144 189.872 79.4144 191.13 79.2068C191.624 79.1237 192.118 78.9992 192.567 78.8331C193.466 78.5425 193.556 78.584 194.005 79.4974C194.364 79.8711 194.634 80.3278 194.724 80.826C196.161 85.3516 197.554 89.8772 198.543 94.4858C198.677 95.0256 198.722 95.5653 198.632 96.1051C198.677 97.1431 198.812 98.181 199.082 99.1775C199.306 100.215 199.127 101.004 198.093 101.544C197.779 101.71 197.464 101.959 197.24 102.208C196.296 103.08 196.251 103.122 195.308 102.25C194.409 103.454 193.511 104.658 192.702 105.904C191.04 108.312 188.569 110.139 185.693 111.135C182.908 112.173 180.032 113.003 177.157 113.875C174.911 114.54 172.799 115.411 170.553 116.076C170.059 116.242 169.924 116.491 169.969 116.948C170.193 119.48 170.373 122.013 170.598 124.587C170.822 126.995 171.047 129.445 171.227 131.853C171.586 135.88 171.856 139.949 172.44 143.977C172.485 144.392 172.53 144.849 172.125 145.015C171.361 145.222 171.451 145.72 171.541 146.219C171.901 148.419 172.215 150.661 172.619 152.862C173.248 156.266 174.012 159.712 174.417 163.159C174.821 167.103 174.372 171.047 173.159 174.825C172.575 176.735 171.721 178.604 170.688 180.389C168.711 183.794 166.509 187.115 164.128 190.271C163.948 190.478 163.814 190.727 163.679 190.935C163.005 191.641 162.466 192.471 162.061 193.343C161.612 194.256 160.893 195.004 159.95 195.502C159.546 195.876 159.051 196.166 158.512 196.374C155.367 197.578 152.088 198.533 148.808 199.239C147.954 199.405 147.146 199.529 146.472 198.907C145.573 198.45 145.124 197.661 144.719 196.872C143.731 194.838 142.608 192.886 141.35 190.976C141.215 190.81 141.125 190.686 140.946 190.561L140.856 190.354C140.811 190.271 140.721 190.188 140.676 190.105C139.957 188.942 139.059 187.862 138.025 186.908C134.746 183.752 131.421 180.597 128.096 177.441C128.051 177.4 127.962 177.358 127.872 177.317C127.602 177.275 127.333 177.151 127.108 176.943C124.367 174.037 121.941 171.006 120.998 167.144C120.863 166.439 120.818 165.733 120.863 164.985C120.728 164.363 120.593 163.698 120.459 163.076C120.414 162.868 120.324 162.66 120.234 162.494C118.572 163.034 116.864 163.408 115.112 163.615C110.664 163.947 106.486 163.366 102.622 161.083C99.4326 159.173 96.2876 157.221 92.963 155.519C89.0543 153.485 84.921 151.907 80.4732 151.284C77.8224 150.952 75.1717 150.786 72.4761 150.703C71.6674 150.703 70.9036 150.62 70.1398 150.412C69.5109 150.537 68.9268 150.163 68.792 149.582C68.7471 149.499 68.7471 149.374 68.792 149.291C68.7022 147.049 68.3427 144.849 68.4775 142.648C68.4775 142.316 68.6123 141.984 68.792 141.693C69.1065 141.029 69.6456 140.448 70.3196 140.074C71.4877 139.327 72.521 138.372 73.2848 137.292C74.9022 135.258 76.3398 133.14 77.5978 130.898C79.2601 127.992 80.9224 125.085 83.079 122.47C84.7862 120.352 86.8079 118.484 89.0543 116.865C91.3905 115.204 94.0862 114.374 96.9616 113.875C100.511 113.211 103.656 114.249 106.666 115.785C108.418 116.74 110.26 117.612 112.102 118.401C114.034 119.148 114.079 119.148 114.438 117.28C114.977 114.706 115.562 112.131 115.831 109.516C116.056 107.232 116.191 104.949 115.741 102.707C115.517 101.627 114.977 100.589 114.214 99.7172C112.821 97.9319 110.889 96.5203 108.733 95.6068C103.521 93.5309 99.5673 90.1678 96.4224 85.8498C94.2659 82.8604 91.8848 79.9956 90.1326 76.7571C90.0427 76.425 89.6384 76.2174 89.279 76.3004C88.5601 76.425 88.1108 76.0928 87.7963 75.47C87.6616 75.2209 87.5268 74.9718 87.4369 74.7227C86.9427 73.311 87.1674 72.8958 88.6949 72.3976L89.0543 72.2731C89.9079 71.6503 90.9862 71.5672 91.9297 71.1936C94.9847 70.0725 97.905 68.6194 100.556 66.834C103.162 65.0902 105.992 63.6786 108.463 61.7687C108.688 61.6026 108.957 61.5196 109.272 61.5196C109.496 61.3535 109.721 61.1459 109.946 61.0214C110.799 60.4816 111.563 60.5646 111.833 61.4366C113.405 66.0867 116.909 69.6573 119.74 73.6017C120.144 73.6847 120.504 73.9338 120.728 74.266C123.424 77.2554 126.748 79.5389 130.298 81.5734C130.388 81.6149 130.522 81.6979 130.612 81.7394C132.095 82.5698 133.577 82.985 134.386 84.1475Z" fill="black"/>
<path d="M109.676 61.5197C108.418 62.5161 107.07 63.4296 105.677 64.2599C103.925 65.2979 102.173 66.3774 100.466 67.4984C97.5905 69.3253 94.4905 70.7785 91.2557 71.858C90.6717 72.0656 90.0876 72.2316 89.4586 72.2732C89.6383 70.0311 90.1775 67.8721 90.5369 65.6301C91.0311 62.3501 91.5253 59.0701 91.9746 55.79C92.2441 54.1293 92.4238 52.427 92.4688 50.7247C92.4688 48.5657 91.7949 47.8599 89.5934 47.2786C85.2354 46.1576 81.0572 44.6629 77.463 41.9226C75.7557 40.594 74.7673 39.0163 74.8572 36.8988C74.8572 35.6532 74.9471 34.4492 75.0818 33.2036C75.3963 31.6259 76.0253 31.3352 77.5978 32.0826C77.8673 33.4942 77.7775 34.9059 78.0021 36.3175C78.2268 37.8953 78.9007 39.1824 80.4731 39.9297C78.8108 39.0578 78.2717 37.6046 78.092 35.9854C77.9572 35.1965 77.8673 34.4077 77.8224 33.5773C77.8224 33.1621 77.7775 32.7054 78.1369 32.4147L80.0688 32.6638C80.6079 33.079 80.4282 33.6603 80.4282 34.1585C80.4731 35.7363 81.3268 37.231 82.7644 38.1029C80.8775 36.4836 80.1137 34.3246 80.8775 32.6223C82.3601 32.4147 83.1688 32.7469 83.6181 33.9925C84.0224 35.1135 84.7412 35.5287 85.9543 35.6947C90.4021 36.1515 94.7151 37.4801 98.5789 39.556C99.5673 40.0543 100.286 40.9677 100.466 42.0057C100.646 42.8361 100.735 43.708 100.691 44.5383C100.691 45.3687 100.69 46.1576 100.735 46.988C100.78 48.2751 101.14 49.5206 101.859 50.6417C104.15 54.0462 106.217 57.5754 108.867 60.8139C109.137 61.063 109.362 61.3121 109.676 61.5197Z" fill="#FC9538"/>
<path d="M20.9442 163.034C16.092 159.048 12.8572 154.232 12.2282 148.17C11.734 143.146 13.0819 138.621 17.1703 135.009C19.9558 132.559 23.1905 131.853 26.8746 132.476C28.8514 132.85 30.7384 133.472 32.4905 134.386C34.2427 135.299 35.9499 136.254 37.5673 137.334C37.747 137.915 37.3427 138.289 37.0282 138.662C35.4557 140.697 33.5688 142.524 31.9065 144.475C27.3688 149.706 23.9094 155.644 21.663 161.996C21.5282 162.411 21.5732 162.951 20.9442 163.034Z" fill="black"/>
<path d="M93.2326 191.059C92.7384 191.226 92.1993 191.309 91.6601 191.267C88.2007 191.392 84.7413 191.309 81.2819 191.018C78.4515 190.769 75.621 190.603 72.8805 190.105C72.2964 189.067 72.521 187.987 72.6109 186.949C73.195 179.434 75.1268 172.085 78.3167 165.152C78.5862 164.529 78.8109 163.823 79.5297 163.449L89.279 166.48C89.5485 166.812 89.6384 167.269 89.5486 167.684C89.1891 172.666 89.1442 177.649 90.3123 182.548C90.8964 184.998 91.75 187.406 92.9181 189.689C93.0978 190.105 93.4572 190.52 93.2326 191.059Z" fill="#FC9538"/>
<path d="M67.9833 158.384C71.2181 160.086 74.5876 161.581 78.0471 162.868C78.1369 162.909 78.1818 162.951 78.2268 163.034C78.4963 163.491 78.1818 163.864 78.0021 164.238C75.2166 170.383 73.15 176.735 72.3413 183.378C72.0717 185.081 71.9369 186.825 71.9818 188.568C72.0268 189.067 72.1166 189.565 71.7572 190.022C66.905 189.274 62.1877 187.987 57.65 186.202C57.4703 186.119 57.2456 186.119 57.1108 185.953C56.9311 185.579 56.8862 185.122 57.021 184.707C57.9645 178.977 59.0427 173.289 61.6036 167.933C63.0413 164.902 64.6587 161.913 66.8601 159.297C67.1297 158.924 67.534 158.592 67.9833 158.384Z" fill="#FC9538"/>
<path d="M55.9876 185.538C53.7862 184.749 51.6296 183.794 49.563 182.756C47.2267 181.635 44.9804 180.431 42.7789 179.102C42.6891 178.728 42.734 178.313 42.8688 177.981C44.5311 172.667 46.0586 167.269 48.9789 162.37C51.0007 158.882 53.4267 155.561 56.1673 152.488C56.347 152.198 56.7064 151.99 57.0659 151.907C60.2108 154.066 63.5354 155.976 66.8151 157.886C66.8151 158.259 66.6354 158.633 66.3659 158.924C61.8731 164.57 59.1325 170.964 57.605 177.815C57.1108 180.098 56.7514 182.382 56.347 184.666C56.347 184.956 56.392 185.33 55.9876 185.538Z" fill="#FC9538"/>
<path d="M46.5529 143.977L52.6181 148.585C53.7862 149.457 54.9543 150.329 56.0775 151.201C56.2123 151.699 55.763 151.99 55.4935 152.281C50.8659 157.387 47.2717 163.242 44.9355 169.511C43.992 172.044 43.2283 174.618 42.5094 177.192C42.3746 177.649 42.4645 178.23 41.7457 178.396C39.9935 177.524 38.3312 176.486 36.7587 175.365C34.6022 173.954 32.5355 172.5 30.5587 170.923C30.9181 169.096 31.7718 167.394 32.5355 165.691C34.3776 161.622 36.0848 157.512 38.3312 153.609C40.2181 150.329 42.3746 147.215 45.4297 144.683C45.7891 144.433 46.0587 144.06 46.5529 143.977ZM198.902 96.2297C198.543 95.1502 198.228 94.0292 198.048 92.8666C197.015 88.3826 195.488 84.0231 194.23 79.622C194.993 79.7051 195.398 79.0823 195.937 78.7501C197.285 78.0443 198.048 76.6742 197.959 75.2625C197.914 74.3906 198.003 73.4772 197.959 72.6053C197.914 71.941 198.003 71.2767 198.183 70.6539C198.543 69.6989 198.677 68.7025 198.543 67.706C198.363 66.9172 198.857 66.2113 199.576 65.7131C200.969 64.7582 201.867 63.305 202.092 61.7273C202.137 61.3951 202.137 61.0214 202.092 60.6893C201.957 60.1495 202.002 59.6098 202.182 59.1115C202.721 57.7414 204.248 57.3677 205.372 58.4057C206.045 59.0285 206.495 59.9004 206.54 60.7723C206.63 61.6442 206.585 62.5576 206.405 63.4295C206.225 64.3014 206.45 64.509 207.393 64.3014C208.337 64.0938 209.325 64.0938 210.224 64.3014C210.583 64.3845 210.988 64.426 211.347 64.426C212.83 64.509 213.503 64.0108 213.728 62.6407C213.773 62.0179 213.863 61.3951 213.998 60.8138C214.492 59.5267 215.345 59.3191 216.514 60.191C216.873 61.1045 216.469 61.9764 216.334 62.8898C216.064 64.7997 215.615 66.668 214.132 68.2042C215.256 67.2493 215.974 65.9622 216.154 64.5506C216.469 63.0559 216.603 61.5612 217.053 60.1495C217.367 59.9834 217.727 59.8174 218.041 59.6513C219.344 58.9455 220.602 59.9834 220.377 61.146C220.198 62.5992 220.198 64.0938 220.377 65.547C220.422 66.2528 220.377 66.9172 220.377 67.623C220.332 68.4534 219.928 69.2007 219.209 69.6989C217.951 70.6539 216.514 71.4012 214.986 71.941C213.009 72.7298 211.032 73.3526 208.966 73.8924C207.259 74.2661 205.911 75.4701 205.461 77.0478C204.832 78.9577 204.428 80.8676 203.979 82.7775C203.215 86.016 202.272 89.213 201.193 92.3684C200.744 93.8216 199.98 95.1087 198.902 96.2297ZM90.492 166.771C93.3673 167.477 96.2427 168.058 99.2079 168.432C101.05 168.639 102.937 168.722 104.824 168.888C105.138 169.303 105.318 169.802 105.318 170.3C105.992 176.237 107.969 181.676 111.833 186.492C112.102 186.742 112.237 187.074 112.237 187.447C108.912 188.693 105.498 189.606 101.948 190.188C99.5224 190.644 97.0963 190.935 94.6702 191.06C93.9514 190.727 93.7268 190.105 93.4123 189.523C91.121 184.956 89.9079 179.974 89.863 174.909C89.8181 172.583 89.6384 170.175 90.0876 167.85C90.0876 167.435 90.2224 167.061 90.492 166.771Z" fill="#FC9538"/>
<path d="M20.9442 163.034C21.0341 162.951 21.079 162.826 21.1239 162.743C22.337 158.467 24.4935 154.564 26.8746 150.744C28.7616 147.755 30.963 144.932 33.4341 142.316C34.6471 140.987 35.8601 139.659 36.9833 138.247C37.2529 137.998 37.4326 137.707 37.5674 137.375C40.3978 139.161 43.0036 141.237 45.6543 143.229C44.9804 144.35 43.8572 145.015 43.0036 145.97C39.3196 150.122 36.6688 154.772 34.5123 159.671C33.0746 162.868 31.5471 166.065 30.2891 169.345C30.1543 169.677 30.0645 170.009 29.6601 170.175C26.6051 167.975 23.7297 165.567 20.9442 163.034ZM121.177 165.027C121.537 165.525 121.357 166.148 121.492 166.688C122.346 170.217 124.277 173.165 126.793 175.864C127.243 176.362 127.692 176.86 128.141 177.358C124.277 181.967 119.111 184.915 113.36 187.074C112.012 186.243 111.383 184.873 110.619 183.669C107.969 179.476 106.396 174.784 105.947 169.968C105.902 169.594 105.722 169.22 106.082 168.847C106.127 168.847 106.172 168.847 106.217 168.847C111.338 169.22 115.921 167.352 120.593 165.774C120.953 165.691 121.177 165.359 121.177 165.027ZM69.1065 141.652C68.9717 144.101 69.3311 146.551 69.421 149.001C69.421 149.706 69.6456 150.246 70.4992 150.412C67.6688 151.326 64.8833 150.869 62.0978 150.371C58.0543 149.665 55.179 147.298 52.3935 144.724C52.663 144.309 53.2022 144.309 53.6065 144.184C53.9659 144.101 54.3253 143.977 54.6398 143.769C54.9543 143.562 55.0891 143.188 54.9094 142.856C54.7297 142.482 54.3703 142.565 54.0108 142.648C53.4717 142.731 52.9775 142.939 52.4384 143.063C51.9891 143.188 51.5848 143.396 51.1355 143.105L50.9109 142.607C52.1239 141.278 53.8761 141.153 55.5384 140.946C57.1108 140.78 57.4703 140.946 60.4355 142.316C58.8181 140.697 56.7963 140.406 54.55 140.655C53.1123 140.821 51.8094 141.361 50.5065 141.818C50.2819 141.444 50.1022 141.029 50.0123 140.572C49.9224 140.24 49.608 139.991 49.2036 139.991C49.2935 139.368 49.8326 139.576 50.192 139.534C50.7311 139.493 51.2703 139.534 51.8094 139.451C52.2137 139.368 52.5732 139.244 52.5732 138.787C52.5732 138.33 52.1239 138.33 51.7195 138.289C51.1355 138.206 50.5514 138.579 50.0123 138.164C51.0007 136.628 52.5732 136.088 54.3703 136.171C56.2123 136.296 57.9645 137.002 59.3123 138.247C60.0761 138.911 60.8398 139.534 61.6036 140.199C63.805 142.067 66.2311 142.69 69.1065 141.652ZM130.657 81.781C127.063 79.8711 123.783 77.4215 121.043 74.5152C120.728 74.183 120.459 73.8509 120.189 73.5602C120.279 73.4772 120.414 73.3941 120.459 73.3111C120.953 71.4012 122.346 69.9896 123.514 68.4534C124.682 66.9172 124.727 66.0868 123.648 64.5506C123.154 63.8032 122.57 63.0974 122.031 62.35C120.998 60.9799 120.863 59.1115 123.019 57.866C123.738 57.4508 124.502 57.1601 125.311 57.0356C127.557 56.6619 129.804 56.2467 132.095 56.2052L132.23 56.3298C132.14 57.0771 131.556 57.5338 131.017 58.032C128.411 60.3571 126.748 63.2219 125.446 66.2944C125.221 66.8756 125.221 67.4984 125.401 68.0797C124.637 69.0762 123.873 70.0726 123.064 71.0276C122.346 71.8164 121.896 72.8129 121.761 73.8093C121.672 74.1 121.806 74.4321 122.076 74.5567C124.188 76.1344 126.299 77.7537 128.456 79.3729C128.86 79.7051 129.354 79.9542 129.804 80.2033C130.028 80.3279 130.298 80.3694 130.432 80.5354C131.286 81.6565 132.724 82.0717 133.847 82.902C134.251 83.1512 134.521 83.6079 134.431 84.0646L130.882 81.8641C130.792 81.8225 130.837 81.6565 130.657 81.781Z" fill="#FC9538"/>
<path d="M224.466 107.025C224.646 118.692 221.096 129.362 214.537 139.202C214.357 139.451 214.177 139.7 213.953 139.949C213.818 140.115 213.593 140.157 213.369 140.032C213.189 139.949 213.099 139.742 213.144 139.534C213.279 139.077 213.504 138.662 213.818 138.289C216.424 134.303 218.535 130.109 220.198 125.75C222.489 119.231 223.567 112.422 223.343 105.571C223.253 101.793 222.893 98.015 222.264 94.2782C222.04 92.9081 221.635 91.538 221.096 90.2509C220.782 89.462 220.512 88.6316 220.198 87.8428C220.063 87.5521 219.973 87.22 220.377 87.0539C220.782 86.8878 221.006 87.1785 221.096 87.5106C221.86 89.5866 222.893 91.5795 223.253 93.78C224.017 98.1395 224.421 102.582 224.466 107.025ZM59.2225 88.3825C59.7167 79.0407 62.0529 69.865 66.1413 61.3535C67.6689 57.9905 69.6906 54.8765 72.1616 52.0532C72.3413 51.8456 72.521 51.638 72.7457 51.4304C72.8804 51.2644 73.1949 51.2228 73.3746 51.3474C73.3746 51.3474 73.4196 51.3474 73.4196 51.3889C73.6442 51.555 73.6891 51.8041 73.5094 52.0117C73.4196 52.1778 73.2848 52.3439 73.15 52.5099C69.3761 56.7449 66.95 61.6442 64.9732 66.751C62.8167 72.3146 61.379 78.0858 60.6602 83.9815C60.166 88.1749 59.8964 92.3684 60.5703 96.5618C60.6602 97.0185 60.75 97.4752 60.8399 97.9319C60.8848 98.1395 60.75 98.3056 60.5703 98.3886C60.3457 98.4717 60.0761 98.3886 59.9863 98.1811V98.1395C59.8515 97.8074 59.7616 97.4752 59.6718 97.1431C59.1776 94.2367 59.0428 91.2889 59.2225 88.3825ZM149.212 16.845C159.276 17.1771 169.025 18.8379 178.19 22.9068C178.595 23.0728 178.999 23.2804 179.404 23.488C179.628 23.6126 179.763 23.8617 179.628 24.0693C179.493 24.2769 179.224 24.3599 178.999 24.2769C178.775 24.2354 178.505 24.1523 178.28 24.0278C171.002 20.7062 163.23 19.0455 155.233 18.1736C148.224 17.4262 141.305 18.1321 134.431 19.5437C132.904 19.9174 131.376 20.4156 129.938 20.9969C129.714 21.0799 129.489 21.2045 129.264 21.246C129.085 21.2875 128.905 21.2045 128.815 21.0799C128.68 20.9138 128.725 20.7062 128.86 20.5402C129.22 20.2495 129.579 20.0419 130.028 19.9174C132.589 18.8794 135.285 18.1736 138.07 17.7999C141.799 17.3017 145.483 16.8034 149.212 16.845Z" fill="#010101"/>
<path d="M29.6602 170.175C31.7268 164.778 34.108 159.463 36.8036 154.315C38.7804 150.412 41.4761 146.883 44.7558 143.894C44.9804 143.603 45.2949 143.396 45.6543 143.271C45.9688 143.479 46.2833 143.728 46.508 144.018C42.0601 147.921 38.9152 152.613 36.5341 157.761C34.6022 161.913 32.5804 166.024 30.9631 170.258C30.8732 170.508 30.7384 170.757 30.5138 170.964L29.6602 170.175ZM41.7906 178.396C42.4196 176.362 43.1384 174.327 43.6775 172.293C45.0703 167.311 47.4964 162.743 50.3717 158.384C52.034 155.851 53.9659 153.443 56.0775 151.201C56.4819 151.367 56.8413 151.616 57.1108 151.907C52.8427 156.474 49.4282 161.622 46.9123 167.228C45.3398 170.674 44.3964 174.369 43.2283 177.898C43.1833 178.313 43.0036 178.728 42.779 179.102C42.4196 178.894 42.0601 178.687 41.7906 178.396ZM55.9877 185.538C56.8413 178.687 58.3239 172.002 61.6036 165.733C62.9963 162.91 64.7485 160.294 66.8601 157.886C67.2645 158.01 67.6239 158.176 67.9384 158.426C67.8485 158.592 67.7587 158.758 67.6239 158.924C63.0413 164.363 60.3456 170.549 58.7732 177.234C58.1442 179.891 57.65 182.59 57.2456 185.33C57.2007 185.538 57.1558 185.787 57.0659 185.994C56.7065 185.911 56.3021 185.787 55.9877 185.538Z" fill="#010000"/>
<path d="M71.7571 190.063C71.4875 189.689 71.5774 189.233 71.5774 188.817C71.7571 182.465 72.9701 176.154 75.2165 170.134C76.0701 167.726 77.0585 165.359 78.1817 163.034C78.631 163.076 79.0803 163.2 79.4397 163.449C76.9687 168.432 75.1266 173.663 74.0034 179.06C73.2397 182.714 72.8353 186.409 72.7904 190.105L71.7571 190.063ZM90.4918 166.771C90.2223 169.386 90.1324 172.002 90.1773 174.618C90.2672 179.06 91.2107 183.42 92.873 187.613C93.4121 188.776 93.9962 189.938 94.6701 191.06L93.8165 191.184C93.5918 191.267 93.3672 191.226 93.1875 191.101C91.3454 187.863 90.0875 184.333 89.4585 180.721C88.7397 176.362 88.6049 171.961 89.0991 167.56C89.144 167.228 89.144 166.854 89.1889 166.522C89.6382 166.48 90.0875 166.563 90.4918 166.771Z" fill="#010101"/>
<path d="M234.529 95.939C234.574 97.1015 234.484 98.3056 234.35 99.4681C234.305 99.6757 234.26 99.9248 234.215 100.132C234.17 100.299 233.99 100.382 233.811 100.382C233.586 100.423 233.406 100.299 233.316 100.091C233.271 99.7173 233.227 99.3436 233.271 98.9284C233.766 91.9532 232.732 84.9364 230.171 78.3349C229.812 77.3799 229.363 76.4665 228.958 75.5531C228.869 75.387 228.779 75.2209 228.689 75.0133C228.599 74.8057 228.689 74.5982 228.869 74.5151C229.048 74.4321 229.273 74.4321 229.453 74.5982C229.767 74.8888 229.992 75.2625 230.127 75.6776C231.609 78.8331 232.732 82.1131 233.406 85.4762C234.215 88.9638 234.574 92.4514 234.529 95.939Z" fill="#030303"/>
<path d="M106.037 168.888C106.306 170.507 106.576 172.168 106.89 173.787C107.834 178.313 109.856 182.59 112.821 186.285C113.045 186.492 113.225 186.783 113.315 187.074L112.237 187.447C109.272 184.084 107.16 180.181 106.037 175.988C105.408 173.663 104.959 171.296 104.779 168.93L106.037 168.888Z" fill="#020101"/>
<path d="M143.911 10.1192C143.866 10.3268 143.641 10.4929 143.372 10.4929C142.967 10.5344 142.518 10.5759 142.114 10.5759C137.351 10.7835 132.634 11.5308 128.096 12.7764C126.03 13.3162 124.188 14.2711 122.256 15.1015C121.896 15.2676 121.402 15.7243 121.043 15.2261C120.683 14.6033 121.402 14.4787 121.806 14.3126C125.76 12.2782 129.983 11.1157 134.431 10.3683C137.127 9.95312 139.822 9.704 142.518 9.4964C142.877 9.45489 143.282 9.4964 143.641 9.62096C143.866 9.704 143.956 9.9116 143.911 10.1192ZM166.599 29.4671C172.08 29.6332 177.247 30.7542 182.009 33.2869C182.459 33.536 182.908 33.8266 183.357 34.1173C183.582 34.2418 183.672 34.491 183.537 34.6986C183.537 34.6986 183.537 34.7401 183.492 34.7401C183.357 34.9477 183.043 35.0307 182.818 34.9061C182.504 34.7816 182.234 34.6155 181.919 34.491C177.831 32.2489 173.204 30.9203 168.441 30.5882C167.633 30.5051 166.869 30.5051 166.06 30.4221C165.701 30.3806 165.251 30.4221 165.251 29.9238C165.296 29.5087 165.656 29.5087 166.015 29.5087C166.24 29.4256 166.419 29.4671 166.599 29.4671Z" fill="#030303"/>
<path d="M71.8921 62.8898C71.8921 62.267 72.0269 61.6858 72.2515 61.1045C73.5993 57.1602 76.0703 53.8386 79.1254 50.8908C79.2602 50.7662 79.395 50.6832 79.5298 50.6001C79.7095 50.4756 79.9341 50.4756 80.1138 50.6001C80.3385 50.7247 80.3834 50.9738 80.2935 51.1814C80.2935 51.1814 80.2935 51.2229 80.2486 51.2229C80.024 51.5136 79.7993 51.7627 79.5298 52.0118C77.0138 54.5445 74.8573 57.2432 73.5993 60.5232C73.2848 61.2291 73.0602 61.9764 72.9254 62.7237C72.8805 63.0559 72.8356 63.3881 72.3863 63.3881C72.1167 63.3881 71.937 63.222 71.8921 63.0144C71.8921 62.9729 71.8921 62.9313 71.8921 62.8898Z" fill="#050505"/>
<path d="M215.3 108.976C215.3 110.429 215.166 111.841 214.941 113.253C214.941 113.336 214.941 113.419 214.896 113.502C214.761 113.834 214.806 114.374 214.222 114.291C213.683 114.166 213.773 113.709 213.818 113.336C213.953 112.381 214.043 111.426 214.177 110.471C214.582 107.149 213.683 103.952 212.919 100.755C212.874 100.465 212.785 100.174 212.74 99.8419C212.695 99.5928 212.874 99.3852 213.099 99.3436C213.369 99.3021 213.593 99.4682 213.638 99.7173C213.818 100.257 213.908 100.755 214.042 101.295C214.671 103.828 215.435 106.36 215.3 108.976Z" fill="#040404"/>
<path d="M67.1296 90.4585C67.1745 86.9709 67.9832 83.5663 69.4658 80.3693C69.6456 79.9956 69.7803 79.4144 70.3644 79.622C70.9485 79.8295 70.634 80.4108 70.4542 80.826C69.376 83.2341 68.6571 85.7668 68.2977 88.3825C68.1629 89.5866 68.118 90.8321 68.1629 92.0777C68.1629 92.4514 68.3427 92.9496 67.7137 92.9496C67.0847 92.9496 67.1745 92.4514 67.1745 92.0777C67.1296 91.538 67.1296 90.9982 67.1296 90.4585ZM53.247 91.0813C53.5615 91.0813 53.7412 91.2058 53.7862 91.4134C53.8311 91.704 53.876 92.0362 53.876 92.3268C53.876 95.856 54.5949 99.3851 55.9427 102.707C55.9876 102.79 56.0325 102.914 56.0775 103.039C56.1224 103.288 56.0775 103.495 55.8079 103.62C55.5833 103.703 55.3586 103.62 55.2688 103.454C55.0891 103.205 54.9543 102.914 54.8195 102.624C53.4717 99.2605 52.7978 95.7314 52.8427 92.1192C52.8427 91.8701 52.8876 91.6625 52.9325 91.4549C52.9325 91.2473 53.0673 91.1228 53.247 91.0813Z" fill="#050505"/>
<path d="M50.5065 141.818C50.5514 141.652 50.6862 141.486 50.8659 141.403C52.7978 140.614 54.8195 140.074 56.9311 140.323C58.1891 140.448 59.3572 140.946 60.3456 141.693C60.6152 141.901 60.8398 142.108 61.0195 142.399C61.1992 142.565 61.1992 142.856 60.9746 143.022C60.7499 143.188 60.4804 143.188 60.3007 142.98L60.2557 142.939C57.605 140.448 54.6847 141.07 51.6746 142.233C51.405 142.357 51.1355 142.482 50.9108 142.648C50.776 142.316 50.6413 142.067 50.5065 141.818Z" fill="#050302"/>
<path d="M166.914 53.1328C166.734 53.2574 166.599 53.3404 166.419 53.465C166.105 53.5895 165.745 53.6725 165.521 53.3404C165.296 53.0082 165.745 52.8837 165.79 52.6346C167.857 51.4305 169.924 50.1849 172.035 48.9809C172.619 48.6487 173.293 48.3581 173.877 48.0259C174.102 47.8599 174.416 47.9014 174.596 48.109L174.641 48.1505C174.866 48.4826 174.641 48.6487 174.372 48.8148C174.102 48.9809 173.698 49.147 173.383 49.3546C171.227 50.6832 169.07 51.8872 166.914 53.1328Z" fill="#060606"/>
<path d="M51.1355 143.063C52.034 142.814 52.9326 142.565 53.876 142.316C54.8195 142.067 55.1789 142.233 55.3586 142.731C55.5384 143.312 55.2239 143.935 54.6398 144.184C53.921 144.558 53.1123 144.516 52.3485 144.724C51.6746 144.89 50.9557 144.849 50.2818 144.683C49.7427 144.516 49.6528 144.184 50.0572 143.811C50.3717 143.562 50.7311 143.312 51.1355 143.063Z" fill="#040303"/>
<path d="M149.167 49.1469C148.718 49.5621 148.269 49.8112 147.685 49.3545C149.347 47.2785 150.74 45.0365 152.222 42.8775C152.447 42.5038 152.627 41.8395 153.256 42.1301C153.974 42.4623 153.39 43.002 153.121 43.4172C151.773 45.3686 150.47 47.2785 149.167 49.1469Z" fill="#070606"/>
<path d="M208.516 130.525C208.472 130.649 208.427 130.815 208.382 130.94C207.618 133.016 206.719 135.05 205.686 137.002C205.461 137.375 205.282 137.998 204.653 137.707C204.024 137.417 204.518 136.96 204.698 136.586C205.731 134.718 206.495 132.808 207.303 130.857C207.393 130.649 207.483 130.442 207.573 130.192C207.663 129.943 207.843 129.777 208.157 129.819C208.561 129.943 208.516 130.234 208.516 130.525Z" fill="#070707"/>
<path d="M50.0572 138.164C50.776 138.039 51.5398 137.956 52.2586 137.956C52.663 137.998 52.9775 138.081 53.1122 138.496C53.2021 138.828 53.1122 139.202 52.7977 139.451C52.4383 139.7 51.989 139.825 51.5398 139.866C50.776 139.991 49.9673 139.7 49.2035 139.991C48.9789 140.032 48.7093 140.032 48.4847 139.991C48.1702 139.908 47.7659 139.908 47.7659 139.493C47.7659 139.16 47.9905 138.911 48.3499 138.828C48.8891 138.538 49.4731 138.372 50.0572 138.164Z" fill="#040302"/>
<path d="M217.008 60.1495C217.322 60.8554 216.963 61.5197 216.873 62.184C216.783 63.0144 216.559 63.8447 216.424 64.6751C216.199 65.8377 215.66 66.9587 214.896 67.9136C214.716 68.1212 214.537 68.3288 214.312 68.5364C214.043 68.7855 213.683 69.0762 213.369 68.7855C213.054 68.4949 213.503 68.2043 213.728 67.9967C214.806 66.9587 215.48 65.6301 215.705 64.2184C215.93 62.8898 216.199 61.5612 216.469 60.2326L217.008 60.1495Z" fill="#090603"/>
<path d="M78.1818 32.3732C78.1818 33.8678 78.3166 35.3625 78.631 36.8572C78.7658 38.0198 79.5296 39.0577 80.6977 39.5975C81.0571 39.7636 81.6861 39.9296 81.4166 40.3864C81.147 40.8431 80.6977 40.3864 80.3383 40.2203C79.0354 39.639 78.0919 38.518 77.9122 37.1894C77.5528 35.7362 77.418 34.2 77.4629 32.7053C77.4629 32.4562 77.4629 32.2486 77.6876 32.0825L78.1818 32.3732Z" fill="#070503"/>
<path d="M168.711 54.4614C167.677 55.0012 167.677 55.0012 166.958 54.3784C167.048 54.0462 167.453 54.0462 167.677 53.7971C169.16 53.2159 170.553 52.5931 171.945 51.8873C172.17 51.7627 172.395 51.6797 172.619 51.5551C172.844 51.4305 173.203 51.389 173.383 51.6381C173.563 51.8873 173.383 52.1779 173.158 52.3024C172.799 52.51 172.44 52.7176 172.08 52.8837C170.957 53.465 169.834 53.9632 168.711 54.4614Z" fill="#090808"/>
<path d="M151.504 49.313C151.234 49.5206 150.964 49.6451 150.65 49.7281C150.291 49.7697 149.976 49.7281 149.931 49.313C151.009 48.275 152.133 47.237 153.211 46.199C153.48 45.9499 153.795 45.7423 154.109 45.5347C154.289 45.4102 154.514 45.4102 154.693 45.5762C154.873 45.7008 154.873 45.9499 154.783 46.116C154.604 46.3236 154.424 46.5312 154.244 46.7388C153.525 47.4446 152.762 48.1919 151.998 48.8978C151.863 49.0638 151.728 49.2299 151.504 49.313Z" fill="#0B0A0A"/>
<path d="M154.424 49.2299C153.93 49.562 153.346 49.8112 152.717 49.8942C152.177 49.9357 152.402 49.6036 152.402 49.3545C152.357 49.2299 152.357 49.1884 152.537 49.1469C153.75 48.5241 154.873 47.8182 155.996 47.0709C156.131 46.9879 156.266 46.8633 156.401 46.7803C156.76 46.5727 157.119 46.199 157.479 46.6557C157.838 47.1124 157.344 47.3615 157.03 47.5691C156.131 48.1504 155.277 48.6901 154.424 49.2299Z" fill="#090909"/>
<path d="M80.9225 32.6223C80.8775 33.4112 80.9674 34.2416 81.1471 35.0304C81.3268 36.193 82.0906 37.1894 83.1688 37.8122C83.3036 37.8953 83.4384 37.9783 83.5732 38.0613C83.708 38.1444 83.7529 38.352 83.663 38.4765C83.5732 38.6011 83.3935 38.6841 83.2587 38.6426C82.8543 38.5181 82.4949 38.352 82.1804 38.1029C81.0572 37.231 80.3384 35.9854 80.2036 34.6152C80.1138 33.9925 80.1587 33.3282 80.1138 32.6638C80.3833 32.5393 80.6529 32.5393 80.9225 32.6223Z" fill="#0A0603"/>
<path d="M170.283 56.3713C169.879 56.3297 169.34 56.828 169.07 56.2882C168.756 55.6239 169.654 55.7485 169.924 55.4163L172.305 54.752C172.529 54.669 172.799 54.6275 173.024 54.5859C173.338 54.5029 173.653 54.5859 173.743 54.8766C173.832 55.1672 173.608 55.2918 173.383 55.4163C173.114 55.5409 172.844 55.6239 172.574 55.707L170.283 56.3713Z" fill="#0C0B0B"/>
<path d="M221.995 78.2934C221.995 78.4595 221.905 78.6256 221.77 78.7501C221.59 78.8747 221.366 78.8332 221.231 78.6671C220.602 77.7952 220.018 76.8402 219.524 75.8438C219.434 75.6362 219.524 75.3456 219.748 75.221C219.973 75.0964 220.243 75.1795 220.377 75.3871V75.4286C220.916 76.3005 221.456 77.1724 221.95 78.0443C221.95 78.0858 221.995 78.1689 221.995 78.2934Z" fill="#101010"/>
<path d="M152.537 49.147C152.492 49.23 152.447 49.2715 152.402 49.3545L151.458 49.313C151.503 49.1054 151.683 48.8978 151.908 48.8563C152.043 49.0639 152.312 49.1054 152.537 49.147Z" fill="#E3CFBC"/>
<path d="M93.2324 191.06L93.8614 191.143C93.5918 191.35 93.4121 191.267 93.2324 191.06Z" fill="#E2934B"/>
<path d="M140.946 190.146C141.08 190.146 141.17 190.271 141.125 190.395C140.99 190.354 140.901 190.271 140.946 190.146Z" fill="white"/>
<path d="M146.741 198.99C147.685 199.239 148.718 199.197 149.662 198.907C152.896 198.159 156.041 197.204 159.096 196C159.456 195.834 159.86 195.751 160.264 195.585C159.635 196.914 159.186 198.242 158.917 199.654C158.872 199.862 158.827 200.111 158.782 200.318C158.782 200.983 159.051 201.19 159.68 200.9C160.714 200.401 161.792 199.986 162.87 199.612C167.138 198.035 171.182 198.408 175.09 200.609C175.315 200.692 175.495 200.858 175.63 201.066C175.36 201.273 175.046 201.356 174.731 201.356C173.922 201.439 173.743 201.896 173.922 202.56C173.877 202.685 173.788 202.768 173.698 202.809C172.709 202.975 171.811 202.602 170.867 202.56C170.238 202.477 169.609 202.519 169.025 202.726C171.811 202.726 174.372 203.806 177.067 204.263C177.606 204.263 178.146 204.47 178.55 204.761C178.685 205.259 178.37 205.674 178.28 206.172C177.786 206.339 177.382 206.048 176.977 205.923C176.393 205.716 175.809 205.591 175.18 205.591C175.001 205.591 174.731 205.591 174.686 205.84C174.641 206.089 174.821 206.172 175.001 206.297C175.495 206.546 176.079 206.712 176.618 206.837C176.933 206.92 177.472 206.795 177.472 207.377C174.911 208.498 172.17 208.664 169.385 208.539C167.767 208.456 166.15 208.248 164.533 208.165C163.499 208.124 162.466 208.124 161.388 208.165C157.12 208.29 153.121 207.252 149.257 205.716C148.988 205.591 148.718 205.467 148.493 205.342C146.382 204.18 145.888 203.142 146.337 200.9C146.472 200.194 146.606 199.571 146.741 198.99Z" fill="#FC9538"/>
<path d="M178.505 204.719C177.157 204.678 175.854 204.429 174.596 204.055C172.844 203.474 170.957 203.183 169.07 203.183C168.89 203.183 168.756 203.183 168.576 203.183C168.351 203.183 168.172 203.017 168.172 202.809C168.172 202.602 168.261 202.436 168.486 202.353C168.801 202.228 169.115 202.187 169.475 202.228C170.912 202.228 172.395 202.394 173.788 202.685C174.147 202.643 174.551 202.726 174.866 202.893L175.18 203.017C175.405 203.1 175.63 203.142 175.854 203.183C176.663 203.515 177.606 203.349 178.28 203.93C178.505 204.138 178.595 204.429 178.505 204.719Z" fill="#060402"/>
<path d="M173.788 202.436C173.069 201.605 173.114 201.398 174.192 201.19C174.686 201.107 175.18 201.107 175.674 201.066C176.303 201.356 177.022 201.356 177.696 201.522C178.415 201.647 179.134 201.938 179.718 202.394C179.943 202.56 180.122 202.726 179.988 202.976C179.898 203.225 179.583 203.349 179.314 203.266H179.269C178.999 203.183 178.685 203.1 178.415 203.059C177.741 203.183 177.022 203.266 176.348 203.225C176.169 203.225 175.989 203.183 175.764 203.183C175.45 203.183 175.135 203.142 174.866 203.059C174.551 202.768 174.012 202.851 173.788 202.436Z" fill="#090705"/>
<path d="M177.427 207.252C176.887 207.127 176.303 207.003 175.764 206.837C175.45 206.754 175.135 206.671 174.821 206.546C174.372 206.339 173.922 206.006 174.057 205.508C174.192 205.01 174.776 205.176 175.225 205.176C176.348 205.218 177.292 205.674 178.235 206.131C178.64 206.588 179.448 206.712 179.493 207.501C178.774 207.626 178.145 207.21 177.427 207.252Z" fill="#050403"/>
<path d="M176.348 202.934C177.067 202.934 177.786 202.809 178.46 203.059C177.831 203.266 178.325 203.64 178.28 203.93C177.337 203.889 176.438 203.681 175.585 203.349C175.405 203.266 175.18 203.308 175.045 203.142C175.001 203.1 174.911 203.1 174.866 203.1C174.776 203.1 174.731 203.059 174.776 203.017C174.821 202.975 174.821 202.934 174.821 202.934H175.809C175.944 203.059 176.169 203.017 176.348 202.934Z" fill="#DA8F4B"/>
<path d="M177.876 83.8985C178.28 83.8569 178.73 83.94 179.089 84.1476C182.054 85.3516 185.02 86.6387 187.67 88.4241C188.03 88.6732 188.479 89.0884 188.838 88.6317C189.198 88.1749 188.659 87.8843 188.299 87.6352C186.592 86.4727 184.795 85.4762 182.908 84.6873C182.504 84.5628 182.144 84.3552 181.83 84.0645L189.602 82.4868C189.782 82.4453 190.006 82.4453 190.276 82.4038C190.905 84.6873 191.579 86.9709 192.208 89.2544C193.196 92.7421 193.96 96.2297 195.083 99.6758C195.263 100.049 195.263 100.465 195.083 100.797C193.151 104.118 191.219 107.481 187.446 109.474C186.098 110.139 184.66 110.72 183.177 111.177C179.314 112.381 175.405 113.502 171.586 114.872C169.789 115.495 169.115 115.287 167.992 113.834C167.588 113.336 167.273 112.796 166.914 112.256C166.734 112.007 166.509 111.841 166.195 112.007C165.88 112.173 165.925 112.464 166.105 112.713C166.779 113.834 167.453 114.955 168.621 115.702C168.98 115.91 169.16 116.242 169.16 116.616C169.385 119.19 169.609 121.764 169.834 124.338C170.373 130.234 170.867 136.13 171.406 141.984C171.451 142.482 171.496 142.98 171.631 143.479C171.721 144.018 171.586 144.226 170.957 144.309C164.802 145.181 158.557 145.638 152.357 145.638C151.414 145.638 150.425 145.596 149.482 145.513C148.314 145.471 147.146 145.139 146.157 144.641C140.631 141.569 135.06 138.621 129.714 135.258C126.344 133.182 123.244 130.691 120.549 127.909C118.841 126.165 117.673 124.131 116.595 122.055C115.741 120.394 115.517 118.484 116.056 116.74C116.954 113.46 117.449 110.056 117.583 106.651C117.628 104.866 117.583 103.08 116.999 101.378C116.775 100.631 116.37 99.9664 115.876 99.3436C114.214 97.2676 112.237 95.5238 109.586 94.4859C104.465 92.4514 100.601 89.0468 97.5457 84.8119C95.6587 82.1962 93.5471 79.7465 91.9747 76.9648C91.795 76.6326 91.6153 76.3005 91.3906 75.8853C91.75 75.6777 92.1544 75.5531 92.5587 75.5116C98.9384 74.0169 104.869 71.1936 109.901 67.2493C110.35 66.9171 110.844 66.585 111.294 66.2528C111.743 65.9207 112.372 65.547 112.911 65.2563C113.18 65.2563 113.27 65.4224 113.315 65.547C115.022 68.5779 117.269 71.2766 119.425 74.0169C121.807 77.0893 124.996 79.3314 128.321 81.4488C130.388 82.7774 132.589 83.8985 134.521 85.3516C136.453 86.6803 137.98 88.4241 139.014 90.417C139.283 90.9567 139.373 91.621 139.193 92.2023C139.014 92.9912 138.699 93.7385 138.295 94.4859C136.588 97.4752 134.207 100.091 131.376 102.208C131.017 102.458 130.163 102.707 130.702 103.329C131.151 103.828 131.601 103.205 131.96 102.956C134.251 101.337 136.273 99.3851 137.891 97.1846L138.52 96.3542C139.373 96.8525 140.182 97.3092 140.946 97.7659C142.383 98.6378 143.776 99.5512 145.438 100.091C145.708 100.174 145.933 100.382 145.978 100.672C146.157 101.337 146.427 102.001 146.741 102.624C147.28 103.579 147.056 104.326 146.517 105.198C143.192 110.72 140.676 116.533 138.16 122.387C136.633 125.916 137.621 129.237 139.238 132.434C139.688 133.306 140.227 133.389 141.035 132.808C141.844 132.227 142.653 131.563 143.417 130.94C144.046 130.317 144.764 129.777 145.483 129.279C146.831 128.49 147.325 127.328 147.37 125.916C147.55 119.397 148.673 112.92 149.302 106.443C149.302 105.571 149.751 104.741 150.47 104.16C151.279 103.537 151.773 102.665 152.312 101.835C152.492 101.42 152.986 101.17 153.48 101.212C158.827 101.586 163.454 99.7173 167.947 97.3507C168.441 97.1431 168.801 96.6864 168.846 96.1466C169.07 95.3578 168.935 94.5274 168.98 93.7385C168.935 93.4064 169.16 93.0742 169.52 92.9497C171.631 92.2438 173.563 91.1228 175.18 89.7112C175.899 89.8772 176.034 90.5 176.259 91.0398C177.337 93.2403 178.146 95.5654 178.64 97.932C178.64 98.3056 178.864 98.6793 179.224 98.8869C178.999 97.2261 178.55 95.5654 177.966 93.9461C177.472 92.659 176.888 91.3719 176.259 90.1263C176.079 89.7527 175.72 89.4205 175.989 88.9638C175.989 88.5071 176.259 88.0504 176.708 87.8013C177.562 87.9674 177.831 88.7562 178.37 89.2544C178.73 89.6281 178.954 90.0848 179.493 90.3339C179.134 89.5036 178.55 88.7147 177.876 88.0504C177.472 87.6352 176.888 87.303 177.067 86.5972L177.696 85.9329C178.909 86.0159 179.538 86.8878 180.392 87.4691C180.976 87.8843 181.38 88.5071 182.144 88.7147C181.335 87.5106 180.122 86.6387 178.954 85.8084C178.595 85.5592 178.011 85.4347 178.011 84.8119L177.876 83.8985Z" fill="white"/>
<path d="M162.6 68.1211C164.667 68.1211 166.509 68.7439 168.396 69.3667C171.047 70.2386 171.99 72.3146 172.979 74.3905C173.293 75.0133 173.203 75.7192 172.754 76.2589C172.44 76.5911 172.529 76.9647 172.574 77.3384C172.664 78.9576 172.799 80.6184 172.35 82.1961C171.631 84.9364 170.058 86.9709 166.869 87.5936C166.554 87.6352 166.285 87.6767 166.24 88.0504C166.195 88.424 166.15 88.8807 165.611 88.8807C165.071 88.8807 165.206 88.2995 164.937 87.9673L162.331 90.4585C161.612 91.2473 160.489 91.621 159.411 91.4134C158.512 91.2473 157.569 91.2889 156.715 90.9567C155.727 90.583 155.547 90.2509 156.041 89.379C156.76 87.9673 156.895 86.3481 156.356 84.8534C156.221 84.4382 156.041 84.1891 155.502 84.1476C153.57 84.106 151.953 83.2756 150.56 82.1546C150.066 81.7394 149.661 81.6979 149.167 82.1131C148.493 82.6529 147.729 83.1926 147.011 83.7324C146.696 83.94 146.561 84.3136 146.786 84.6458C147.819 86.7217 148.943 88.7562 150.605 90.4585C152.402 92.2438 154.828 92.7005 157.389 92.6175C157.883 92.5759 158.377 92.4929 158.871 92.3684C159.231 92.2853 159.59 92.2438 159.725 92.6175C159.905 93.0742 159.5 93.2403 159.141 93.3233C157.928 93.6554 156.67 93.7385 155.412 93.5724C152.447 93.2818 149.796 91.704 148.314 89.3375C147.37 87.9673 146.516 86.5141 145.798 85.0195C145.348 85.2686 144.944 85.6007 144.674 86.0159C144.45 86.265 144.27 86.5141 144.045 86.7633C143.911 86.9709 143.596 87.0539 143.372 86.9293C143.057 86.7633 143.102 86.4726 143.237 86.2235C143.596 85.5592 144.09 84.9779 144.674 84.4797C145.124 84.1891 145.258 83.6078 144.944 83.1511C144.045 81.4073 143.057 79.705 142.024 78.0027C141.709 77.5045 141.395 77.5045 140.9 77.6706C138.789 78.2933 136.767 79.1237 134.835 80.1202C134.611 80.2447 134.386 80.3693 134.161 80.4523C133.847 80.6184 133.443 80.8675 133.173 80.4523C132.903 80.0371 133.353 79.8296 133.622 79.622C134.431 79.1237 135.24 78.667 136.138 78.3349C137.666 77.6706 139.238 77.1723 140.9 76.5911C140.137 75.6361 139.328 74.9303 138.025 74.9303C137.711 74.9303 137.351 74.8888 137.037 74.8888C136.587 74.8472 135.958 75.0548 136.003 74.3905C136.048 73.7262 136.677 73.9753 137.127 73.9753C137.89 73.9753 138.654 73.9753 139.373 73.9753C141.125 73.9338 142.877 74.0584 144.629 73.7262C146.292 73.3941 147.864 72.8128 149.347 71.9824C148.403 71.6503 147.46 71.4427 146.427 71.4012C145.663 71.3181 144.944 71.3181 144.18 71.2351C143.911 71.2351 143.686 71.1105 143.641 70.8614C143.596 70.6123 143.866 70.4877 144.09 70.4047C144.719 70.2386 145.348 70.2386 145.977 70.3217C147.28 70.4047 148.538 70.6538 149.796 70.986C150.425 71.1936 151.144 71.1105 151.638 70.6953C153.435 69.4498 155.502 68.6194 157.703 68.2457C158.198 68.1211 158.692 68.0796 159.186 68.1211C160.309 67.9551 161.477 67.9551 162.6 68.1211Z" fill="black"/>
<path d="M125.401 68.1212C124.772 67.7475 124.772 67.2493 124.996 66.6265C126.344 63.1804 128.231 60.0665 131.106 57.4923C131.511 57.1601 131.825 56.7449 132.185 56.3713C132.634 56.3297 132.948 56.5373 133.443 56.828C130.163 59.4437 127.647 62.7237 126.03 66.4189C126.164 66.6265 126.299 66.6265 126.389 66.585C129.848 65.1733 133.443 65.1733 137.082 65.7131C137.98 65.8376 138.924 65.9207 139.822 66.0867C140.451 66.2113 141.08 66.0867 141.575 65.6716C142.159 65.2148 142.698 64.7581 143.237 64.2599C143.956 63.5541 144.899 63.0558 145.888 62.7652C147.819 62.1424 149.976 63.0558 150.695 64.8412C151.459 66.4604 151.189 66.9586 149.347 67.3738C147.325 67.789 145.259 67.8306 143.237 67.5399C141.395 67.2908 139.508 67.0417 137.666 66.7511C133.443 66.0867 129.309 66.2113 125.401 68.1212Z" fill="#010000"/>
<path d="M167.542 93.697C167.542 94.0292 167.587 94.4028 167.587 94.735C167.587 96.5203 167.587 96.5203 165.835 97.3507C163.858 98.3057 161.837 99.0945 159.725 99.7173C157.748 100.34 155.727 100.423 153.66 100.423C153.166 100.465 152.761 100.174 152.671 99.7173L151.863 97.2677C151.953 96.6449 152.537 96.7694 152.941 96.7694C154.558 96.6864 156.176 96.3958 157.793 96.3127C161.208 96.1051 164.532 95.1917 167.542 93.697Z" fill="white"/>
<path d="M148.089 96.6034C147.82 97.3507 147.37 98.0565 146.786 98.6793C146.247 99.3021 145.933 99.3851 145.169 99.053C144.315 98.6793 143.462 98.2641 142.653 97.8074C141.575 97.2261 140.586 96.5203 139.508 95.9391C139.014 95.6484 138.744 95.3993 139.149 94.8596C139.688 93.9877 140.047 93.0327 140.227 92.0363C141.17 92.659 142.114 93.2818 143.057 93.9046C144.315 94.735 145.663 95.3993 147.101 95.9391C147.46 96.1051 147.954 96.1882 148.089 96.6034ZM150.65 96.811C150.964 97.8489 151.324 98.8869 151.638 99.9249C151.728 100.216 151.863 100.506 151.638 100.797C150.875 101.793 150.291 102.914 149.302 103.786C148.538 104.492 148.404 104.45 147.954 103.537C147.775 103.163 147.64 102.748 147.46 102.375C146.831 101.17 146.382 100.091 147.864 99.053C148.628 98.5132 148.943 97.5168 149.257 96.6449C149.751 96.6034 150.201 96.6864 150.65 96.811Z" fill="#FEFEFE"/>
<path d="M171.002 66.9171C170.867 68.993 170.508 69.6158 168.351 68.6609C167.722 68.3703 167.049 68.1627 166.33 68.1211C165.88 68.1211 165.566 67.789 165.566 67.3738C165.566 67.2908 165.566 67.2077 165.611 67.1247C165.88 66.0867 166.509 65.1733 167.408 64.5505C168.307 63.8862 169.609 64.0107 170.373 64.8411C170.598 65.0902 170.778 65.4224 170.822 65.7545C170.912 66.2113 170.912 66.6264 171.002 66.9171Z" fill="#020101"/>
<path d="M175.764 89.0884C177.382 91.8286 178.55 94.7765 179.224 97.8489C179.314 98.2226 179.359 98.5963 179.359 99.0115C179.359 99.3021 179.224 99.5512 178.864 99.5512C178.595 99.5512 178.415 99.3851 178.37 99.136C178.28 98.7624 178.235 98.3887 178.146 98.015C177.517 95.1917 176.483 92.4514 175.001 89.8772L173.293 87.3446C173.114 87.0539 172.934 86.7633 173.338 86.5142C173.743 86.2651 173.967 86.5557 174.147 86.8463L175.764 89.0884Z" fill="#040404"/>
<path d="M154.514 53.9632C154.514 54.2123 154.334 54.3784 154.109 54.3784C154.064 54.3784 154.019 54.3784 153.929 54.3784C153.705 54.3369 153.48 54.2123 153.256 54.0877C152.761 53.7556 152.312 53.4234 151.908 53.0498C151.144 52.2194 149.886 51.9703 148.853 52.427C147.819 52.8422 146.786 53.2574 145.753 53.6725C145.573 53.7556 145.393 53.8386 145.214 53.9632C144.899 54.0877 144.54 54.2123 144.36 53.8386C144.18 53.548 144.45 53.2989 144.719 53.1743C146.292 52.3855 147.864 51.5966 149.661 51.2644C150.515 51.0984 151.369 51.306 152.043 51.8042C152.806 52.3439 153.525 52.9252 154.289 53.5065C154.379 53.548 154.514 53.7556 154.514 53.9632Z" fill="#050302"/>
<path d="M177.741 85.0195C179.089 86.016 180.527 86.8464 181.695 87.9674C181.964 88.2165 182.189 88.4656 182.414 88.7562C182.548 88.9223 182.503 89.1299 182.369 89.296C182.234 89.4621 182.009 89.5036 181.83 89.379C181.515 89.1714 181.245 88.9638 180.976 88.7147C179.898 87.7598 178.73 86.8879 177.472 86.099C176.528 85.4762 175.495 84.978 174.417 84.6043C174.102 84.5213 173.832 84.3552 173.922 84.0646C174.012 83.7739 174.372 83.6494 174.731 83.7324C175.585 83.94 176.303 84.3967 177.112 84.7289C177.337 84.7704 177.517 84.8949 177.741 85.0195Z" fill="#060505"/>
<path d="M165.341 55.79C166.285 55.7484 167.183 56.2052 167.632 56.9525C167.902 57.3262 168.306 57.6583 168.756 57.8659C169.07 58.032 169.34 58.2396 169.115 58.6133C168.89 58.9869 168.531 58.8624 168.216 58.7378C167.677 58.5718 167.183 58.1981 166.869 57.7414C166.329 56.8279 165.476 56.7034 164.532 56.8279C163.948 56.9525 163.409 57.0771 162.87 57.2847C162.511 57.4092 162.106 57.5753 161.927 57.1186C161.792 56.7449 162.151 56.5788 162.466 56.4543C163.319 56.0391 164.308 55.8315 165.341 55.79Z" fill="#080503"/>
<path d="M176.842 86.7218C177.247 87.4692 177.966 87.9259 178.46 88.5902C178.774 89.0469 179.179 89.4621 179.448 89.9188C179.673 90.251 180.167 90.6661 179.628 90.9983C179.089 91.3305 178.819 90.7907 178.595 90.4586C177.966 89.5866 177.247 88.7147 176.438 87.9259C175.899 87.3446 175.27 86.8049 174.641 86.3066C174.416 86.1406 174.192 85.8914 174.461 85.6008C174.731 85.3102 175.09 85.3932 175.315 85.6423C175.809 86.099 176.213 86.5557 176.842 86.7218Z" fill="#070605"/>
<path d="M167.767 62.267C168.396 62.3085 169.025 62.2254 169.609 62.5161C169.879 62.6406 170.103 62.8482 169.969 63.1804C169.879 63.388 169.564 63.5125 169.34 63.4295C168.935 63.3049 168.531 63.2634 168.127 63.2634C167.093 63.1389 166.015 63.388 165.161 63.9277C164.892 64.0938 164.577 64.1768 164.398 63.9277C164.218 63.6786 164.353 63.3465 164.667 63.1389C165.476 62.5161 166.644 62.2254 167.767 62.267Z" fill="#080503"/>
<path d="M146.921 61.229C146.786 61.229 146.696 61.2706 146.562 61.2706C146.202 61.3536 145.753 61.4366 145.708 60.9384C145.663 60.5647 146.022 60.4402 146.337 60.3571C147.55 60.1496 148.763 60.4402 149.707 61.146C149.976 61.2706 150.066 61.6027 149.886 61.8103C149.886 61.8103 149.886 61.8103 149.886 61.8518C149.706 62.1425 149.392 62.0594 149.122 61.8934C148.493 61.4782 147.73 61.2706 146.921 61.229Z" fill="#0B0704"/>
<path d="M173.788 165.982C173.788 171.213 172.305 176.362 169.475 180.929C167.543 184.001 165.611 187.074 163.409 189.98C162.601 191.018 161.882 192.098 161.253 193.26C160.938 193.924 160.309 194.464 159.591 194.755C156.086 196.166 152.492 197.287 148.808 198.076C147.37 198.367 146.876 198.118 146.202 196.872C145.708 195.959 145.259 195.087 144.764 194.174C142.922 190.603 140.406 187.364 137.396 184.583C134.072 181.552 130.837 178.521 127.737 175.282C125.446 172.874 123.559 170.258 122.795 167.061C122.435 165.567 122.121 164.031 121.762 162.536C121.672 162.079 121.941 161.996 122.256 161.872C123.199 161.539 124.143 161.207 125.041 160.875C125.311 160.792 125.58 160.668 125.805 160.501C125.985 160.418 126.075 160.169 125.985 160.003C125.895 159.837 125.715 159.713 125.491 159.713C125.086 159.713 124.682 159.837 124.278 160.003C122.166 160.709 120.099 161.664 117.898 162.121C112.731 163.2 107.789 162.785 103.207 160.045C99.1181 157.595 95.0746 155.062 90.6268 153.111C86.5384 151.284 82.1355 150.205 77.5978 149.956C75.5761 149.831 73.5993 149.706 71.5776 149.582C70.4993 149.499 70.4094 149.416 70.3645 148.502C70.2297 146.676 70.1848 144.89 70.05 143.063C69.9152 142.108 70.4094 141.195 71.308 140.738C72.521 140.074 73.4645 138.994 74.3181 137.957C76.1152 135.714 77.6877 133.348 79.0804 130.898C80.6529 128.158 82.2703 125.376 84.337 122.885C85.9544 120.934 87.7964 119.148 89.863 117.654C92.2442 115.993 95.0746 114.955 98.0398 114.706C101.005 114.374 100.331 114.374 102.128 116.284C103.072 117.28 103.835 118.359 104.689 119.439C105.902 120.892 107.25 122.304 108.643 123.591C109.856 124.878 111.743 125.418 113.54 125.086C114.304 124.961 115.112 124.961 115.921 124.878C116.325 124.795 116.73 124.961 116.909 125.293C119.111 128.822 122.256 131.48 125.67 133.971C129.849 137.002 134.431 139.493 138.969 142.067C140.901 143.146 142.877 144.143 144.764 145.264C146.651 146.385 148.718 146.676 150.875 146.676C154.693 146.717 158.467 146.593 162.286 146.302C163.499 146.219 163.454 146.219 163.814 147.257C164.308 148.668 164.667 150.163 164.802 151.658C164.892 153.194 165.791 154.606 167.228 155.395C168.846 156.433 170.283 157.678 171.856 158.758C172.664 159.256 173.159 160.086 173.204 160.958C173.608 162.66 173.743 164.321 173.788 165.982ZM111.159 61.7273C111.608 62.5577 111.608 63.4296 112.102 64.1354C112.282 64.426 112.057 64.5506 111.878 64.7167C105.453 69.5329 98.579 73.6433 90.2674 75.138C89.9529 75.1795 89.5486 75.5117 89.2341 75.0965C88.9196 74.6813 88.7399 74.1831 88.7399 73.6848C88.7848 73.3527 89.1442 73.3527 89.4587 73.3111C91.3906 72.979 93.1877 72.2316 95.0297 71.5673C96.9167 70.8615 98.7138 69.9481 100.376 68.8271C103.207 66.9587 106.217 65.381 108.957 63.4296C109.631 62.8483 110.35 62.3086 111.159 61.7273Z" fill="white"/>
<path d="M172.574 157.969C172.08 157.595 171.586 157.263 171.137 156.889C170.283 156.183 169.34 155.519 168.351 154.896C166.959 154.066 166.06 152.986 165.925 151.326C165.79 149.831 165.431 148.336 164.892 146.925C164.802 146.676 164.757 146.426 164.757 146.177L170.777 145.43C171.182 149.623 171.945 153.734 172.574 157.969Z" fill="white"/>
<path d="M193.151 79.9957C193.466 81.0337 193.78 82.0302 194.095 83.0266C195.532 87.5522 196.835 92.1193 197.779 96.728C198.003 97.7659 198.093 98.8039 198.318 99.8004C198.453 100.133 198.273 100.506 197.958 100.714C197.599 100.963 197.24 101.212 196.745 101.544C196.296 100.008 195.847 98.5548 195.442 97.1016C194.14 92.2854 192.882 87.4277 191.399 82.653C191.264 82.2378 191.085 81.8641 190.95 81.4489C190.68 80.66 190.815 80.494 191.624 80.3279C192.073 80.2033 192.522 80.1203 193.151 79.9957ZM116.19 123.965C114.932 124.048 113.899 124.089 112.866 124.255C111.788 124.38 110.664 124.048 109.901 123.259C108.688 122.221 107.564 121.058 106.486 119.896C105.183 118.401 104.06 116.74 102.667 115.287C103.206 115.121 103.566 115.412 103.925 115.536C105.318 116.117 106.711 116.782 108.059 117.446C109.945 118.401 111.832 119.439 114.034 119.771C114.259 119.813 114.483 119.979 114.528 120.186C115.067 121.39 115.606 122.594 116.19 123.965ZM146.157 125.293C146.067 125.874 146.022 126.248 145.977 126.58C145.753 128.075 145.258 128.366 143.686 128.283C142.114 128.2 140.631 127.909 139.103 127.743C138.699 127.743 138.34 127.452 138.295 127.037C138.16 126.124 138.205 125.169 138.43 124.297C138.519 123.882 138.789 123.757 139.238 123.84C141.26 124.131 143.282 124.38 145.303 124.629C145.977 124.712 146.337 124.878 146.157 125.293ZM139.103 122.76C139.508 121.473 140.047 120.186 140.676 118.941C140.811 118.65 141.08 118.692 141.305 118.692C142.922 118.941 144.495 119.148 146.112 119.397C146.337 119.397 146.472 119.564 146.472 119.771C146.382 120.934 146.292 122.096 146.202 123.217C146.157 123.549 145.887 123.549 145.618 123.508L139.103 122.76Z" fill="#FEFEFE"/>
<path d="M141.305 117.654C141.575 116.616 142.114 115.785 142.473 114.913C142.608 114.623 142.833 114.54 143.192 114.581C144.225 114.706 145.259 114.872 146.292 114.955C146.831 114.996 147.011 115.204 146.966 115.702C146.876 116.408 146.786 117.155 146.696 117.903C146.651 118.318 146.427 118.359 146.022 118.318C144.495 118.193 142.967 117.944 141.305 117.654ZM143.192 113.543C143.596 112.505 144.091 111.467 144.63 110.429C144.719 110.263 144.809 110.097 145.079 110.056C145.843 110.056 146.562 110.139 147.28 110.305C147.55 110.346 147.505 110.595 147.505 110.761C147.415 111.675 147.325 112.588 147.235 113.502C147.191 113.875 146.966 113.917 146.606 113.875C145.483 113.834 144.36 113.709 143.192 113.543ZM138.654 128.698L143.417 129.362C142.383 130.358 141.26 131.313 140.047 132.144C139.418 131.106 138.969 129.902 138.654 128.698ZM145.393 109.059C145.888 107.647 146.741 106.485 147.415 105.281C147.46 105.198 147.55 105.073 147.685 105.115C147.82 105.156 147.954 105.239 148.089 105.364C148.134 105.447 148.179 105.572 148.134 105.696C147.909 106.859 148.044 108.063 147.64 109.308L145.393 109.059Z" fill="white"/>
<path d="M130.657 81.7811C130.882 81.615 130.882 81.7811 130.882 81.9056L130.657 81.7811Z" fill="#E2934B"/>
<path d="M174.821 202.934C174.866 202.976 174.866 203.017 174.866 203.1C174.506 203.017 174.102 203.017 173.788 202.726V202.477C174.102 202.643 174.596 202.56 174.821 202.934ZM175.046 203.142C175.27 203.1 175.45 203.183 175.585 203.349C175.405 203.391 175.18 203.308 175.046 203.142ZM176.348 202.934C176.259 203.059 176.034 203.1 175.899 203.017C175.854 203.017 175.854 202.976 175.809 202.934H176.348Z" fill="#664222"/>
<path d="M165.341 114.166C165.611 114.208 165.835 114.374 165.925 114.581C166.779 115.951 167.363 117.446 167.677 118.982C167.767 119.231 167.633 119.522 167.363 119.605H167.318C166.959 119.688 166.779 119.48 166.689 119.19C166.599 118.899 166.554 118.65 166.464 118.401C166.15 117.197 165.701 116.034 165.027 114.996C164.892 114.789 164.757 114.498 165.027 114.249C165.162 114.208 165.251 114.166 165.341 114.166Z" fill="#0A0A0A"/>
<path d="M121.043 106.153C120.549 106.194 120.054 106.111 119.56 105.987C119.335 105.904 119.111 105.779 119.111 105.488C119.156 105.115 119.47 105.073 119.74 105.115C120.773 105.281 121.806 105.239 122.84 104.949C123.244 104.824 123.604 104.7 124.008 104.575C124.277 104.45 124.592 104.534 124.727 104.783C124.862 105.115 124.637 105.322 124.367 105.405C123.334 105.945 122.211 106.194 121.043 106.153Z" fill="#0C0C0C"/>
<path d="M152.312 71.5258C153.48 70.6539 154.828 70.0311 156.266 69.5744C156.58 69.4913 156.94 69.5328 157.209 69.6989C160.983 71.1106 163.679 73.4772 165.117 77.0063C165.386 77.6706 165.566 78.4179 166.06 78.9992C166.285 79.2898 166.285 79.6635 166.105 79.9957C165.97 80.3693 165.79 80.7015 165.656 81.0752C165.521 81.3243 165.431 81.6149 165.79 81.781C166.195 81.9886 166.419 81.7395 166.599 81.4488C166.869 80.9921 167.048 80.5354 167.183 80.0372C167.228 79.622 167.543 79.2483 167.992 79.1653C169.25 78.8331 170.238 77.9612 171.317 77.38C171.721 77.546 171.586 77.8367 171.586 78.0858C171.631 79.1238 171.631 80.1617 171.496 81.1997C171.317 82.7775 170.508 84.2721 169.25 85.3932C168.621 86.016 167.767 86.4311 166.869 86.5972C166.374 86.6803 166.015 86.6803 166.015 86.1405C166.015 86.016 165.97 85.8914 165.925 85.8084C165.341 83.8985 164.083 82.9851 161.882 82.9851C160.803 82.9851 159.725 83.0266 158.647 83.1511C156.041 83.4833 153.525 83.3172 151.459 81.6564C151.324 81.5319 151.099 81.4488 151.054 81.1582C151.908 80.66 152.851 80.2863 153.885 80.0787C155.008 79.7881 156.176 79.5805 157.299 79.2898C157.569 79.2483 157.883 79.1653 158.153 79.0823C158.332 79.0407 158.422 78.8747 158.422 78.7086C158.422 78.501 158.243 78.3349 158.018 78.2934C157.793 78.2519 157.614 78.2934 157.389 78.3349C155.232 78.7086 153.031 79.1238 151.009 79.9957C150.021 80.4109 150.021 80.4109 149.392 79.6635C149.257 79.4974 149.167 79.3729 148.988 79.2068C149.302 78.7916 149.796 78.7916 150.201 78.7086C151.638 78.3764 153.121 78.0858 154.603 77.7536C154.828 77.7121 155.008 77.7121 155.232 77.6291C155.502 77.546 155.772 77.38 155.682 77.0478C155.592 76.7572 155.322 76.7157 155.098 76.7572C154.828 76.7572 154.603 76.7987 154.334 76.8402C152.492 77.1308 150.65 77.546 148.853 78.0027C148.403 78.2103 147.819 78.0858 147.595 77.6291C147.28 77.1724 146.786 76.8402 146.561 76.342C146.786 76.0929 147.101 76.0929 147.37 76.0514C149.751 75.6362 152.177 75.5531 154.603 75.8022C154.873 75.8438 155.188 75.8438 155.502 75.8438C155.727 75.8438 155.951 75.8022 155.996 75.5531C156.086 75.304 155.906 75.0964 155.637 75.0134C155.412 74.9719 155.143 74.9303 154.918 74.8888C151.998 74.5151 149.077 74.6397 146.202 75.2625C145.753 75.4286 145.214 75.2625 144.989 74.8058C145.169 74.5567 145.483 74.5982 145.708 74.5151C147.28 74.0999 148.763 73.4772 150.156 72.6883C150.65 72.3561 151.279 72.3146 151.773 72.5222C154.199 73.3526 156.535 74.183 158.377 75.9683C158.602 76.1759 158.827 76.342 159.141 76.0929C159.366 75.8853 159.366 75.5946 159.141 75.387C158.827 75.0549 158.512 74.7643 158.153 74.5151C156.715 73.4772 155.143 72.6883 153.48 72.107C153.076 71.941 152.672 71.8994 152.312 71.5258Z" fill="#FC9538"/>
<path d="M156.94 90.0018C157.928 88.0504 157.883 86.2236 157.209 84.2306C158.737 84.1476 160.13 83.857 161.657 83.9815C161.612 85.5593 161.118 87.0539 160.264 88.3826C160.04 88.7147 159.411 89.1714 160.085 89.5451C160.669 89.8357 160.893 89.213 161.163 88.8393C162.017 87.5937 162.511 86.182 162.601 84.6874C162.645 83.9815 162.825 83.8985 163.499 84.1891C164.667 84.7289 165.027 85.7669 164.308 86.8464C163.454 88.1335 162.286 89.0884 161.163 90.0849C160.938 90.2925 160.669 90.3755 160.354 90.3755C159.186 90.4585 158.018 90.2924 156.94 90.0018Z" fill="white"/>
<path d="M142.788 77.2554C142.877 77.1724 142.922 77.1308 143.012 77.0893C145.393 76.342 145.483 76.342 146.921 78.501C146.517 78.7916 146.112 79.0407 145.753 79.3314C145.528 79.4559 145.438 79.7466 145.573 79.9542C145.753 80.2448 146.022 80.2448 146.337 80.0787L146.561 79.9542C147.775 79.3729 148.269 79.4974 148.898 80.6185C149.032 80.8261 149.032 80.9921 148.853 81.1167C147.954 81.7395 147.101 82.4038 146.202 83.0266C146.067 82.902 146.022 82.8605 145.977 82.819C144.989 80.8676 143.911 79.0407 142.788 77.2554ZM144.135 75.6362C141.619 76.5081 142.114 76.3835 140.946 74.9718C142.114 74.8888 143.192 74.5982 144.135 75.6362Z" fill="#FC9538"/>
<path d="M142.428 66.4189C144.091 65.0488 145.304 63.3465 148.044 63.7202C147.056 64.5091 146.562 65.2979 146.606 66.3359C146.651 66.7511 146.292 66.7511 146.022 66.7511C144.809 66.7511 143.596 66.6265 142.428 66.4189ZM168.037 65.3394C167.588 65.6716 167.228 66.0868 166.914 66.5435C166.779 66.7511 166.554 67.0417 167.004 67.1663C167.318 67.2493 167.677 67.3739 167.767 66.8757C167.812 66.3774 168.127 65.9207 168.531 65.5886C168.756 65.464 168.98 65.4225 169.07 65.1319C168.711 65.0073 168.306 65.0903 168.037 65.3394Z" fill="white"/>
<path d="M62.3673 115.37C62.5021 115.578 62.6369 115.744 62.7267 115.91C62.9514 116.242 63.0412 116.616 63.0412 117.031C63.0412 117.28 63.1311 117.363 63.4006 117.404C64.1195 117.446 64.8383 117.571 65.6021 117.654C65.8267 117.695 66.1412 117.654 66.1861 117.986C66.1861 118.193 65.9615 118.276 65.5122 118.235C64.7485 118.152 64.0296 118.069 63.2658 117.986C62.9963 117.903 62.7716 118.027 62.6369 118.235C62.1876 118.858 61.5586 119.314 60.7948 119.605C59.7166 120.062 58.5035 120.269 57.2905 120.145C57.2905 120.352 57.4702 120.435 57.5601 120.56C58.4586 121.515 59.3572 122.47 60.1658 123.508C60.3456 123.757 60.5253 124.006 60.705 124.297C60.7948 124.421 60.7948 124.629 60.6151 124.712C60.6151 124.712 60.6151 124.712 60.5702 124.712C60.3905 124.836 60.2557 124.712 60.1209 124.546C58.9977 122.885 57.5601 121.515 56.2122 120.062C56.1673 120.02 56.1224 119.937 56.0774 119.896C55.9876 119.813 55.9876 119.646 56.0325 119.522C56.1224 119.397 56.2572 119.356 56.3919 119.356C56.5267 119.356 56.6615 119.397 56.7963 119.439C58.2789 119.73 59.8514 119.439 61.1543 118.692C61.5137 118.525 61.7832 118.276 62.0079 117.944C61.918 117.737 61.7383 117.82 61.6035 117.778C60.3905 117.695 59.1325 117.654 57.9195 117.571C57.6948 117.571 57.4253 117.612 57.4253 117.321C57.4253 117.031 57.7398 117.031 57.9195 117.031C58.5485 117.031 59.1325 117.072 59.7615 117.114C60.5253 117.155 61.2441 117.197 62.0079 117.238C62.3224 117.28 62.3673 117.155 62.3673 116.906C62.2774 116.034 61.5586 115.287 60.66 115.121C59.4021 114.955 58.0992 114.872 56.7963 114.747C55.9427 114.664 55.089 114.664 54.2354 114.623C54.1006 114.623 54.0108 114.623 53.876 114.581C53.7861 114.581 53.6963 114.498 53.6963 114.374C53.6963 114.249 53.7412 114.166 53.876 114.124C54.0108 114.083 54.1905 114.083 54.3253 114.083C57.6948 114.166 61.1093 114.498 64.434 114.996C64.8832 115.038 65.0629 115.162 64.9731 115.37C64.8832 115.702 64.5687 115.619 64.3441 115.578C63.76 115.578 63.0861 115.412 62.3673 115.37ZM105.767 19.4607C105.902 19.6683 106.037 19.8343 106.127 20.0004C106.351 20.3326 106.441 20.7062 106.441 21.1214C106.441 21.3705 106.531 21.4536 106.801 21.4951C107.519 21.5366 108.283 21.6612 109.002 21.7442C109.227 21.7857 109.541 21.7442 109.586 22.0764C109.586 22.284 109.361 22.367 108.912 22.284C108.148 22.2009 107.43 22.1179 106.666 22.0349C106.396 21.9518 106.172 22.0764 106.037 22.284C105.588 22.9068 104.959 23.3635 104.195 23.6541C103.117 24.1108 101.903 24.3184 100.69 24.1939C100.69 24.4014 100.87 24.4845 100.96 24.609C101.859 25.564 102.757 26.5189 103.566 27.5569C103.746 27.806 103.925 28.0551 104.105 28.3458C104.195 28.4703 104.15 28.6779 104.015 28.761C103.835 28.8855 103.656 28.761 103.566 28.5949C102.443 26.9756 101.005 25.564 99.6571 24.1108C99.6122 24.0693 99.5672 23.9863 99.4774 23.9447C99.3875 23.8617 99.3875 23.6956 99.4325 23.5711C99.5223 23.4465 99.6571 23.405 99.7919 23.4465C99.9267 23.4465 100.061 23.488 100.196 23.5295C101.679 23.8202 103.251 23.5711 104.554 22.8237C104.914 22.6576 105.183 22.4085 105.408 22.0764C105.318 21.8688 105.138 21.9518 105.003 21.9103C103.79 21.8273 102.532 21.7857 101.319 21.7027C101.095 21.7027 100.825 21.7442 100.825 21.4536C100.825 21.163 101.095 21.163 101.319 21.163C101.948 21.163 102.532 21.2045 103.161 21.246C103.925 21.2875 104.689 21.329 105.408 21.3705C105.722 21.4121 105.812 21.2875 105.812 21.0384C105.722 20.1665 105.003 19.4191 104.06 19.2531C102.802 19.087 101.499 19.004 100.196 18.8794C99.3426 18.7964 98.489 18.7964 97.6354 18.7548C97.5006 18.7548 97.4107 18.7548 97.276 18.7133C97.1861 18.7133 97.0962 18.6303 97.0962 18.5057C97.0962 18.3812 97.1412 18.2981 97.276 18.2566C97.4107 18.2151 97.5904 18.2151 97.7252 18.2151C101.095 18.2981 104.509 18.6303 107.834 19.1285C108.283 19.17 108.463 19.2946 108.373 19.5022C108.283 19.8343 107.969 19.7513 107.744 19.7098C107.16 19.6267 106.486 19.5022 105.767 19.4607ZM204.967 37.397C205.102 37.6046 205.237 37.7706 205.327 37.9367C205.551 38.2689 205.641 38.6425 205.641 39.0577C205.641 39.3068 205.731 39.3899 206 39.4314C206.719 39.5144 207.438 39.5975 208.202 39.6805C208.427 39.722 208.741 39.6805 208.786 40.0127C208.786 40.2203 208.561 40.3033 208.112 40.2618C207.348 40.1787 206.629 40.0957 205.866 40.0127C205.596 39.9296 205.371 40.0542 205.237 40.2618C204.787 40.8846 204.158 41.3413 203.395 41.6319C202.316 42.0886 201.103 42.2962 199.89 42.1717C199.89 42.3793 200.07 42.4623 200.16 42.5869C201.058 43.5418 201.957 44.4967 202.766 45.5347C202.945 45.7838 203.125 46.0329 203.305 46.3236C203.395 46.4481 203.395 46.6557 203.215 46.7388C203.215 46.7388 203.215 46.7388 203.17 46.7388C202.945 46.8633 202.856 46.7388 202.721 46.5727C201.598 44.9535 200.16 43.5418 198.812 42.0886C198.767 42.0471 198.722 41.9641 198.632 41.9225C198.543 41.8395 198.543 41.6734 198.587 41.5489C198.677 41.4243 198.812 41.3828 198.947 41.4243C199.082 41.4243 199.216 41.4658 199.351 41.5074C200.834 41.798 202.406 41.5074 203.664 40.76C204.024 40.5939 204.293 40.3448 204.518 40.0127C204.428 39.8051 204.248 39.8881 204.114 39.8466C202.9 39.7635 201.643 39.722 200.429 39.639C200.205 39.639 199.935 39.6805 199.935 39.3899C199.935 39.0992 200.205 39.0992 200.429 39.0992C201.058 39.0992 201.643 39.1408 202.271 39.1823C203.035 39.2238 203.799 39.2653 204.518 39.3068C204.832 39.3484 204.922 39.2238 204.922 38.9747C204.832 38.1028 204.114 37.3554 203.17 37.1894C201.912 37.0233 200.609 36.8987 199.351 36.8157C198.498 36.7327 197.644 36.7326 196.79 36.6911C196.656 36.6911 196.566 36.6911 196.431 36.6496C196.341 36.6496 196.251 36.5666 196.251 36.442C196.251 36.3175 196.296 36.2344 196.431 36.1929C196.566 36.1514 196.745 36.1514 196.88 36.1514C200.295 36.2344 203.664 36.5666 207.034 37.0648C207.483 37.1063 207.663 37.2309 207.573 37.4385C207.483 37.7706 207.169 37.6876 206.944 37.6461C206.36 37.5215 205.641 37.4385 204.967 37.397ZM197.779 152.488C197.914 152.696 198.048 152.862 198.138 153.028C198.363 153.36 198.453 153.734 198.453 154.149C198.453 154.398 198.543 154.481 198.812 154.523C199.531 154.564 200.25 154.689 201.014 154.772C201.238 154.813 201.553 154.772 201.598 155.104C201.598 155.311 201.373 155.395 200.924 155.353C200.16 155.27 199.441 155.187 198.677 155.104C198.408 155.062 198.183 155.145 198.048 155.353C197.599 155.976 196.97 156.432 196.206 156.723C195.128 157.18 193.915 157.387 192.702 157.263C192.702 157.47 192.882 157.553 192.971 157.678C193.87 158.633 194.769 159.588 195.577 160.626C195.757 160.875 195.937 161.124 196.116 161.415C196.206 161.539 196.161 161.747 196.027 161.83C195.802 161.955 195.712 161.83 195.577 161.664C194.454 160.045 193.016 158.633 191.669 157.18C191.624 157.138 191.579 157.055 191.489 157.014C191.399 156.931 191.399 156.765 191.444 156.64C191.534 156.557 191.669 156.516 191.803 156.557C191.938 156.557 192.073 156.599 192.208 156.64C193.69 156.931 195.263 156.682 196.521 155.893C196.88 155.727 197.15 155.478 197.374 155.145C197.285 154.938 197.105 155.021 196.97 154.979C195.757 154.896 194.499 154.855 193.286 154.772C193.061 154.772 192.792 154.813 192.792 154.523C192.792 154.232 193.061 154.232 193.286 154.232C193.915 154.232 194.499 154.273 195.128 154.315C195.892 154.357 196.656 154.398 197.374 154.44C197.689 154.44 197.779 154.357 197.779 154.107C197.689 153.236 196.97 152.488 196.027 152.322C194.769 152.156 193.466 152.073 192.163 151.948C191.309 151.865 190.456 151.865 189.602 151.824C189.467 151.824 189.377 151.824 189.243 151.782C189.153 151.782 189.063 151.699 189.063 151.575C189.063 151.45 189.108 151.367 189.243 151.326C189.377 151.284 189.557 151.284 189.692 151.284C193.106 151.367 196.476 151.658 199.845 152.198C200.295 152.239 200.474 152.364 200.385 152.571C200.295 152.903 199.98 152.82 199.756 152.779C199.171 152.613 198.498 152.53 197.779 152.488Z" fill="#010000"/>
</g>
<defs>
<clipPath id="clip0">
<rect width="226.165" height="209.008" fill="white" transform="translate(10.2739 9.49609)"/>
</clipPath>
</defs>
</svg>
