<svg width="247" height="228" fill="none" xmlns="http://www.w3.org/2000/svg"><g clip-path="url(#clip0)"><path d="M75.531 120.186c-.09 8.761-8.626 13.951-16.938 10.837-2.56-.955-4.897-2.408-6.784-4.277-4.672-4.442-4.537-11.542.27-15.86 3.19-2.865 7.817-3.861 12.04-2.657 1.079.249 2.157.581 3.19.996 5.212 2.45 7.908 6.311 8.222 10.961z" fill="#000"/><path d="M60.615 129.279c-5.706.125-10.872-4.318-11.007-9.799-.27-5.646 4.493-10.421 10.603-10.67 6.11-.249 11.277 4.152 11.546 9.799.27 5.646-4.493 10.421-10.603 10.67h-.539zm11.502-6.352c.584.124.853.456 1.213.581.674.207.584.623.36 1.079-.765 1.62-.54 1.412-2.068.457-.27-.125-.404-.415-.27-.664 0-.042.046-.083.09-.125.225-.374.45-.872.675-1.328zm1.976-.167c-1.707-.747-1.707-.747-1.303-2.698 1.843.581 1.977 1.328 1.303 2.698zm-4.313 3.903c.18-.415.495-.747.854-1.038.404.166.809.374 1.123.665.404.207.54.705.27 1.079-.135.166-.27.291-.494.332-.225.083-.405-.041-.54-.166-.404-.249-.808-.581-1.213-.872zm4.448-7.224c-1.078-.249-1.617-.83-1.527-1.827.045-.332-.225-.664-.09-.996 1.213.29 1.527.83 1.617 2.823zm-6.29 8.677c.27-.207.45-.332.584-.456.36-.374.72-.332 1.034 0 .135.124.314.249.449.373.135.125.674.291.36.706-.225.415-.764.54-1.214.332-.044-.041-.09-.041-.134-.083-.315-.249-.63-.539-1.079-.872zm-2.201 1.246c1.438-.872 1.438-.872 2.65.457-1.482.872-1.347.664-2.65-.457zm-2.471.747c.943-.498 1.707-.373 2.291.54-1.258.498-1.527.415-2.291-.54zm8.401-16.4l.809.997a.756.756 0 01.225.539c-.36.167-.584 0-.764-.29-.225-.415-.404-.831-.584-1.246a.177.177 0 01.27-.041c.044 0 .044.041.044.041zm-11.142 16.816c1.079-.291 1.079-.291 1.528.29a4 4 0 01-1.528-.29zm10.334-17.48c-.135-.125-.405-.249-.18-.374.225-.124.404.166.494.374-.09.125-.18.125-.314 0z" fill="#FFB674"/><path d="M71.667 113.709h-.314c-.135 0-.18-.124-.18-.207a.19.19 0 010-.291l.045-.041c.225.124.404.29.45.539z" fill="#FFB674"/><path d="M71.218 113.211c0 .083-.045.208-.045.291-.135-.125-.27-.291-.314-.499h.314c.045.083.045.125.045.208zm-10.827 3.82c-.54-.581-.944-1.204-1.169-1.952-.134-.415.045-.664.54-.705h.898c1.438.124 1.528.332.719 1.411-.27.415-.584.748-.988 1.246zm-.135 1.868c.18.166.27.208.27.291.224.456.673.955.18 1.37-.495.415-1.17.208-1.798-.125.494-.539.898-.996 1.348-1.536z" fill="#FFB674"/><path d="M118.347 24.65c-.09 8.761-8.626 13.951-16.938 10.837-2.56-.955-4.897-2.408-6.784-4.276-4.627-4.443-4.493-11.543.315-15.86 3.19-2.824 7.772-3.82 11.995-2.616 1.079.249 2.157.58 3.19.996 5.212 2.408 7.907 6.27 8.222 10.92z" fill="#000"/><path d="M103.431 33.743c-5.706.083-10.873-4.318-11.007-9.84-.27-5.646 4.492-10.421 10.603-10.629 6.11-.207 11.276 4.152 11.501 9.799.225 5.646-4.493 10.421-10.603 10.629-.18 0-.314.041-.494.041zm11.501-6.394c.584.125.854.457 1.213.582.674.207.585.622.36 1.08-.764 1.618-.539 1.41-2.067.456-.269-.125-.404-.415-.269-.665 0-.041.045-.082.09-.124.224-.374.449-.83.673-1.329zm1.977-.166c-1.707-.747-1.707-.747-1.303-2.698 1.842.58 1.977 1.328 1.303 2.698zm-4.313 3.903c.18-.415.494-.747.854-1.038.404.166.809.374 1.123.664a.725.725 0 01.27 1.08c-.135.166-.27.29-.495.332-.224.083-.404-.041-.539-.166-.404-.25-.808-.581-1.213-.872zm4.448-7.224c-1.078-.25-1.617-.83-1.528-1.827.045-.332-.224-.664-.089-.997 1.213.291 1.572.872 1.617 2.824zm-6.29 8.677c.18-.166.405-.29.584-.456.36-.374.719-.333 1.034 0 .134.124.314.249.449.373.135.125.674.29.359.706-.224.415-.764.54-1.213.332-.045-.041-.09-.041-.135-.083-.314-.249-.629-.54-1.078-.872zm-2.201 1.287c1.437-.872 1.437-.872 2.65.457-1.482.83-1.302.664-2.65-.457zm-2.471.706c.943-.498 1.707-.373 2.291.54-1.258.498-1.528.457-2.291-.54zm8.446-16.358l.809.996c.135.166.224.332.224.54-.359.166-.629 0-.763-.29-.225-.416-.405-.831-.584-1.246.045-.083.179-.125.269-.042l.045.042zm-11.187 16.773c1.078-.29 1.078-.29 1.528.291a3.988 3.988 0 01-1.528-.29zm10.333-17.48c-.134-.124-.404-.248-.179-.373.224-.125.404.166.494.374-.045.083-.18.124-.27.083 0-.042-.045-.042-.045-.083z" fill="#FFB674"/><path d="M114.528 18.174h-.314c-.135 0-.18-.125-.18-.208a.19.19 0 010-.29l.045-.042c.18.124.359.29.449.54z" fill="#FFB674"/><path d="M114.034 17.634c0 .083-.045.207-.045.29a.76.76 0 01-.314-.498h.314a.42.42 0 01.045.208zm-10.783 3.861c-.539-.581-.943-1.204-1.168-1.951-.134-.415.045-.665.539-.706h.854c1.438.124 1.528.332.719 1.412-.27.373-.584.747-.944 1.245zm-.179 1.827c.179.166.269.208.269.29.225.457.674.956.18 1.37-.494.416-1.168.208-1.797-.124.494-.54.898-.996 1.348-1.536z" fill="#FFB674"/><path d="M216.783 42.545c-.09 8.761-8.626 13.95-16.937 10.837-2.561-.955-4.898-2.408-6.784-4.277-4.628-4.442-4.493-11.542.314-15.86 3.19-2.823 7.772-3.861 11.996-2.616a21.67 21.67 0 013.189.997c5.212 2.408 7.908 6.27 8.222 10.92z" fill="#000"/><path d="M201.867 51.638c-5.706.125-10.872-4.318-11.007-9.798-.27-5.647 4.493-10.422 10.603-10.67 6.11-.25 11.277 4.151 11.546 9.798.27 5.646-4.492 10.421-10.603 10.67h-.539zm11.502-6.394c.584.125.853.457 1.213.581.674.25.584.623.359 1.08-.764 1.62-.539 1.412-2.066.457-.315-.208-.405-.416-.225-.748.269-.415.494-.872.719-1.37zm1.977-.124c-1.708-.748-1.708-.748-1.303-2.7 1.842.582 1.976 1.288 1.303 2.7zm-4.314 3.86c.18-.414.495-.746.854-1.037.404.166.809.374 1.123.664a.725.725 0 01.27 1.08c-.135.166-.315.29-.494.373-.225.083-.405-.041-.539-.166-.405-.29-.809-.581-1.214-.913zm4.448-7.182c-1.078-.29-1.617-.83-1.527-1.827.045-.332-.225-.664-.09-.996 1.213.249 1.527.83 1.617 2.823zm-6.29 8.678c.27-.208.45-.333.585-.457.359-.374.673-.29 1.033.041.135.125.314.25.449.374.135.125.674.29.36.706-.225.415-.764.54-1.214.332-.044-.041-.089-.041-.134-.083-.315-.29-.629-.581-1.079-.913zm-2.201 1.245c1.438-.872 1.438-.872 2.651.457-1.483.83-1.348.664-2.651-.457zm-2.471.748c.943-.499 1.707-.374 2.291.54-1.258.498-1.527.414-2.291-.54zm8.446-16.4l.809.996c.135.166.225.332.225.54-.36.166-.584 0-.764-.291-.225-.415-.404-.83-.584-1.246.045-.083.18-.124.269-.041l.045.041zm-11.187 16.815c1.079-.291 1.079-.291 1.573.29-.539 0-1.078-.124-1.573-.29zm10.334-17.48c-.135-.125-.405-.249-.18-.374.225-.124.404.166.494.374-.045.083-.179.125-.269.083 0-.041 0-.083-.045-.083z" fill="#FFB674"/><path d="M212.964 36.068h-.314c-.135 0-.18-.124-.18-.207a.19.19 0 010-.29l.045-.042c.18.124.359.29.449.54z" fill="#FFB674"/><path d="M212.47 35.57c0 .125 0 .208-.045.29-.135-.124-.269-.29-.314-.498h.314c.045.084.045.125.045.208zm-10.783 3.82a4.654 4.654 0 01-1.168-1.952c-.134-.415.045-.705.539-.705.315 0 .585 0 .899.041 1.438.125 1.528.332.674 1.412-.27.373-.584.706-.944 1.204zm-.179 1.868c.179.166.269.208.269.29.225.458.674.956.18 1.371-.494.415-1.123.208-1.797-.124.494-.54.898-1.038 1.348-1.537z" fill="#FFB674"/><path d="M209.64 156.682c-.09 8.76-8.626 13.95-16.938 10.836-2.561-.955-4.897-2.408-6.784-4.276-4.628-4.484-4.493-11.543.359-15.861 3.19-2.823 7.773-3.819 11.996-2.615a21.73 21.73 0 013.19.996c5.166 2.408 7.862 6.269 8.177 10.92z" fill="#000"/><path d="M194.679 165.774c-5.706.125-10.873-4.318-11.007-9.798-.27-5.647 4.492-10.422 10.602-10.671 6.111-.249 11.277 4.152 11.547 9.799.269 5.647-4.493 10.421-10.603 10.67h-.539zm11.546-6.394c.584.125.854.457 1.213.582.674.249.584.622.36 1.079-.764 1.619-.54 1.453-2.067.457-.27-.125-.404-.415-.27-.664 0-.042.045-.083.09-.125.225-.374.405-.83.674-1.329zm1.977-.166c-1.707-.747-1.707-.747-1.303-2.698 1.842.622 1.932 1.328 1.303 2.698zm-4.358 3.903c.18-.415.494-.747.854-1.038.404.166.808.374 1.123.664a.725.725 0 01.269 1.08c-.134.166-.269.291-.494.332-.224.083-.404-.041-.539-.166-.404-.249-.809-.581-1.213-.872zm4.448-7.224c-1.078-.249-1.618-.831-1.528-1.827.045-.332-.224-.664-.09-.997 1.213.291 1.573.872 1.618 2.824zm-6.245 8.677c.269-.207.449-.332.584-.456.359-.374.674-.333 1.033 0 .135.124.315.249.45.373.134.125.673.291.359.706-.225.415-.764.54-1.213.332-.045-.041-.09-.041-.135-.083-.314-.249-.674-.498-1.078-.872zm-2.246 1.287c1.437-.872 1.437-.872 2.65.457-1.482.83-1.303.664-2.65-.457zm-2.427.706c.944-.498 1.708-.373 2.292.54-1.303.498-1.528.457-2.292-.54zm8.402-16.358l.809.996c.134.166.224.332.224.54-.359.166-.584 0-.764-.291a15.83 15.83 0 01-.584-1.245c.045-.083.18-.125.27-.042 0 0 .045 0 .045.042zm-11.142 16.773c1.078-.29 1.078-.29 1.572.291-.584 0-1.078-.083-1.572-.291zm10.333-17.479c-.135-.125-.404-.249-.18-.374.225-.124.405.166.495.374-.045.083-.18.124-.27.083 0-.042-.045-.042-.045-.083z" fill="#FFB674"/><path d="M205.776 150.205h-.315c-.134 0-.179-.125-.179-.208a.19.19 0 010-.291l.045-.041c.179.124.359.291.449.54z" fill="#FFB674"/><path d="M205.327 149.665c0 .083 0 .207-.045.29-.135-.124-.27-.29-.315-.498h.315a.421.421 0 01.045.208zm-10.828 3.861a4.657 4.657 0 01-1.168-1.951c-.135-.415.045-.665.539-.706h.899c1.437.124 1.527.332.674 1.412-.27.373-.584.747-.944 1.245zm-.135 1.827c.18.166.27.208.27.291.225.456.674.955.18 1.37-.494.415-1.123.207-1.797-.125.449-.54.853-.996 1.347-1.536z" fill="#FFB674"/><path d="M163.993 191.018c.584.374 1.258.581 1.977.498 3.28 0 6.604.291 9.884.291 1.483 0 3.01.207 4.493.166 4.313-.208 8.626-.291 12.894-1.246a30.81 30.81 0 019.57-.789 18.13 18.13 0 016.963 2.035c1.573.83 3.011 1.785 3.999 3.238a6.608 6.608 0 011.168 3.737v2.201c.045 4.152-2.067 7.182-5.841 9.341-.898.54-1.842 1.08-2.74 1.62a10.407 10.407 0 01-3.46 1.245c-.898.208-1.752.54-2.605.831-3.909 1.245-7.953 1.993-11.996 2.698-2.516.416-5.077.748-7.638 1.08-1.258.166-2.561.166-3.863.291-2.966.29-5.931.332-8.896.166-2.022-.125-4.088-.125-6.11-.333-2.381-.207-4.718-.498-7.054-.788-2.875-.374-5.751-.789-8.581-1.371a109.698 109.698 0 01-12.625-3.238c-3.279-1.08-6.514-2.242-9.434-3.986-1.932-1.121-3.819-2.325-5.122-4.193-2.022-2.865-1.393-5.896.764-8.221 1.258-1.329 2.92-2.159 4.672-2.865a39.747 39.747 0 019.884-2.367c1.438-.207 2.92-.332 4.358-.29.809 0 1.662-.083 2.471-.208.584 0 .719.457.944.789a28.574 28.574 0 012.021 3.571c.719 1.494 1.663 2.906 2.696 4.193-.045.706-.135 1.412-.314 2.076-.27 1.495.224 2.657 1.662 3.446 2.651 1.453 5.616 2.201 8.626 2.741 1.348.207 2.741.332 4.133.29a59.398 59.398 0 018.132.415c2.741.249 5.526-.083 8.132-1.038.539 0 1.123 0 1.662.125-.179-.457-.674-.623-.763-1.038-.09-.415.089-.872.134-1.329 0-.332-.09-.664-.224-.955-.18-.456-.135-.83.449-.955.314-.083.629.083 1.033-.166-1.123-1.245-3.01-.788-4.223-1.66-3.909-2.409-8.087-2.741-12.4-1.163-.898.332-1.752.706-2.651 1.038-1.347.54-1.976.083-1.707-1.204a12.212 12.212 0 011.483-4.276 9.715 9.715 0 002.74-3.364c.315-.415.539-.996 1.303-1.079z" fill="#FFEFE1"/><path d="M149.167 49.147c.225.166.539.083.809.166.584.374 1.033-.125 1.572-.166.315-.042.584.125.854.083.314.29.854.332 1.213.125.225-.125.494-.416.854-.125 1.168.374 2.426.415 3.639.664 2.74.498 5.256 1.62 7.727 2.782.09.747.764.29 1.123.498.09.374.45.498.764.665-.404 1.245.719.415 1.034.664.224.498.449.996 1.168.955-.225.706-.225.706.359.955.045.124.09.207.18.332 1.662 1.868 2.156 4.027 2.156 6.352 0 .997.135 1.993.225 2.99a7.504 7.504 0 01-.629 4.069c-.18.373-.27.622.225.83 2.875 1.204 4.223 3.488 5.121 6.103.584 1.827.764 3.737.584 5.605-.494.457-1.033.125-1.527.042-.854-.208-1.752-.457-2.831-.29 1.528.58 3.235.165 4.269 1.453a1.39 1.39 0 010 1.037c-.495.499-.899.083-1.348-.083-.674-.249-1.303-.705-2.381-.788.674.58 1.347.705 1.842.996.494.29 1.258.457 1.482 1.163a1.3 1.3 0 01-.764.664c-.853.166-1.123-.664-1.886-.872.404.872 1.572 1.121 1.662 2.117-.315.374-.449.83-.809 1.205-.764-.125-.719-.872-1.168-1.246-.359-.332-.539-.789-1.123-1.121.269.747.764 1.204 1.078 1.785.225.415.719.79.449 1.37a12.569 12.569 0 01-4.627 2.907c-.899.249-1.483 1.08-1.348 1.951.045.54.359 1.287-.584 1.536-.494-.664-.27-1.411-.27-2.117 0-.54-.179-.623-.629-.374-3.414 1.91-7.188 2.408-11.052 2.824-1.437.124-2.92 0-4.268.58-.269.125-.584.042-.719-.207-.179-.249-.584-.332-.853-.166-.45 0-.899-.041-1.348-.166-.449-.29-.944-.125-1.438-.166-2.426-1.08-4.807-2.16-6.829-3.778a3.845 3.845 0 01-.988-.872c-.405-2.45-1.932-4.318-3.774-5.979-.719-.581-1.438-1.204-2.022-1.868-.09-.499-.404-.914-.898-1.163-1.573-.83-2.921-1.993-4.403-2.99-2.426-1.577-4.673-3.487-6.964-5.23-.359-.25-.539-.623-.449-.997a3.985 3.985 0 01.584-1.868 32.601 32.601 0 013.324-4.028c2.067-1.08 4.403-1.702 6.784-1.868 1.573-.042 3.19.083 4.718.332 3.369.457 6.649 1.162 10.064.996.943 0 1.931-.166 2.83-.456.809-.291 1.033-.79.764-1.578-.764-2.076-2.831-2.948-5.032-2.076-1.033.374-1.887.996-2.606 1.744-1.168 1.245-2.561 1.619-4.268 1.245-1.617-.332-3.28-.498-4.987-.58-2.201-.084-4.358.207-6.425.912-.359.125-.808.416-1.168.042-.359-.374-.09-.83.09-1.204 1.393-2.823 3.145-5.48 5.616-7.598.404-.332 1.078-.664.449-1.329-.09-.083-.134-.207-.179-.29a5.15 5.15 0 001.572-.872c3.999-2.907 8.312-5.273 13.478-5.854.18-.042.315-.083.495-.125.404-.041.898-.29 1.437-.25z" fill="#FC9538"/><path d="M134.386 84.147c.899.748 1.797 1.495 2.651 2.243.943.871 1.752 1.868 2.336 2.947.539.83.854 1.786.809 2.74.359.873-.09 1.578-.494 2.284-.45.79-.36 1.246.539 1.661 1.527.747 2.785 1.785 4.358 2.491 1.348.581 1.617.498 2.471-.664.314-.415.359-1.038 1.033-1.246.404-.54.809-.373 1.168 0 .225 1.121-.494 1.952-1.213 2.657-.898.914-1.033 1.786-.404 2.824.359.54.224 1.536.988 1.619.764.083 1.078-.872 1.528-1.37a3.217 3.217 0 00.674-3.861c-.225-.499-.54-1.08-.225-1.661.404-.457.674-.498.943-.125.135.166.045.457.27.582.539.29.584.83.719 1.287.584 1.494.584 1.494 2.336 1.494 3.28.042 6.2-1.08 9.12-2.242.315-.124.584-.29.899-.415 1.483-.54 2.606-1.287 2.291-2.99 0-.29.09-.539.315-.747.269-.166.494-.373.943-.29l.135 2.906c.314.665-.225.997-.629 1.329-.674.498-1.393.872-2.157 1.204-3.773 1.661-7.592 3.114-11.905 2.782-.809-.083-1.618.332-1.932 1.038-.315.539-.719 1.079-1.168 1.494-1.213.997-1.393 2.284-1.528 3.654-.449 4.027-.943 8.055-1.393 12.082-.269 1.702-.359 3.446-.359 5.19.09 2.034-.629 3.654-2.471 4.899-1.168.789-2.157 1.827-3.28 2.657-1.752 1.329-2.516 1.163-3.459-.788-1.842-3.82-1.797-7.598.135-11.418 2.156-4.401 4.043-8.927 6.379-13.245.135-.332.315-.623.539-.913 1.528-1.661 1.169-3.322.225-5.066a2.036 2.036 0 00-.898-.913c-1.798-.706-3.325-1.785-4.942-2.74-1.258-.748-1.258-.748-2.157.415a23.766 23.766 0 01-5.167 5.024 4.988 4.988 0 01-.943.581.814.814 0 01-1.033-.125c-.27-.29-.27-.747.044-.996l.045-.042c.315-.29.674-.581 1.034-.83 2.695-2.076 4.942-4.65 6.514-7.556.899-1.661.899-3.197-.314-4.775-1.438-1.868-3.235-3.446-5.302-4.733-3.055-1.91-6.2-3.654-8.985-5.896-1.932-1.495-3.639-3.197-5.077-5.107-1.707-2.283-3.594-4.484-5.032-6.934-.404-.705-.854-.705-1.483-.332-1.976 1.246-3.773 2.657-5.705 3.945-3.864 2.532-8.177 4.193-12.715 5.397-1.842.498-1.887.498-.898 1.993 2.785 4.11 5.66 8.22 9.255 11.833 1.707 1.66 3.729 2.99 5.975 3.986 1.842.872 3.774 1.66 5.391 2.948 2.561 2.076 4.313 4.484 4.538 7.805.18 3.239-.27 6.394-.764 9.55a9.14 9.14 0 01-.449 1.91c-1.438 3.487 0 6.518 1.932 9.383 2.022 2.865 4.538 5.356 7.503 7.432 6.424 4.65 13.523 8.304 20.487 12.123a5.139 5.139 0 002.246.623c1.752.083 3.504.332 5.257.166 1.168-.124 2.336-.041 3.504-.041 4.313-.042 8.581-.665 12.849-1.163.494 0 .899-.332.899-.789 0-.083 0-.166-.045-.249-.405-2.698-.539-5.439-.854-8.179-.269-2.616-.404-5.231-.629-7.847-.269-3.156-.674-6.311-.853-9.467a2.815 2.815 0 00-1.213-2.2 6.655 6.655 0 01-1.753-2.242c-.224-.415-.494-.913.09-1.246.584-.332 1.034.083 1.348.54a10.88 10.88 0 001.438 1.744 1.982 1.982 0 002.156.498c4.987-1.744 10.064-3.072 15.006-4.899 2.112-.789 3.954-2.118 5.212-3.861.943-1.246 1.887-2.45 2.74-3.737.674-.955.899-2.118.539-3.197-1.482-4.94-2.65-10.006-4.133-14.947-.359-1.246-.494-1.329-1.797-1.08-1.887.374-3.729.79-5.841 1.163 1.168.664 2.247 1.204 3.325 1.744a8.468 8.468 0 012.516 1.702c.359.332.719.789.225 1.204-.495.415-.944.166-1.348-.124-1.528-.955-3.1-1.869-4.718-2.658-1.572-.788-3.324-1.287-4.852-2.159-1.078-.705-2.336-.705-3.549-.954-.36-.084-.719-.125-1.078-.208-.18-.042-.225-.208-.225-.374s.135-.29.27-.332c.269-.041.584-.041.853-.041.854.041 1.752.207 2.561.456.449.166.899.25 1.348.25.853.498 1.842.664 2.83.498 2.921-.499 5.751-1.121 8.626-1.744.495-.125.54-.332.495-.748-.045-1.204 0-1.204 1.258-1.411a8.034 8.034 0 001.437-.374c.899-.29.989-.249 1.438.664.359.374.629.83.719 1.329 1.437 4.526 2.83 9.051 3.819 13.66.134.54.179 1.08.089 1.62.045 1.037.18 2.075.45 3.072.224 1.037.045 1.826-.989 2.366a3.247 3.247 0 00-.853.664c-.944.872-.989.914-1.932.042-.899 1.204-1.797 2.408-2.606 3.654-1.662 2.408-4.133 4.235-7.009 5.231-2.785 1.038-5.661 1.868-8.536 2.74-2.246.665-4.358 1.536-6.604 2.201-.494.166-.629.415-.584.872.224 2.532.404 5.065.629 7.639.224 2.408.449 4.858.629 7.266.359 4.027.629 8.096 1.213 12.124.045.415.09.872-.315 1.038-.764.207-.674.705-.584 1.204.36 2.2.674 4.442 1.078 6.643.629 3.404 1.393 6.85 1.798 10.297.404 3.944-.045 7.888-1.258 11.666-.584 1.91-1.438 3.779-2.471 5.564a98.962 98.962 0 01-6.56 9.882c-.18.207-.314.456-.449.664a8.941 8.941 0 00-1.618 2.408 4.844 4.844 0 01-2.111 2.159 4.487 4.487 0 01-1.438.872 66.25 66.25 0 01-9.704 2.865c-.854.166-1.662.29-2.336-.332-.899-.457-1.348-1.246-1.753-2.035a51.993 51.993 0 00-3.369-5.896c-.135-.166-.225-.29-.404-.415l-.09-.207c-.045-.083-.135-.166-.18-.249a15.366 15.366 0 00-2.651-3.197c-3.279-3.156-6.604-6.311-9.929-9.467a.993.993 0 00-.224-.124 1.459 1.459 0 01-.764-.374c-2.741-2.906-5.167-5.937-6.11-9.799-.135-.705-.18-1.411-.135-2.159-.135-.622-.27-1.287-.404-1.909a2.281 2.281 0 00-.225-.582c-1.662.54-3.37.914-5.122 1.121-4.448.332-8.626-.249-12.49-2.532-3.19-1.91-6.334-3.862-9.659-5.564-3.909-2.034-8.042-3.612-12.49-4.235-2.65-.332-5.301-.498-7.997-.581a8.757 8.757 0 01-2.336-.291c-.63.125-1.213-.249-1.348-.83a.331.331 0 010-.291c-.09-2.242-.45-4.442-.314-6.643 0-.332.134-.664.314-.955a3.672 3.672 0 011.528-1.619c1.168-.747 2.201-1.702 2.965-2.782a47.941 47.941 0 004.313-6.394c1.662-2.906 3.324-5.813 5.481-8.428 1.707-2.118 3.729-3.986 5.975-5.605 2.337-1.661 5.032-2.491 7.908-2.99 3.549-.664 6.694.374 9.704 1.91a64.355 64.355 0 005.436 2.616c1.932.747 1.977.747 2.336-1.121.539-2.574 1.124-5.149 1.393-7.764.225-2.284.36-4.567-.09-6.809-.224-1.08-.764-2.118-1.527-2.99-1.393-1.785-3.325-3.197-5.481-4.11-5.212-2.076-9.166-5.44-12.31-9.757-2.157-2.99-4.538-5.854-6.29-9.093-.09-.332-.495-.54-.854-.457-.719.125-1.168-.207-1.483-.83-.134-.25-.27-.498-.36-.747-.493-1.412-.269-1.827 1.259-2.325l.36-.125c.853-.623 1.931-.706 2.875-1.08 3.055-1.12 5.975-2.574 8.626-4.359 2.606-1.744 5.436-3.155 7.907-5.065.225-.166.494-.25.809-.25.224-.166.449-.373.674-.498.853-.54 1.617-.456 1.887.416 1.572 4.65 5.076 8.22 7.907 12.165.404.083.764.332.988.664 2.696 2.99 6.02 5.273 9.57 7.307.09.042.224.125.314.166 1.483.83 2.965 1.246 3.774 2.408z" fill="#000"/><path d="M109.676 61.52a36.76 36.76 0 01-3.999 2.74 133.15 133.15 0 00-5.211 3.238 41.894 41.894 0 01-9.21 4.36c-.584.208-1.168.374-1.797.415.18-2.242.718-4.4 1.078-6.643.494-3.28.988-6.56 1.438-9.84.27-1.66.449-3.363.494-5.065 0-2.16-.674-2.865-2.876-3.446-4.358-1.121-8.536-2.616-12.13-5.356-1.707-1.329-2.696-2.907-2.606-5.024 0-1.246.09-2.45.225-3.695.314-1.578.943-1.869 2.516-1.121.27 1.411.18 2.823.404 4.235.225 1.577.899 2.864 2.471 3.612-1.662-.872-2.201-2.325-2.381-3.945a20.846 20.846 0 01-.27-2.408c0-.415-.044-.872.315-1.162l1.932.249c.539.415.36.996.36 1.494.044 1.578.898 3.073 2.335 3.945-1.886-1.62-2.65-3.778-1.886-5.48 1.482-.208 2.29.124 2.74 1.37.404 1.12 1.123 1.536 2.336 1.702a34.116 34.116 0 0112.625 3.861c.988.498 1.707 1.412 1.887 2.45a9.7 9.7 0 01.225 2.532c0 .83-.001 1.62.044 2.45a7.158 7.158 0 001.124 3.654c2.291 3.404 4.358 6.933 7.008 10.172.27.249.495.498.809.706z" fill="#FC9538"/><path d="M20.944 163.034c-4.852-3.986-8.087-8.802-8.716-14.864-.494-5.024.854-9.549 4.942-13.161 2.786-2.45 6.02-3.156 9.705-2.533 1.976.374 3.863.996 5.615 1.91 1.753.913 3.46 1.868 5.077 2.948.18.581-.224.955-.539 1.328-1.572 2.035-3.46 3.862-5.121 5.813-4.538 5.231-7.998 11.169-10.244 17.521-.135.415-.09.955-.719 1.038z" fill="#000"/><path d="M93.233 191.059a3.975 3.975 0 01-1.573.208c-3.46.125-6.919.042-10.378-.249-2.83-.249-5.661-.415-8.401-.913-.585-1.038-.36-2.118-.27-3.156.584-7.515 2.516-14.864 5.706-21.797.27-.623.494-1.329 1.213-1.703l9.749 3.031c.27.332.36.789.27 1.204-.36 4.982-.405 9.965.763 14.864.584 2.45 1.438 4.858 2.606 7.141.18.416.54.831.315 1.37z" fill="#FC9538"/><path d="M67.983 158.384a86.081 86.081 0 0010.064 4.484c.09.041.135.083.18.166.27.457-.045.83-.225 1.204-2.785 6.145-4.852 12.497-5.66 19.14a28.563 28.563 0 00-.36 5.19c.045.499.135.997-.225 1.454a65.939 65.939 0 01-14.107-3.82c-.18-.083-.404-.083-.54-.249a1.702 1.702 0 01-.089-1.246c.944-5.73 2.022-11.418 4.583-16.774 1.437-3.031 3.055-6.02 5.256-8.636.27-.373.674-.705 1.123-.913z" fill="#FC9538"/><path d="M55.988 185.538c-2.202-.789-4.358-1.744-6.425-2.782a80.16 80.16 0 01-6.784-3.654 1.897 1.897 0 01.09-1.121c1.662-5.314 3.19-10.712 6.11-15.611 2.022-3.488 4.448-6.809 7.188-9.882.18-.29.54-.498.899-.581 3.145 2.159 6.47 4.069 9.75 5.979 0 .373-.18.747-.45 1.038-4.493 5.646-7.233 12.04-8.761 18.891-.494 2.283-.854 4.567-1.258 6.851 0 .29.045.664-.36.872z" fill="#FC9538"/><path d="M46.553 143.977l6.065 4.608c1.168.872 2.336 1.744 3.46 2.616.134.498-.315.789-.585 1.08-4.627 5.106-8.221 10.961-10.558 17.23-.943 2.533-1.707 5.107-2.426 7.681-.134.457-.044 1.038-.763 1.204-1.753-.872-3.415-1.91-4.987-3.031-2.157-1.411-4.224-2.865-6.2-4.442.36-1.827 1.213-3.529 1.976-5.232 1.843-4.069 3.55-8.179 5.796-12.082 1.887-3.28 4.044-6.394 7.099-8.926.36-.25.629-.623 1.123-.706zM198.902 96.23c-.359-1.08-.674-2.2-.854-3.363-1.033-4.484-2.56-8.844-3.818-13.245.763.083 1.168-.54 1.707-.872 1.348-.706 2.111-2.076 2.022-3.487-.045-.872.044-1.786 0-2.658a5.677 5.677 0 01.224-1.951c.36-.955.494-1.951.36-2.948-.18-.789.314-1.495 1.033-1.993 1.393-.955 2.291-2.408 2.516-3.986a4.007 4.007 0 000-1.038c-.135-.54-.09-1.08.09-1.578.539-1.37 2.066-1.743 3.19-.705.673.623 1.123 1.494 1.168 2.366.09.872.045 1.786-.135 2.657-.18.872.045 1.08.988.872a6.511 6.511 0 012.831 0c.359.084.764.125 1.123.125 1.483.083 2.156-.415 2.381-1.785a11.97 11.97 0 01.27-1.827c.494-1.287 1.347-1.495 2.516-.623.359.913-.045 1.785-.18 2.699-.27 1.91-.719 3.778-2.202 5.314 1.124-.955 1.842-2.242 2.022-3.653.315-1.495.449-2.99.899-4.401.314-.167.674-.333.988-.499 1.303-.706 2.561.332 2.336 1.495a18.101 18.101 0 000 4.401c.045.706 0 1.37 0 2.076a2.66 2.66 0 01-1.168 2.076c-1.258.955-2.695 1.702-4.223 2.242-1.977.789-3.954 1.412-6.02 1.951-1.707.374-3.055 1.578-3.505 3.156-.629 1.91-1.033 3.82-1.482 5.73a102.153 102.153 0 01-2.786 9.59 9.59 9.59 0 01-2.291 3.862zM90.492 166.77c2.875.706 5.75 1.287 8.716 1.661 1.842.207 3.729.29 5.616.456.314.415.494.914.494 1.412.674 5.937 2.651 11.376 6.515 16.192.269.25.404.582.404.955a54.155 54.155 0 01-10.289 2.741 54.543 54.543 0 01-7.278.872c-.719-.333-.943-.955-1.258-1.537a33.202 33.202 0 01-3.549-14.614c-.045-2.326-.225-4.734.225-7.059 0-.415.134-.789.404-1.079z" fill="#FC9538"/><path d="M20.944 163.034c.09-.083.135-.208.18-.291 1.213-4.276 3.37-8.179 5.75-11.999a55.226 55.226 0 016.56-8.428c1.213-1.329 2.426-2.657 3.55-4.069.269-.249.449-.54.583-.872 2.83 1.786 5.437 3.862 8.087 5.854-.674 1.121-1.797 1.786-2.65 2.741-3.684 4.152-6.335 8.802-8.492 13.701-1.437 3.197-2.965 6.394-4.223 9.674-.135.332-.225.664-.629.83-3.055-2.2-5.93-4.608-8.716-7.141zm100.233 1.993c.36.498.18 1.121.315 1.661.854 3.529 2.785 6.477 5.301 9.176l1.348 1.494c-3.864 4.609-9.03 7.557-14.781 9.716-1.348-.831-1.977-2.201-2.741-3.405a31.005 31.005 0 01-4.672-13.701c-.045-.374-.225-.748.135-1.121h.135c5.121.373 9.704-1.495 14.376-3.073a.768.768 0 00.584-.747zm-52.07-23.375c-.135 2.449.224 4.899.314 7.349 0 .705.225 1.245 1.078 1.411-2.83.914-5.616.457-8.401-.041-4.044-.706-6.919-3.073-9.704-5.647.269-.415.808-.415 1.212-.54.36-.083.72-.207 1.034-.415.314-.207.45-.581.27-.913-.18-.374-.54-.291-.9-.208-.538.083-1.032.291-1.572.415-.449.125-.853.333-1.303.042l-.224-.498c1.213-1.329 2.965-1.454 4.627-1.661 1.573-.166 1.932 0 4.898 1.37-1.618-1.619-3.64-1.91-5.886-1.661-1.438.166-2.74.706-4.043 1.163a3.872 3.872 0 01-.495-1.246c-.09-.332-.404-.581-.808-.581.09-.623.629-.415.988-.457.54-.041 1.078 0 1.617-.083.405-.083.764-.207.764-.664 0-.457-.45-.457-.854-.498-.584-.083-1.168.29-1.707-.125.989-1.536 2.561-2.076 4.358-1.993 1.842.125 3.595.831 4.942 2.076.764.664 1.528 1.287 2.292 1.952 2.201 1.868 4.627 2.491 7.502 1.453zm61.55-59.871c-3.594-1.91-6.874-4.36-9.614-7.266-.315-.332-.584-.664-.854-.955.09-.083.225-.166.27-.249.494-1.91 1.887-3.321 3.055-4.858 1.168-1.536 1.213-2.366.134-3.902-.494-.748-1.078-1.454-1.617-2.201-1.033-1.37-1.168-3.239.988-4.484a6.574 6.574 0 012.292-.83c2.246-.374 4.493-.79 6.784-.83l.135.124c-.09.747-.674 1.204-1.213 1.702-2.606 2.325-4.269 5.19-5.571 8.262a2.702 2.702 0 00-.045 1.786c-.764.996-1.528 1.993-2.337 2.948a5.22 5.22 0 00-1.303 2.781c-.089.291.045.623.315.748 2.112 1.577 4.223 3.197 6.38 4.816.404.332.898.581 1.348.83.224.125.494.166.628.332.854 1.121 2.292 1.537 3.415 2.367.404.25.674.706.584 1.163l-3.549-2.2c-.09-.042-.045-.209-.225-.084z" fill="#FC9538"/><path d="M224.466 107.025c.18 11.667-3.37 22.337-9.929 32.177-.18.249-.36.498-.584.747-.135.166-.36.208-.584.083-.18-.083-.27-.29-.225-.498.135-.457.36-.872.674-1.245a65.536 65.536 0 006.38-12.539c2.291-6.519 3.369-13.328 3.145-20.179a79.47 79.47 0 00-1.079-11.293 18.06 18.06 0 00-1.168-4.027c-.314-.789-.584-1.62-.898-2.408-.135-.29-.225-.623.179-.79.405-.165.629.126.719.458.764 2.076 1.797 4.069 2.157 6.269a81.625 81.625 0 011.213 13.245zM59.222 88.382a71.052 71.052 0 016.92-27.029 37.903 37.903 0 016.02-9.3c.18-.207.359-.415.584-.623.134-.166.449-.207.629-.083 0 0 .045 0 .045.042.224.166.27.415.09.623-.09.166-.225.332-.36.498-3.774 4.235-6.2 9.134-8.177 14.241a71.56 71.56 0 00-4.313 17.23c-.494 4.194-.764 8.387-.09 12.58l.27 1.37c.045.209-.09.375-.27.458-.224.083-.494 0-.584-.208v-.041a8.487 8.487 0 01-.314-.997 38.238 38.238 0 01-.45-8.76zm89.99-71.537c10.064.332 19.813 1.993 28.978 6.062.405.166.809.373 1.214.581.224.125.359.374.224.581a.538.538 0 01-.629.208 2.484 2.484 0 01-.719-.25c-7.278-3.32-15.05-4.982-23.047-5.853-7.009-.748-13.928-.042-20.802 1.37a33.09 33.09 0 00-4.493 1.453c-.224.083-.449.207-.674.249a.444.444 0 01-.449-.166c-.135-.166-.09-.374.045-.54.36-.29.719-.498 1.168-.623a33.09 33.09 0 018.042-2.117c3.729-.498 7.413-.997 11.142-.955z" fill="#010101"/><path d="M29.66 170.175a149.373 149.373 0 017.144-15.86 36.316 36.316 0 017.952-10.421c.224-.291.539-.498.898-.623.315.208.63.457.854.747-4.448 3.903-7.593 8.595-9.974 13.743-1.932 4.152-3.954 8.263-5.57 12.497-.09.25-.226.499-.45.706l-.854-.789zm12.13 8.221c.63-2.034 1.348-4.069 1.888-6.103 1.392-4.982 3.818-9.55 6.694-13.909 1.662-2.533 3.594-4.941 5.706-7.183.404.166.763.415 1.033.706a55.885 55.885 0 00-10.199 15.321c-1.572 3.446-2.516 7.141-3.684 10.67-.045.415-.224.83-.449 1.204-.36-.208-.719-.415-.988-.706zm14.198 7.142c.853-6.851 2.336-13.536 5.616-19.805a36.056 36.056 0 015.256-7.847c.404.124.764.29 1.078.54-.09.166-.18.332-.314.498-4.583 5.439-7.278 11.625-8.85 18.31a95.878 95.878 0 00-1.528 8.096c-.045.208-.09.457-.18.664-.36-.083-.764-.207-1.078-.456z" fill="#010000"/><path d="M71.757 190.063c-.27-.374-.18-.83-.18-1.246a58.118 58.118 0 013.64-18.683 70.34 70.34 0 012.965-7.1c.449.042.898.166 1.258.415-2.471 4.983-4.313 10.214-5.437 15.611a57.366 57.366 0 00-1.213 11.045l-1.033-.042zm18.735-23.292a65.491 65.491 0 00-.315 7.847c.09 4.442 1.034 8.802 2.696 12.995.54 1.163 1.123 2.325 1.797 3.447l-.853.124a.672.672 0 01-.63-.083 32.214 32.214 0 01-3.728-10.38 47.835 47.835 0 01-.36-13.161c.045-.332.045-.706.09-1.038.45-.042.899.041 1.303.249z" fill="#010101"/><path d="M234.529 95.939c.045 1.163-.045 2.367-.179 3.53-.045.207-.09.456-.135.663-.045.167-.225.25-.404.25-.225.041-.405-.083-.495-.291-.045-.374-.089-.747-.045-1.163a47.551 47.551 0 00-3.1-20.593c-.359-.955-.808-1.868-1.213-2.782-.089-.166-.179-.332-.269-.54a.371.371 0 01.18-.498.516.516 0 01.584.083c.314.29.539.665.674 1.08 1.482 3.155 2.605 6.435 3.279 9.798a43.626 43.626 0 011.123 10.463z" fill="#030303"/><path d="M106.037 168.888c.269 1.619.539 3.28.853 4.899.944 4.526 2.966 8.803 5.931 12.498.224.207.404.498.494.789l-1.078.373c-2.965-3.363-5.077-7.266-6.2-11.459-.629-2.325-1.078-4.692-1.258-7.058l1.258-.042z" fill="#020101"/><path d="M143.911 10.12c-.045.207-.27.373-.539.373-.405.041-.854.083-1.258.083-4.763.207-9.48.955-14.018 2.2-2.066.54-3.908 1.495-5.84 2.325-.36.167-.854.623-1.213.125-.36-.623.359-.747.763-.913 3.954-2.035 8.177-3.197 12.625-3.945 2.696-.415 5.391-.664 8.087-.872.359-.041.764 0 1.123.125.225.083.315.29.27.498zm22.688 19.347c5.481.166 10.648 1.287 15.41 3.82.45.249.899.54 1.348.83.225.125.315.374.18.582 0 0 0 .041-.045.041a.531.531 0 01-.674.166c-.314-.124-.584-.29-.899-.415-4.088-2.242-8.715-3.57-13.478-3.903-.808-.083-1.572-.083-2.381-.166-.359-.041-.809 0-.809-.498.045-.415.405-.415.764-.415.225-.083.404-.042.584-.042z" fill="#030303"/><path d="M71.892 62.89c0-.623.135-1.204.36-1.785 1.347-3.945 3.818-7.266 6.873-10.214.135-.125.27-.208.405-.29a.503.503 0 01.584 0c.224.124.27.373.18.58 0 0 0 .042-.045.042-.225.29-.45.54-.72.789-2.515 2.532-4.672 5.231-5.93 8.511a9.632 9.632 0 00-.674 2.2c-.044.333-.09.665-.539.665-.27 0-.449-.166-.494-.374v-.124z" fill="#050505"/><path d="M215.3 108.976c0 1.453-.134 2.865-.359 4.277 0 .083 0 .166-.045.249-.135.332-.09.872-.674.789-.539-.125-.449-.582-.404-.955.135-.955.225-1.91.359-2.865.405-3.322-.494-6.519-1.258-9.716-.045-.29-.134-.581-.179-.913a.433.433 0 01.359-.498.46.46 0 01.539.373c.18.54.27 1.038.404 1.578.629 2.533 1.393 5.065 1.258 7.681z" fill="#040404"/><path d="M67.13 90.459c.044-3.488.853-6.893 2.336-10.09.18-.373.314-.955.898-.747.584.207.27.789.09 1.204a27.652 27.652 0 00-2.156 7.556c-.135 1.205-.18 2.45-.135 3.696 0 .373.18.872-.45.872-.628 0-.538-.499-.538-.872-.045-.54-.045-1.08-.045-1.62zm-13.883.622c.315 0 .494.125.54.332.044.291.089.623.089.914 0 3.529.719 7.058 2.067 10.38.045.083.09.207.135.332.044.249 0 .456-.27.581-.225.083-.45 0-.54-.166-.179-.249-.314-.54-.449-.83a27.188 27.188 0 01-1.976-10.505c0-.249.045-.457.09-.664 0-.208.134-.332.314-.374z" fill="#050505"/><path d="M50.507 141.818a.672.672 0 01.359-.415c1.932-.789 3.953-1.329 6.065-1.08 1.258.125 2.426.623 3.415 1.37.27.208.494.415.674.706.18.166.18.457-.045.623-.225.166-.495.166-.674-.042l-.045-.041c-2.651-2.491-5.571-1.869-8.581-.706-.27.124-.54.249-.764.415a7.795 7.795 0 00-.404-.83z" fill="#050302"/><path d="M166.914 53.133c-.18.124-.315.207-.495.332-.314.124-.674.207-.898-.125-.225-.332.224-.456.269-.705 2.067-1.204 4.134-2.45 6.245-3.654.584-.332 1.258-.623 1.842-.955a.535.535 0 01.719.083l.045.041c.225.333 0 .499-.269.665-.27.166-.674.332-.989.54-2.156 1.328-4.313 2.532-6.469 3.778z" fill="#060606"/><path d="M51.136 143.063c.898-.249 1.797-.498 2.74-.747.944-.249 1.303-.083 1.483.415.18.581-.135 1.204-.72 1.453-.718.374-1.527.332-2.29.54-.674.166-1.393.125-2.067-.041-.54-.167-.63-.499-.225-.872.315-.249.674-.499 1.078-.748z" fill="#040303"/><path d="M149.167 49.147c-.449.415-.898.664-1.482.208 1.662-2.076 3.055-4.319 4.537-6.477.225-.374.405-1.038 1.034-.748.718.332.134.872-.135 1.287-1.348 1.952-2.651 3.861-3.954 5.73z" fill="#070606"/><path d="M208.516 130.525c-.044.124-.089.29-.134.415a49.594 49.594 0 01-2.696 6.062c-.225.373-.404.996-1.033.705-.629-.29-.135-.747.045-1.121 1.033-1.868 1.797-3.778 2.605-5.729.09-.208.18-.415.27-.665.09-.249.27-.415.584-.373.404.124.359.415.359.706z" fill="#070707"/><path d="M50.057 138.164a13.12 13.12 0 012.202-.208c.404.042.718.125.853.54.09.332 0 .706-.314.955-.36.249-.809.374-1.258.415-.764.125-1.573-.166-2.337.125a2.116 2.116 0 01-.718 0c-.315-.083-.72-.083-.72-.498 0-.333.225-.582.585-.665.54-.29 1.123-.456 1.707-.664z" fill="#040302"/><path d="M217.008 60.15c.314.705-.045 1.37-.135 2.034-.09.83-.314 1.66-.449 2.491-.225 1.163-.764 2.284-1.528 3.239-.18.207-.359.415-.584.622-.269.25-.629.54-.943.25-.315-.291.134-.582.359-.79a6.698 6.698 0 001.977-3.778c.225-1.328.494-2.657.764-3.985l.539-.083z" fill="#090603"/><path d="M78.182 32.373c0 1.495.135 2.99.449 4.484.135 1.163.899 2.2 2.067 2.74.36.167.988.333.719.79-.27.456-.72 0-1.079-.167-1.303-.581-2.246-1.702-2.426-3.03-.36-1.454-.494-2.99-.45-4.485 0-.249 0-.456.226-.622l.494.29z" fill="#070503"/><path d="M168.711 54.461c-1.034.54-1.034.54-1.753-.083.09-.332.495-.332.719-.58a48.322 48.322 0 004.268-1.91c.225-.125.45-.208.674-.333.225-.124.584-.166.764.083.18.25 0 .54-.225.664-.359.208-.718.416-1.078.582-1.123.581-2.246 1.08-3.369 1.577z" fill="#090808"/><path d="M151.504 49.313c-.27.208-.54.332-.854.415-.359.042-.674 0-.719-.415 1.078-1.038 2.202-2.076 3.28-3.114.269-.25.584-.457.898-.664a.448.448 0 01.584.041c.18.125.18.374.09.54l-.539.623c-.719.706-1.482 1.453-2.246 2.159-.135.166-.27.332-.494.415z" fill="#0B0A0A"/><path d="M154.424 49.23a4.03 4.03 0 01-1.707.664c-.54.042-.315-.29-.315-.54-.045-.124-.045-.166.135-.207 1.213-.623 2.336-1.329 3.459-2.076.135-.083.27-.208.405-.29.359-.208.718-.582 1.078-.125.359.456-.135.706-.449.913-.899.581-1.753 1.121-2.606 1.66z" fill="#090909"/><path d="M80.922 32.622c-.044.79.045 1.62.225 2.408.18 1.163.944 2.16 2.022 2.782l.404.25c.135.082.18.29.09.415-.09.124-.27.207-.404.166-.405-.125-.764-.291-1.079-.54-1.123-.872-1.842-2.118-1.976-3.488-.09-.623-.045-1.287-.09-1.951.27-.125.539-.125.808-.042z" fill="#0A0603"/><path d="M170.283 56.371c-.404-.041-.943.457-1.213-.083-.314-.664.584-.54.854-.872l2.381-.664c.224-.083.494-.125.719-.166.314-.083.629 0 .719.29.089.291-.135.416-.36.54-.269.125-.539.208-.809.291l-2.291.664z" fill="#0C0B0B"/><path d="M221.995 78.293c0 .166-.09.333-.225.457a.392.392 0 01-.539-.083 20.196 20.196 0 01-1.707-2.823.512.512 0 01.224-.623.474.474 0 01.629.166v.042c.539.871 1.079 1.743 1.573 2.615 0 .042.045.125.045.25z" fill="#101010"/><path d="M152.537 49.147c-.045.083-.09.125-.135.208l-.944-.042c.045-.208.225-.415.45-.457.135.208.404.25.629.291z" fill="#E3CFBC"/><path d="M93.232 191.06l.63.083c-.27.207-.45.124-.63-.083z" fill="#E2934B"/><path d="M140.946 190.146c.134 0 .224.125.179.249-.135-.041-.224-.124-.179-.249z" fill="#fff"/><path d="M146.741 198.99c.944.249 1.977.207 2.921-.083a66.589 66.589 0 009.434-2.907c.36-.166.764-.249 1.168-.415a16.716 16.716 0 00-1.347 4.069c-.045.208-.09.457-.135.664 0 .665.269.872.898.582 1.034-.499 2.112-.914 3.19-1.288 4.268-1.577 8.312-1.204 12.22.997.225.083.405.249.54.457a1.45 1.45 0 01-.899.29c-.809.083-.988.54-.809 1.204a.432.432 0 01-.224.249c-.989.166-1.887-.207-2.831-.249-.629-.083-1.258-.041-1.842.166 2.786 0 5.347 1.08 8.042 1.537.539 0 1.079.207 1.483.498.135.498-.18.913-.27 1.411-.494.167-.898-.124-1.303-.249a5.297 5.297 0 00-1.797-.332c-.179 0-.449 0-.494.249-.045.249.135.332.315.457.494.249 1.078.415 1.617.54.315.083.854-.042.854.54-2.561 1.121-5.302 1.287-8.087 1.162-1.618-.083-3.235-.291-4.852-.374a40.218 40.218 0 00-3.145 0c-4.268.125-8.267-.913-12.131-2.449-.269-.125-.539-.249-.764-.374-2.111-1.162-2.605-2.2-2.156-4.442a49.01 49.01 0 01.404-1.91z" fill="#FC9538"/><path d="M178.505 204.719c-1.348-.041-2.651-.29-3.909-.664a17.646 17.646 0 00-5.526-.872h-.494c-.225 0-.404-.166-.404-.374 0-.207.089-.373.314-.456.315-.125.629-.166.989-.125 1.437 0 2.92.166 4.313.457.359-.042.763.041 1.078.208l.314.124c.225.083.45.125.674.166.809.332 1.752.166 2.426.747.225.208.315.499.225.789z" fill="#060402"/><path d="M173.788 202.436c-.719-.831-.674-1.038.404-1.246.494-.083.988-.083 1.482-.124.629.29 1.348.29 2.022.456.719.125 1.438.416 2.022.872.225.166.404.332.27.582-.09.249-.405.373-.674.29h-.045a6.313 6.313 0 00-.854-.207c-.674.124-1.393.207-2.067.166-.179 0-.359-.042-.584-.042-.314 0-.629-.041-.898-.124-.315-.291-.854-.208-1.078-.623z" fill="#090705"/><path d="M177.427 207.252c-.54-.125-1.124-.249-1.663-.415-.314-.083-.629-.166-.943-.291-.449-.207-.899-.54-.764-1.038s.719-.332 1.168-.332c1.123.042 2.067.498 3.01.955.405.457 1.213.581 1.258 1.37-.719.125-1.348-.291-2.066-.249z" fill="#050403"/><path d="M176.348 202.934c.719 0 1.438-.125 2.112.125-.629.207-.135.581-.18.871a8.406 8.406 0 01-2.695-.581c-.18-.083-.405-.041-.54-.207-.044-.042-.134-.042-.179-.042-.09 0-.135-.041-.09-.083.045-.042.045-.083.045-.083h.988c.135.125.36.083.539 0z" fill="#DA8F4B"/><path d="M177.876 83.898c.404-.041.854.042 1.213.25 2.965 1.204 5.931 2.49 8.581 4.276.36.25.809.664 1.168.208.36-.457-.179-.748-.539-.997a30.463 30.463 0 00-5.391-2.948 2.77 2.77 0 01-1.078-.623l7.772-1.577c.18-.042.404-.042.674-.083.629 2.283 1.303 4.567 1.932 6.85.988 3.488 1.752 6.976 2.875 10.422.18.373.18.789 0 1.121-1.932 3.321-3.864 6.684-7.637 8.677a28.996 28.996 0 01-4.269 1.703c-3.863 1.204-7.772 2.325-11.591 3.695-1.797.623-2.471.415-3.594-1.038-.404-.498-.719-1.038-1.078-1.578-.18-.249-.405-.415-.719-.249-.315.166-.27.457-.09.706.674 1.121 1.348 2.242 2.516 2.989.359.208.539.54.539.914l.674 7.722c.539 5.896 1.033 11.792 1.572 17.646.045.498.09.996.225 1.495.09.539-.045.747-.674.83-6.155.872-12.4 1.329-18.6 1.329-.943 0-1.932-.042-2.875-.125a8.186 8.186 0 01-3.325-.872c-5.526-3.072-11.097-6.02-16.443-9.383a47.456 47.456 0 01-9.165-7.349c-1.708-1.744-2.876-3.778-3.954-5.854-.854-1.661-1.078-3.571-.539-5.315.898-3.28 1.393-6.684 1.527-10.089.045-1.785 0-3.571-.584-5.273-.224-.747-.629-1.412-1.123-2.034-1.662-2.076-3.639-3.82-6.29-4.858-5.121-2.035-8.985-5.44-12.04-9.674-1.887-2.616-3.999-5.066-5.571-7.847l-.584-1.08a2.95 2.95 0 011.168-.373c6.38-1.495 12.31-4.318 17.342-8.263.449-.332.943-.664 1.393-.996.449-.332 1.078-.706 1.617-.997.269 0 .359.166.404.291 1.707 3.03 3.954 5.73 6.11 8.47 2.382 3.072 5.571 5.314 8.896 7.432 2.067 1.328 4.268 2.45 6.2 3.903a13.943 13.943 0 014.493 5.065c.269.54.359 1.204.179 1.785-.179.79-.494 1.537-.898 2.284-1.707 2.99-4.088 5.605-6.919 7.722-.359.25-1.213.499-.674 1.121.449.499.899-.124 1.258-.373 2.291-1.619 4.313-3.57 5.931-5.771l.629-.83c.853.498 1.662.954 2.426 1.41 1.437.873 2.83 1.786 4.492 2.326.27.083.495.291.54.581.179.665.449 1.329.763 1.952.539.955.315 1.702-.224 2.574-3.325 5.522-5.841 11.335-8.357 17.189-1.527 3.529-.539 6.85 1.078 10.047.45.872.989.955 1.797.374.809-.581 1.618-1.245 2.382-1.868.629-.623 1.347-1.163 2.066-1.661 1.348-.789 1.842-1.951 1.887-3.363.18-6.519 1.303-12.996 1.932-19.473 0-.872.449-1.702 1.168-2.283.809-.623 1.303-1.495 1.842-2.325.18-.415.674-.665 1.168-.623 5.347.374 9.974-1.495 14.467-3.861.494-.208.854-.665.899-1.204.224-.79.089-1.62.134-2.409-.045-.332.18-.664.54-.788a16.683 16.683 0 005.66-3.239c.719.166.854.789 1.079 1.329a29.35 29.35 0 012.381 6.892c0 .374.224.747.584.955-.225-1.66-.674-3.322-1.258-4.94a41.649 41.649 0 00-1.707-3.82c-.18-.374-.539-.706-.27-1.163 0-.457.27-.914.719-1.163.854.166 1.123.955 1.662 1.453.36.374.584.83 1.123 1.08-.359-.83-.943-1.62-1.617-2.284-.404-.415-.988-.747-.809-1.453l.629-.664c1.213.083 1.842.955 2.696 1.536.584.415.988 1.038 1.752 1.246-.809-1.204-2.022-2.076-3.19-2.907-.359-.249-.943-.373-.943-.996l-.135-.913z" fill="#fff"/><path d="M162.6 68.121c2.067 0 3.909.623 5.796 1.246 2.651.872 3.594 2.948 4.583 5.023.314.623.224 1.33-.225 1.869-.314.332-.225.706-.18 1.08.09 1.619.225 3.28-.224 4.857-.719 2.74-2.292 4.775-5.481 5.398-.315.041-.584.083-.629.456-.045.374-.09.83-.629.83-.54 0-.405-.58-.674-.913l-2.606 2.492a3.17 3.17 0 01-2.92.954c-.899-.166-1.842-.124-2.696-.456-.988-.374-1.168-.706-.674-1.578.719-1.412.854-3.03.315-4.526-.135-.415-.315-.664-.854-.705-1.932-.042-3.549-.872-4.942-1.993-.494-.416-.899-.457-1.393-.042-.674.54-1.438 1.08-2.156 1.62-.315.207-.45.58-.225.913 1.033 2.076 2.157 4.11 3.819 5.813 1.797 1.785 4.223 2.242 6.784 2.159a9.223 9.223 0 001.482-.25c.36-.083.719-.124.854.25.18.456-.225.622-.584.705a9.404 9.404 0 01-3.729.25c-2.965-.291-5.616-1.869-7.098-4.235a32.329 32.329 0 01-2.516-4.319c-.45.25-.854.582-1.124.997-.224.249-.404.498-.629.747a.53.53 0 01-.673.166c-.315-.166-.27-.456-.135-.706a6.146 6.146 0 011.437-1.743.93.93 0 00.27-1.329c-.899-1.744-1.887-3.446-2.92-5.148-.315-.499-.629-.499-1.124-.332a34.556 34.556 0 00-6.065 2.45c-.224.124-.449.248-.674.331-.314.166-.718.416-.988 0-.27-.415.18-.622.449-.83.809-.498 1.618-.955 2.516-1.287 1.528-.664 3.1-1.163 4.762-1.744-.763-.955-1.572-1.66-2.875-1.66-.314 0-.674-.042-.988-.042-.45-.042-1.079.166-1.034-.498.045-.665.674-.416 1.124-.416h2.246c1.752-.041 3.504.083 5.256-.249a16.018 16.018 0 004.718-1.744c-.944-.332-1.887-.54-2.92-.58-.764-.084-1.483-.084-2.247-.167-.269 0-.494-.124-.539-.374-.045-.249.225-.373.449-.456.629-.166 1.258-.166 1.887-.083 1.303.083 2.561.332 3.819.664.629.208 1.348.124 1.842-.29a15.04 15.04 0 016.065-2.45c.495-.125.989-.166 1.483-.125a11.764 11.764 0 013.414 0z" fill="#000"/><path d="M125.401 68.121c-.629-.373-.629-.872-.405-1.495 1.348-3.446 3.235-6.56 6.11-9.134.405-.332.719-.747 1.079-1.12.449-.042.763.165 1.258.456-3.28 2.616-5.796 5.896-7.413 9.59.134.208.269.208.359.167 3.459-1.412 7.054-1.412 10.693-.872.898.125 1.842.208 2.74.374.629.124 1.258 0 1.753-.415a26.13 26.13 0 001.662-1.412c.719-.706 1.662-1.204 2.651-1.495 1.931-.623 4.088.29 4.807 2.076.764 1.62.494 2.118-1.348 2.533a17.78 17.78 0 01-6.11.166c-1.842-.25-3.729-.498-5.571-.789-4.223-.664-8.357-.54-12.265 1.37z" fill="#010000"/><path d="M167.542 93.697c0 .332.045.706.045 1.038 0 1.785 0 1.785-1.752 2.616a39.982 39.982 0 01-6.11 2.366c-1.977.623-3.998.706-6.065.706-.494.042-.899-.249-.989-.706l-.808-2.45c.09-.622.674-.498 1.078-.498 1.617-.083 3.235-.373 4.852-.456a25.445 25.445 0 009.749-2.616z" fill="#fff"/><path d="M148.089 96.603c-.269.748-.719 1.454-1.303 2.076-.539.623-.853.706-1.617.374a27.864 27.864 0 01-2.516-1.246c-1.078-.58-2.067-1.287-3.145-1.868-.494-.29-.764-.54-.359-1.08a8.087 8.087 0 001.078-2.823l2.83 1.869a20.125 20.125 0 004.044 2.034c.359.166.853.25.988.664zm2.561.208c.314 1.038.674 2.076.988 3.114.09.291.225.581 0 .872-.763.996-1.347 2.117-2.336 2.989-.764.706-.898.664-1.348-.249-.179-.374-.314-.789-.494-1.162-.629-1.205-1.078-2.284.404-3.322.764-.54 1.079-1.536 1.393-2.408.494-.042.944.041 1.393.166z" fill="#FEFEFE"/><path d="M171.002 66.917c-.135 2.076-.494 2.699-2.651 1.744-.629-.29-1.302-.498-2.021-.54-.45 0-.764-.332-.764-.747 0-.083 0-.166.045-.25a4.497 4.497 0 011.797-2.573c.899-.665 2.201-.54 2.965.29.225.25.405.581.449.913.09.457.09.872.18 1.163z" fill="#020101"/><path d="M175.764 89.088a29.759 29.759 0 013.46 8.76c.09.375.135.748.135 1.163 0 .291-.135.54-.495.54a.477.477 0 01-.494-.415c-.09-.374-.135-.747-.224-1.121a28.819 28.819 0 00-3.145-8.138l-1.708-2.532c-.179-.291-.359-.582.045-.83.405-.25.629.04.809.331l1.617 2.242z" fill="#040404"/><path d="M154.514 53.963c0 .25-.18.415-.405.415h-.18c-.224-.041-.449-.166-.673-.29a10.926 10.926 0 01-1.348-1.038c-.764-.83-2.022-1.08-3.055-.623l-3.1 1.245c-.18.084-.36.167-.539.291-.315.125-.674.25-.854-.124-.18-.291.09-.54.359-.665 1.573-.788 3.145-1.577 4.942-1.91a3.02 3.02 0 012.382.54c.763.54 1.482 1.121 2.246 1.703.09.041.225.249.225.456z" fill="#050302"/><path d="M177.741 85.02c1.348.996 2.786 1.826 3.954 2.947.269.25.494.499.719.79.134.165.089.373-.045.539a.392.392 0 01-.539.083 6.408 6.408 0 01-.854-.664 26.522 26.522 0 00-3.504-2.616 13.694 13.694 0 00-3.055-1.495c-.315-.083-.585-.249-.495-.54.09-.29.45-.415.809-.332.854.208 1.572.665 2.381.997.225.041.405.166.629.29z" fill="#060505"/><path d="M165.341 55.79c.944-.042 1.842.415 2.291 1.163.27.373.674.705 1.124.913.314.166.584.374.359.747-.225.374-.584.25-.899.125a2.615 2.615 0 01-1.347-.997c-.54-.913-1.393-1.038-2.337-.913-.584.124-1.123.25-1.662.457-.359.124-.764.29-.943-.166-.135-.374.224-.54.539-.665.853-.415 1.842-.623 2.875-.664z" fill="#080503"/><path d="M176.842 86.722c.405.747 1.124 1.204 1.618 1.868.314.457.719.872.988 1.329.225.332.719.747.18 1.08-.539.332-.809-.208-1.033-.54a19.35 19.35 0 00-2.157-2.533c-.539-.581-1.168-1.121-1.797-1.62-.225-.165-.449-.415-.18-.705.27-.29.629-.208.854.041.494.457.898.914 1.527 1.08z" fill="#070605"/><path d="M167.767 62.267c.629.041 1.258-.042 1.842.25.27.124.494.331.36.663-.09.208-.405.333-.629.25a4.075 4.075 0 00-1.213-.167 4.608 4.608 0 00-2.966.665c-.269.166-.584.249-.763 0-.18-.25-.045-.581.269-.79.809-.622 1.977-.913 3.1-.871z" fill="#080503"/><path d="M146.921 61.229c-.135 0-.225.042-.359.042-.36.083-.809.166-.854-.333-.045-.373.314-.498.629-.58a4.378 4.378 0 013.37.788c.269.125.359.457.179.664v.042c-.18.29-.494.207-.764.041-.629-.415-1.392-.622-2.201-.664z" fill="#0B0704"/><path d="M173.788 165.982c0 5.231-1.483 10.38-4.313 14.947-1.932 3.072-3.864 6.145-6.066 9.051a23.632 23.632 0 00-2.156 3.28c-.315.664-.944 1.204-1.662 1.495a65.694 65.694 0 01-10.783 3.321c-1.438.291-1.932.042-2.606-1.204-.494-.913-.943-1.785-1.438-2.698-1.842-3.571-4.358-6.81-7.368-9.591-3.324-3.031-6.559-6.062-9.659-9.301-2.291-2.408-4.178-5.024-4.942-8.221-.36-1.494-.674-3.03-1.033-4.525-.09-.457.179-.54.494-.664.943-.333 1.887-.665 2.785-.997a2.55 2.55 0 00.764-.374c.18-.083.27-.332.18-.498a.557.557 0 00-.494-.29c-.405 0-.809.124-1.213.29-2.112.706-4.179 1.661-6.38 2.118-5.167 1.079-10.109.664-14.691-2.076-4.089-2.45-8.132-4.983-12.58-6.934a36.846 36.846 0 00-13.03-3.155c-2.02-.125-3.998-.25-6.02-.374-1.078-.083-1.168-.166-1.212-1.08-.135-1.826-.18-3.612-.315-5.439-.135-.955.36-1.868 1.258-2.325 1.213-.664 2.156-1.744 3.01-2.781a53.673 53.673 0 004.762-7.059c1.573-2.74 3.19-5.522 5.257-8.013 1.617-1.951 3.46-3.737 5.526-5.231a16.785 16.785 0 018.177-2.948c2.965-.332 2.291-.332 4.088 1.578.944.996 1.707 2.075 2.561 3.155a44.803 44.803 0 003.954 4.152c1.213 1.287 3.1 1.827 4.897 1.495.764-.125 1.572-.125 2.381-.208.404-.083.809.083.988.415 2.202 3.529 5.347 6.187 8.761 8.678 4.179 3.031 8.761 5.522 13.299 8.096 1.932 1.079 3.908 2.076 5.795 3.197s3.954 1.412 6.111 1.412a131.02 131.02 0 0011.411-.374c1.213-.083 1.168-.083 1.528.955.494 1.411.853 2.906.988 4.401.09 1.536.989 2.948 2.426 3.737 1.618 1.038 3.055 2.283 4.628 3.363.808.498 1.303 1.328 1.348 2.2.404 1.702.539 3.363.584 5.024zM111.159 61.727c.449.83.449 1.703.943 2.408.18.291-.045.416-.224.582-6.425 4.816-13.299 8.926-21.61 10.421-.315.041-.72.374-1.034-.041a2.36 2.36 0 01-.494-1.412c.045-.332.404-.332.719-.374 1.932-.332 3.729-1.08 5.57-1.744a25.575 25.575 0 005.347-2.74c2.831-1.868 5.841-3.446 8.581-5.397.674-.582 1.393-1.121 2.202-1.703z" fill="#fff"/><path d="M172.574 157.969c-.494-.374-.988-.706-1.437-1.08a26.803 26.803 0 00-2.786-1.993c-1.392-.83-2.291-1.91-2.426-3.57a16.59 16.59 0 00-1.033-4.401 2.19 2.19 0 01-.135-.748l6.02-.747c.405 4.193 1.168 8.304 1.797 12.539z" fill="#fff"/><path d="M193.151 79.996c.315 1.038.629 2.034.944 3.03 1.437 4.526 2.74 9.093 3.684 13.702.224 1.038.314 2.076.539 3.072.135.333-.045.706-.36.914-.359.249-.718.498-1.213.83-.449-1.536-.898-2.99-1.303-4.442-1.302-4.817-2.56-9.674-4.043-14.449-.135-.415-.314-.789-.449-1.204-.27-.789-.135-.955.674-1.121.449-.125.898-.208 1.527-.332zm-76.961 43.969c-1.258.083-2.291.124-3.324.29-1.078.125-2.202-.207-2.965-.996-1.213-1.038-2.337-2.201-3.415-3.363-1.303-1.495-2.426-3.156-3.819-4.609.539-.166.899.125 1.258.249 1.393.581 2.786 1.246 4.134 1.91 1.886.955 3.773 1.993 5.975 2.325.225.042.449.208.494.415.539 1.204 1.078 2.408 1.662 3.779zm29.967 1.328c-.09.581-.135.955-.18 1.287-.224 1.495-.719 1.786-2.291 1.703-1.572-.083-3.055-.374-4.583-.54a.802.802 0 01-.808-.706 7.005 7.005 0 01.135-2.74c.089-.415.359-.54.808-.457 2.022.291 4.044.54 6.065.789.674.083 1.034.249.854.664zm-7.054-2.533a25.526 25.526 0 011.573-3.819c.135-.291.404-.249.629-.249 1.617.249 3.19.456 4.807.705.225 0 .36.167.36.374-.09 1.163-.18 2.325-.27 3.446-.045.332-.315.332-.584.291l-6.515-.748z" fill="#FEFEFE"/><path d="M141.305 117.654c.27-1.038.809-1.869 1.168-2.741.135-.29.36-.373.719-.332 1.033.125 2.067.291 3.1.374.539.041.719.249.674.747-.09.706-.18 1.453-.27 2.201-.045.415-.269.456-.674.415-1.527-.125-3.055-.374-4.717-.664zm1.887-4.111a32.015 32.015 0 011.438-3.114c.089-.166.179-.332.449-.373.764 0 1.483.083 2.201.249.27.041.225.29.225.456l-.27 2.741c-.044.373-.269.415-.629.373-1.123-.041-2.246-.166-3.414-.332zm-4.538 15.155l4.763.664c-1.034.996-2.157 1.951-3.37 2.782-.629-1.038-1.078-2.242-1.393-3.446zm6.739-19.639c.495-1.412 1.348-2.574 2.022-3.778.045-.083.135-.208.27-.166.135.041.269.124.404.249.045.083.09.208.045.332-.225 1.163-.09 2.367-.494 3.612l-2.247-.249z" fill="#fff"/><path d="M130.657 81.781c.225-.166.225 0 .225.125l-.225-.125z" fill="#E2934B"/><path d="M174.821 202.934c.045.042.045.083.045.166-.36-.083-.764-.083-1.078-.374v-.249c.314.166.808.083 1.033.457zm.225.208a.534.534 0 01.539.207c-.18.042-.405-.041-.539-.207zm1.302-.208c-.089.125-.314.166-.449.083-.045 0-.045-.041-.09-.083h.539z" fill="#664222"/><path d="M165.341 114.166c.27.042.494.208.584.415a13.387 13.387 0 011.752 4.401.484.484 0 01-.314.623h-.045c-.359.083-.539-.125-.629-.415-.09-.291-.135-.54-.225-.789-.314-1.204-.763-2.367-1.437-3.405-.135-.207-.27-.498 0-.747.135-.041.224-.083.314-.083z" fill="#0A0A0A"/><path d="M121.043 106.153c-.494.041-.989-.042-1.483-.166-.225-.083-.449-.208-.449-.499.045-.373.359-.415.629-.373a7.141 7.141 0 003.1-.166c.404-.125.764-.249 1.168-.374.269-.125.584-.041.719.208.135.332-.09.539-.36.622a6.6 6.6 0 01-3.324.748z" fill="#0C0C0C"/><path d="M152.312 71.526c1.168-.872 2.516-1.495 3.954-1.952a1.24 1.24 0 01.943.125c3.774 1.412 6.47 3.778 7.908 7.307.269.665.449 1.412.943 1.993.225.29.225.665.045.997-.135.373-.315.706-.449 1.08-.135.248-.225.539.134.705.405.208.629-.041.809-.332.27-.457.449-.914.584-1.412a1 1 0 01.809-.872c1.258-.332 2.246-1.204 3.325-1.785.404.166.269.457.269.706.045 1.038.045 2.076-.09 3.114-.179 1.578-.988 3.072-2.246 4.193-.629.623-1.483 1.038-2.381 1.204-.495.083-.854.083-.854-.456a.734.734 0 00-.09-.333c-.584-1.91-1.842-2.823-4.043-2.823-1.079 0-2.157.042-3.235.166-2.606.332-5.122.166-7.188-1.495-.135-.124-.36-.207-.405-.498a9.177 9.177 0 012.831-1.08c1.123-.29 2.291-.498 3.414-.788.27-.042.584-.125.854-.208.179-.041.269-.207.269-.373 0-.208-.179-.374-.404-.416-.225-.041-.404 0-.629.042-2.157.374-4.358.789-6.38 1.66-.988.416-.988.416-1.617-.332-.135-.166-.225-.29-.404-.456.314-.415.808-.415 1.213-.498 1.437-.333 2.92-.623 4.402-.955.225-.042.405-.042.629-.125.27-.083.54-.249.45-.581-.09-.29-.36-.332-.584-.29-.27 0-.495.04-.764.082-1.842.29-3.684.706-5.481 1.163-.45.207-1.034.083-1.258-.374-.315-.457-.809-.789-1.034-1.287.225-.25.54-.25.809-.29a26.361 26.361 0 017.233-.25c.27.042.585.042.899.042.225 0 .449-.042.494-.29.09-.25-.09-.458-.359-.54-.225-.042-.494-.084-.719-.125a25.62 25.62 0 00-8.716.374c-.449.166-.988 0-1.213-.457.18-.25.494-.208.719-.29a18.708 18.708 0 004.448-1.828 1.74 1.74 0 011.617-.166c2.426.83 4.762 1.661 6.604 3.446.225.208.45.374.764.125.225-.208.225-.498 0-.706a6.312 6.312 0 00-.988-.872c-1.438-1.038-3.01-1.827-4.673-2.408-.404-.166-.808-.208-1.168-.581z" fill="#FC9538"/><path d="M156.94 90.002c.988-1.952.943-3.778.269-5.771 1.528-.083 2.921-.374 4.448-.25-.045 1.578-.539 3.073-1.393 4.402-.224.332-.853.788-.179 1.162.584.29.808-.332 1.078-.706a8.16 8.16 0 001.438-4.152c.044-.706.224-.788.898-.498 1.168.54 1.528 1.578.809 2.657-.854 1.287-2.022 2.242-3.145 3.239-.225.208-.494.29-.809.29-1.168.084-2.336-.083-3.414-.373z" fill="#fff"/><path d="M142.788 77.255a.767.767 0 01.224-.166c2.381-.747 2.471-.747 3.909 1.412-.404.29-.809.54-1.168.83-.225.125-.315.416-.18.623.18.29.449.29.764.125l.224-.125c1.214-.581 1.708-.457 2.337.665.134.207.134.373-.045.498-.899.623-1.752 1.287-2.651 1.91l-.225-.208c-.988-1.951-2.066-3.778-3.189-5.564zm1.347-1.619c-2.516.872-2.021.748-3.189-.664 1.168-.083 2.246-.374 3.189.664z" fill="#FC9538"/><path d="M142.428 66.419c1.663-1.37 2.876-3.072 5.616-2.699-.988.79-1.482 1.578-1.438 2.616.045.415-.314.415-.584.415-1.213 0-2.426-.125-3.594-.332zm25.609-1.08c-.449.333-.809.748-1.123 1.204-.135.208-.36.499.09.623.314.083.673.208.763-.29.045-.499.36-.955.764-1.287.225-.125.449-.166.539-.457a1.035 1.035 0 00-1.033.207z" fill="#fff"/><path d="M62.367 115.37c.135.208.27.374.36.54.224.332.314.706.314 1.121 0 .249.09.332.36.373.718.042 1.437.167 2.201.25.225.041.54 0 .584.332 0 .207-.225.29-.674.249-.763-.083-1.482-.166-2.246-.249-.27-.083-.494.041-.63.249-.448.623-1.077 1.079-1.841 1.37a7.157 7.157 0 01-3.505.54c0 .207.18.29.27.415.899.955 1.797 1.91 2.606 2.948.18.249.36.498.539.789.09.124.09.332-.09.415h-.045c-.18.124-.314 0-.45-.166-1.122-1.661-2.56-3.031-3.908-4.484-.045-.042-.09-.125-.135-.166-.09-.083-.09-.25-.044-.374.09-.125.224-.166.359-.166.135 0 .27.041.404.083 1.483.291 3.055 0 4.358-.747.36-.167.63-.416.854-.748-.09-.207-.27-.124-.405-.166-1.212-.083-2.47-.124-3.684-.207-.224 0-.494.041-.494-.25 0-.29.315-.29.495-.29.628 0 1.212.041 1.841.083.764.041 1.483.083 2.247.124.314.042.36-.083.36-.332-.09-.872-.81-1.619-1.708-1.785-1.258-.166-2.56-.249-3.864-.374-.853-.083-1.707-.083-2.56-.124-.135 0-.225 0-.36-.042-.09 0-.18-.083-.18-.207 0-.125.045-.208.18-.25.135-.041.315-.041.45-.041 3.369.083 6.783.415 10.108.913.45.042.629.166.54.374-.09.332-.405.249-.63.208-.584 0-1.258-.166-1.977-.208zm43.4-95.91c.135.208.27.374.36.54.224.333.314.706.314 1.121 0 .25.09.333.36.374.718.042 1.482.166 2.201.25.225.04.539 0 .584.331 0 .208-.225.291-.674.208-.764-.083-1.482-.166-2.246-.25-.27-.082-.494.042-.629.25-.449.623-1.078 1.08-1.842 1.37a7.157 7.157 0 01-3.505.54c0 .207.18.29.27.415.899.955 1.797 1.91 2.606 2.948.18.249.359.498.539.789.09.124.045.332-.09.415-.18.125-.359 0-.449-.166-1.123-1.62-2.561-3.031-3.909-4.484-.045-.042-.09-.125-.18-.166-.09-.083-.09-.25-.044-.374.09-.125.224-.166.359-.125.135 0 .269.042.404.083a6.364 6.364 0 004.358-.705c.36-.166.629-.416.854-.748-.09-.207-.27-.124-.405-.166-1.213-.083-2.471-.124-3.684-.207-.224 0-.494.041-.494-.25 0-.29.27-.29.494-.29.629 0 1.213.041 1.842.083.764.042 1.528.083 2.247.125.314.041.404-.083.404-.333-.09-.872-.809-1.619-1.752-1.785-1.258-.166-2.561-.249-3.864-.374-.853-.083-1.707-.083-2.56-.124-.135 0-.225 0-.36-.042-.09 0-.18-.083-.18-.207 0-.125.045-.208.18-.25.135-.04.314-.04.45-.04 3.369.082 6.783.414 10.108.912.449.042.629.167.539.374-.09.332-.404.25-.629.208-.584-.083-1.258-.208-1.977-.25zm99.2 17.937c.135.208.27.374.36.54.224.332.314.706.314 1.12 0 .25.09.333.359.374.719.083 1.438.166 2.202.25.225.041.539 0 .584.332 0 .207-.225.29-.674.249-.764-.083-1.483-.166-2.246-.25-.27-.082-.495.042-.629.25-.45.623-1.079 1.08-1.842 1.37a7.159 7.159 0 01-3.505.54c0 .207.18.29.27.415.898.955 1.797 1.91 2.606 2.948.179.249.359.498.539.789.09.124.09.332-.09.415h-.045c-.225.124-.314 0-.449-.166-1.123-1.62-2.561-3.031-3.909-4.484-.045-.042-.09-.125-.18-.166-.089-.084-.089-.25-.045-.374.09-.125.225-.166.36-.125.135 0 .269.042.404.083 1.483.291 3.055 0 4.313-.747.36-.166.629-.415.854-.747-.09-.208-.27-.125-.404-.166-1.214-.084-2.471-.125-3.685-.208-.224 0-.494.041-.494-.25 0-.29.27-.29.494-.29.629 0 1.214.042 1.842.083.764.042 1.528.083 2.247.125.314.041.404-.083.404-.332-.09-.872-.808-1.62-1.752-1.786a59.36 59.36 0 00-3.819-.373c-.853-.083-1.707-.083-2.561-.125-.134 0-.224 0-.359-.041-.09 0-.18-.083-.18-.208 0-.124.045-.208.18-.25.135-.04.314-.04.449-.04 3.415.082 6.784.415 10.154.913.449.041.629.166.539.373-.09.333-.404.25-.629.208a14.13 14.13 0 00-1.977-.249zm-7.188 115.091c.135.208.269.374.359.54.225.332.315.706.315 1.121 0 .249.09.332.359.374.719.041 1.438.166 2.202.249.224.041.539 0 .584.332 0 .207-.225.291-.674.249-.764-.083-1.483-.166-2.247-.249-.269-.042-.494.041-.629.249-.449.623-1.078 1.079-1.842 1.37a7.155 7.155 0 01-3.504.54c0 .207.18.29.269.415.899.955 1.798 1.91 2.606 2.948.18.249.36.498.539.789.09.124.045.332-.089.415-.225.125-.315 0-.45-.166-1.123-1.619-2.561-3.031-3.908-4.484-.045-.042-.09-.125-.18-.166-.09-.083-.09-.249-.045-.374a.37.37 0 01.359-.083c.135 0 .27.042.405.083 1.482.291 3.055.042 4.313-.747a2.04 2.04 0 00.853-.748c-.089-.207-.269-.124-.404-.166-1.213-.083-2.471-.124-3.684-.207-.225 0-.494.041-.494-.249 0-.291.269-.291.494-.291.629 0 1.213.041 1.842.083.764.042 1.528.083 2.246.125.315 0 .405-.083.405-.333-.09-.871-.809-1.619-1.752-1.785-1.258-.166-2.561-.249-3.864-.374-.854-.083-1.707-.083-2.561-.124-.135 0-.225 0-.359-.042-.09 0-.18-.083-.18-.207 0-.125.045-.208.18-.249.134-.042.314-.042.449-.042 3.414.083 6.784.374 10.153.914.45.041.629.166.54.373-.09.332-.405.249-.629.208-.585-.166-1.258-.249-1.977-.291z" fill="#010000"/></g><defs><clipPath id="clip0"><path fill="#fff" transform="translate(10.274 9.496)" d="M0 0h226.165v209.008H0z"/></clipPath></defs></svg>