<svg width="20" height="20" fill="none" xmlns="http://www.w3.org/2000/svg"><path d="M16.562.293H3.438A3.145 3.145 0 00.293 3.438v13.124a3.145 3.145 0 003.145 3.145h13.124a3.145 3.145 0 003.145-3.145V3.438A3.145 3.145 0 0016.562.293z" fill="#F87E0F"/><path d="M11.157.293h-7.72A3.145 3.145 0 00.294 3.438v13.124a3.145 3.145 0 003.145 3.145h4.05C4.3 15.885 5.5 8.821 7.907 6.066c2.324-2.661 3.034-4.791 3.249-5.773z" fill="#9AD880"/><path d="M9.146 14.788c-.399 0-.784-.152-1.074-.428L3.98 10.487a1.563 1.563 0 012.149-2.27l2.927 2.772 4.727-5.26a1.563 1.563 0 012.324 2.09l-5.8 6.451a1.562 1.562 0 01-1.161.518z" fill="#fff"/><path d="M6.129 8.218a1.563 1.563 0 00-2.149 2.27l1.66 1.57c.135-1.25.43-2.454.84-3.508l-.351-.332z" fill="#CCF8FF"/><path d="M19.707 14.805a.293.293 0 00.293-.293V3.438A3.442 3.442 0 0016.562 0H3.438A3.442 3.442 0 000 3.438v13.124A3.442 3.442 0 003.438 20h13.124A3.442 3.442 0 0020 16.562v-.801a.293.293 0 10-.586 0v.801a2.855 2.855 0 01-2.852 2.852H3.438a2.855 2.855 0 01-2.852-2.852V3.438A2.855 2.855 0 013.438.586h13.124a2.855 2.855 0 012.852 2.852v11.074c0 .162.131.293.293.293z" fill="#000"/><path d="M5.927 8.43l.824.78a.293.293 0 10.403-.425l-.824-.78a1.858 1.858 0 00-2.623.072A1.858 1.858 0 003.78 10.7l4.091 3.873c.346.328.79.507 1.35.507.498 0 .973-.244 1.306-.614l5.8-6.451a1.858 1.858 0 00-.14-2.62 1.858 1.858 0 00-2.62.139l-4.527 5.035-.963-.91a.293.293 0 10-.402.425l1.18 1.117c.113.1.288.12.42-.017L14 5.926a1.271 1.271 0 011.793-.096c.52.468.563 1.273.095 1.793l-5.799 6.451a1.266 1.266 0 01-1.817.073l-4.091-3.872a1.271 1.271 0 01-.05-1.795 1.271 1.271 0 011.795-.05z" fill="#000"/></svg>