<svg width="30" height="30" fill="none" xmlns="http://www.w3.org/2000/svg"><g clip-path="url(#clip0)"><path d="M29.719 12.633a.858.858 0 00-.843-.697H15.341a.857.857 0 00-.857.858v5.145c0 .473.384.857.857.857h6.913a7.886 7.886 0 01-2.166 2.667.856.856 0 00-.21.154l-.019.02a7.646 7.646 0 01-4.518 1.503c-4.301 0-7.774-3.504-7.774-7.774 0-4.271 3.474-7.774 7.774-7.774 1.633 0 3.233.554 4.628 1.602a.857.857 0 001.121-.079l3.66-3.659a.858.858 0 00-.056-1.263C22.032 1.96 18.71.732 15.342.732 11.454.732 7.784 2.26 5.01 5.035 2.235 7.809.707 11.478.707 15.366s1.528 7.557 4.303 10.332C7.785 28.472 11.454 30 15.342 30c3.887 0 7.556-1.528 10.33-4.302 2.776-2.775 4.304-6.444 4.304-10.332 0-.918-.087-1.838-.257-2.733zM15.34 2.447c2.663 0 5.297.875 7.51 2.482l-2.466 2.466C18.84 6.4 17.11 5.877 15.34 5.877c-2.515 0-4.893.992-6.695 2.794a9.636 9.636 0 00-1.679 2.253l-2.51-2.51c2.298-3.586 6.318-5.967 10.884-5.967zM3.6 9.98l2.656 2.656a9.392 9.392 0 00-.403 2.73c0 .935.138 1.852.403 2.728L3.6 20.75a12.843 12.843 0 01-1.177-5.385c0-1.92.422-3.745 1.177-5.385zm.858 12.338l2.51-2.51a9.636 9.636 0 001.68 2.252c1.801 1.802 4.179 2.794 6.694 2.794 1.81 0 3.546-.516 5.063-1.5l2.487 2.488a12.85 12.85 0 01-7.55 2.442c-4.566 0-8.586-2.38-10.884-5.966zm19.76 2.425l-2.455-2.455a9.655 9.655 0 002.578-4.093.857.857 0 00-.818-1.115h-7.323v-3.43h11.948a12.884 12.884 0 01-3.93 11.093z" fill="#F87E0F"/></g><defs><clipPath id="clip0"><path fill="#fff" transform="translate(.707 .732)" d="M0 0h29.268v29.268H0z"/></clipPath></defs></svg>