<svg width="988" height="570" fill="none" xmlns="http://www.w3.org/2000/svg"><path d="M499.235 569.684c54.572 0 98.811-10.809 98.811-24.142S553.807 521.4 499.235 521.4c-54.571 0-98.81 10.809-98.81 24.142s44.239 24.142 98.81 24.142z" fill="#F87E0F"/><path d="M465.185 527.552l-.105-.839c.836-1.584.418-3.169.209-4.847-.522-4.94-1.776-9.694-2.507-14.541-.835-5.126-1.776-10.16-2.507-15.286-.104-1.119-.835-2.144-2.089-2.517-8.356-3.449-15.876-8.296-22.039-14.355-11.803-10.812-20.89-23.769-26.844-37.843-.313-.746-.731-1.492-1.149-2.237-2.193-1.678-2.506-4.102-3.238-6.339-.522-1.491-.626-2.517-3.029-2.61-2.402-.093-2.924-2.423-3.447-4.194.105-.932 0-1.958-.313-2.89 0-.466 0-.932-.104-1.491.104.559 0 1.025.104 1.398v.28c.209.652.313 1.305.209 1.957-1.149 9.321-1.567 18.735-1.358 28.15.105 2.889.836 5.686.522 8.575-.104 1.026 0 2.237-1.462 2.703-1.462.466-2.507-.372-3.238-1.305-1.149-1.398-1.984-2.889-2.716-4.567-2.298-5.033-3.969-10.253-4.909-15.566 0-.932-.104-1.771-.209-2.703 0-.373-.104-.746-.104-1.026 0-.279 0-.652.104-.932-.104.28-.104.653-.104.932v1.119c.209.466.209 1.025.209 1.491.104 5.034-.731 10.067.209 15.194.522 2.796 1.044 5.592 1.775 8.389.209.745.418 1.398.523 2.144.104.838.104 1.771-1.045 2.05-1.149.28-1.671-.466-2.089-1.212-.522-.932-.94-1.957-1.462-2.889-2.612-7.084-2.194-14.448-1.671-21.625.208-3.169 0-6.432.731-9.508.104-.652.209-1.305.418-1.957.313-.932.94-1.585 2.089-1.678 1.044 0 1.984.653 2.193 1.492.313.652.418 1.398.627 2.143 1.358 7.457 2.924 14.914 5.744 21.532.105-8.389-.417-17.337.732-26.192.626-4.288.94-8.669 1.462-12.957.104-1.398.418-2.796.731-4.101.209-.932 1.045-1.584 2.089-1.678 1.254 0 1.776.746 2.089 1.585.209.746.418 1.585.522 2.423.523 3.263.523 6.618 1.149 9.415.209-13.795 4.283-27.684 4.492-41.945.104-.653.313-1.305.418-1.865.731-4.474.417-4.94-4.178-6.711-6.059-2.237-11.386-5.686-15.564-10.16-1.149-1.212-3.238-1.771-3.342-3.728-2.089-1.771-2.611-4.474-1.358-6.805.418-.932.522-1.864.94-2.796.731-1.864 1.567-2.144 3.447-.932.522.28.836.839 1.671.932 1.671-3.542 3.029-7.177 4.178-10.813 4.909-14.354 11.385-28.149 18.279-41.758 3.029-6.059 5.223-12.397 8.67-18.27 7.416-12.77 14.518-25.726 23.292-37.843 5.327-7.364 11.803-13.982 18.488-20.414 1.462-.559 1.462.373 1.671 1.212-.313 1.771-1.776 2.983-3.133 4.195-1.358 1.211-1.358 1.957.417 2.796 10.028 4.288 20.473 6.898 31.753 6.338 1.358 0 2.716-.559 3.447-1.584.627-.932 1.358-1.678 2.194-2.424 2.82-2.144 3.447-2.237 6.162-.652 1.045 1.025 1.985 2.144 2.716 3.355 1.671 2.424 2.507 2.797 5.64 1.678 5.014-1.864 9.819-4.008 14.519-6.338 3.969-1.958 8.252-3.635 11.803-6.339 2.611-1.957 2.716-1.864.836-4.38-.209-.373-.523-.653-.732-1.026-.417-.652-.94-1.398-.626-2.05.417-.933 1.253-1.399 2.193-.28 11.699 13.516 21.726 27.963 31.753 42.411 9.192 13.143 16.19 27.311 22.248 41.759 6.894 16.312 12.43 32.996 16.712 49.961a31.758 31.758 0 004.178-1.678c.836-.466 1.88-.279 2.403.466.104.093.104.187.104.28.94 1.584 1.776 3.262 2.403 4.94.522 1.305-.105 2.703-1.358 3.449-1.463.932-3.029 1.771-4.596 2.703-1.462 1.398-3.238 2.517-5.223 3.076-4.491 1.771-8.878 3.635-13.265 5.313-4.387 1.678-4.491 1.771-3.447 5.966 3.134 12.676 6.267 25.446 8.879 38.216a14.41 14.41 0 01-.941 9.787c-2.089 4.474-5.744 7.923-9.296 11.465-8.774 8.762-19.114 16.126-30.604 21.812-12.429 6.152-26.008 10.16-40.004 11.838-25.486 3.169-49.614-.933-72.698-10.813a149.715 149.715 0 01-36.976-22.837c1.358 4.754 3.134 9.321 5.536 13.702 6.581 12.77 15.981 24.235 27.68 33.65 4.7 4.008 10.131 7.27 16.085 9.694 2.194.652 3.76 2.516 3.865 4.567 1.462 10.533 3.864 20.879 5.118 31.319.209 1.678.731 2.33 2.716 2.051 1.984-.187 4.073-.28 6.058-.094 2.089.094 3.029-.559 3.864-2.33 4.701-10.067 9.296-20.134 15.772-29.455.732-1.025 1.149-2.423 2.925-2.237 1.776.187 2.194 1.398 2.611 2.517 4.178 10.999 9.296 21.718 11.594 33.276.627 2.797.627 2.797 3.865 2.704a84.303 84.303 0 016.894 0c1.88 0 2.716-.56 3.133-2.331 2.716-11.185 6.476-22.277 11.072-32.997.522-1.398 1.358-2.516 3.134-2.796 8.147-1.305 15.145-4.94 21.621-9.228l5.64-3.635c1.567-.932 2.403-2.61 1.985-4.288-.627-2.703-.313-5.406-.836-8.016-.522-2.61.731-5.313 1.671-7.923.418-.839 1.149-1.491 2.194-1.771 9.505-3.169 19.01-6.152 28.515-9.041.313-.094.731-.094 1.044-.094 2.09.373 2.194 1.399.941 2.704-5.327 2.33-10.968 3.728-16.399 5.592-3.134 1.026-6.267 1.958-9.296 2.983-3.552 1.118-5.014 3.076-4.805 6.525.522 7.736 1.671 15.473 1.462 23.209-.104 2.703.627 3.17 3.656 2.61 11.072-2.144 22.352-3.635 33.529-5.592 1.984-.373 2.924-1.026 3.133-2.983 1.045-9.694 2.089-19.388 3.447-28.989.418-1.491.522-3.076.313-4.567-.104-1.212 0-2.424.105-3.635.209-1.026.522-1.865 1.88-2.144 3.969-.839 7.938-1.865 12.012-2.517 8.043-1.491 16.19-2.144 24.337-2.144 1.567.093 3.133-.466 4.073-1.491a87.624 87.624 0 017.939-6.805c.313-.279.626-.559 1.044-.745 1.463-.839 2.507-.466 2.82 1.025.209 1.118.314 2.237.314 3.449 0 8.202.731 16.405 2.298 24.421.417 1.958.94 3.822 1.462 5.779.209.932.209 1.678-.731 2.144-.94.466-1.358 1.491-1.88 2.33-1.149 1.958-2.403 3.822-3.552 5.873-2.193 4.008-5.953 5.779-10.758 6.245-4.283.466-8.565.559-12.848.839-.731 0-1.462.093-2.193.186-10.027 2.61-20.368 4.195-30.5 6.245-9.714 1.958-19.636 3.169-29.455 4.941-2.298.466-4.7.932-6.998 1.304-.94.187-1.984.28-3.029.28-1.985 0-2.611-.373-3.133-2.051-.836-2.889-1.149-5.779-.836-8.761.209-1.026.209-2.144.104-3.17-.835-.279-1.149.373-1.671.653-3.865 2.423-7.625 4.847-11.489 7.27-4.387 2.703-9.401 4.568-14.624 5.5-1.671.186-2.924 1.212-3.446 2.61-4.492 11.465-8.67 22.93-10.863 34.954-.105.186-.105.28-.209.466-1.149.839-2.611 1.119-4.074.839a42.303 42.303 0 00-9.714 0 7.26 7.26 0 01-3.969-.559c-.835-.56-1.253-1.399-1.358-2.331-2.298-11.465-6.998-22.277-11.594-33.462-3.342 4.94-5.953 10.066-8.669 15.1-2.716 5.033-5.118 10.439-7.416 15.752-1.149.653-2.507.933-3.969.746-3.656 0-7.312-.093-10.863.653-1.671.093-2.925.093-3.551-1.119z" fill="#000"/><path d="M539.762 212.125c-.522-.28-1.044-.466-1.566 0-.732.746.417 1.212.417 1.864-2.193 2.424-5.222 3.822-8.147 5.313-8.46 4.102-17.548 6.991-26.948 8.576-2.402-1.585-2.611-1.492-5.432.559-4.595.653-8.982-.28-13.369-1.118-6.163-1.305-12.43-2.144-18.07-5.034-1.671-.839-3.447-1.584-4.283-3.262 0-.746-.104-1.492-1.358-1.305-3.029-4.381-5.327-9.135-6.58-14.168-1.985-7.737-1.149-15.846 2.507-23.117 2.507-5.406 5.536-10.719 8.147-16.125 1.567-3.076 2.611-6.339 2.925-9.694 1.775-.466 3.133.559 4.595 1.211a88.906 88.906 0 0014.624 4.941c1.357.373 2.715.466 4.073.652 2.716.466 3.238 1.212 2.507 3.635-1.358 4.102-3.134 8.017-4.909 12.025-1.776 3.821-2.716 7.829-2.716 11.931 0 1.771.522 3.449 1.567 4.94.627.932 1.462 1.771 2.82 1.771 2.193-.093 3.238 1.025 4.074 2.703.626 1.491 1.775 2.703 3.133 3.728 4.909 3.449 10.654 1.772 12.43-3.635a11.205 11.205 0 000-5.872 139.964 139.964 0 01-3.76-18.363c-.418-3.169-.418-6.431.208-9.507.105-1.492 1.358-2.797 3.03-2.983a78.7 78.7 0 0017.861-6.338c.835-.466 1.775-.932 2.82-.56.522 4.288 2.402 8.203 4.282 12.025 2.194 4.194 4.387 8.389 6.581 12.676 2.82 5.22 4.387 10.999 4.595 16.778 0 4.941-.94 9.788-4.595 13.796-.732.373-1.254 1.118-1.463 1.957zM604.417 450c.836-1.677.731-1.957-1.149-2.05-1.566-6.525-2.193-13.236-3.029-19.854-.417-3.263-1.044-6.432-1.253-9.694 2.611-4.288 1.044-8.669.104-12.957-2.82-12.676-5.64-25.353-8.982-37.937-.314-.745 0-1.584.835-1.957.105 0 .209-.093.314-.093 2.402-.932 4.595-1.958 6.998-2.89 5.222-2.051 10.445-4.008 15.458-6.431 1.567 4.101 2.716 8.295 3.865 12.49 2.089 7.736 3.656 15.659 4.492 23.582.522 5.034 1.044 10.067 1.148 15.101 0 2.516.523 5.033.418 7.55-.418 8.668-.313 17.337-1.984 25.819a7.982 7.982 0 000 2.237c-.731.466-1.149 1.212-1.045 2.051 0 1.305-.104 2.517-.209 3.822-.313.838-.522 1.771-.522 2.703-.522 3.355-2.089 6.431-4.387 9.134-1.044 1.212-2.507 2.144-4.178 2.61-.836.187-1.671 0-2.402-.373-3.343-3.448-4.074-7.829-4.909-12.117-.105-.093.104-.466.417-.746zm-220.704-93.677c3.029 2.517 5.64 5.313 8.774 7.643 3.969 3.076 8.669 5.313 13.683 6.525 1.358.28 1.88.746 1.567 2.051-.418 1.864 0 3.728-.523 5.592-2.089-.093-2.715-.932-2.089-2.796.94-2.703.836-2.517-2.089-3.262-4.7-1.212-9.505-2.61-12.22-6.805-.523-.839-4.91-1.957-5.954-1.584-.418.186-1.149.372-1.045.745.627 2.144-1.984 3.449-1.566 5.5.313 1.491-1.358 2.423-1.672 3.821-.313 1.865-.209 3.729-.835 5.593-.209.559-.105 1.305-.522 1.678-3.238 2.796-2.507 6.338-2.507 9.694 0 .28.104.559-.105.746-3.447 3.635-.835 7.643-.94 11.465 0 .652.209 1.398-.209 1.957-1.462 1.864-1.566 3.822-1.88 5.966-.418 2.609.731 4.753 1.045 6.99.313 1.026.313 2.144-.105 3.076-.522.933-.313 1.958.314 2.797.522.559.835 1.305.731 2.05-1.149 3.076.209 6.246 0 9.322-.209 1.864.522 3.821-.418 5.685-.105.187 0 .373.104.466 1.88 1.678 1.672 4.009 2.403 6.059.731 2.051 1.671 4.195.626 6.432-.104.186-.104.466-.104.745 1.671 2.89 1.671 6.339 3.447 9.508.835-.839.313-2.237 1.567-2.517a39.012 39.012 0 011.775 3.542c.105.373.627.653 1.149.56.418-.094.731-.56.523-1.026-.105-.652-.209-1.305-.418-1.957-2.089-7.177-2.82-14.541-2.089-21.905.104-1.025.209-2.144.209-3.169 1.044-.28.522.746 1.044.932 1.149 3.822 1.88 7.643 3.343 11.372a46.084 46.084 0 003.655 7.923c.418.839 1.045 1.491 1.88 2.144 1.149.745 2.298.279 2.298-.932 0-1.771-.104-3.636-.209-5.407a142.966 142.966 0 01.94-31.319l.314-1.398c1.044-.279.627.746 1.044.932.209.56.418 1.119.627 1.585 1.045 2.703 2.089 2.983 4.805 1.305.835 3.542 2.089 6.897 3.656 10.253-.209.466-.418.932-.314 1.398 0 8.576-.104 17.244.105 25.82.104 4.008.104 8.016 1.149 11.931.209.746.104 1.398-.732 1.678-.731.279-1.566.093-1.984-.56-.418-.466-.731-.932-1.149-1.398-.836-.745-1.045-1.864-2.194-2.61.836 5.127 2.194 10.16 3.97 15.101.313.932.731 1.864 1.357 2.703.418.559.627 1.211-.104 1.771a1.581 1.581 0 01-1.985-.094c-.626-.372-1.149-.838-1.671-1.211-4.491-3.729-8.356-8.11-11.28-12.863-1.776-2.704-3.552-5.314-5.327-8.017-.418-.186-.732-.466-.836-.839.418.653-.313 1.585.313 2.424a83.47 83.47 0 003.447 12.304c.209.652.522 1.212.627 1.864.209.559-.209 1.212-.836 1.398-.626.187-1.358 0-1.671-.559-1.776-2.703-3.969-5.127-5.536-7.923a83.105 83.105 0 01-8.147-21.811c-1.671-7.271-2.925-14.635-3.447-22.092-.835-8.295-1.149-16.684-.835-24.98.313-5.872 1.044-11.745 1.984-17.524a101.447 101.447 0 016.685-23.769c.94-2.237 1.985-4.381 2.82-6.618.731-1.211 1.149-2.703 1.567-4.101z" fill="#FFB26C"/><path d="M530.362 154.707c-4.7 2.33-9.61 4.288-14.728 5.965-1.984.653-3.969 1.212-6.058 1.585-1.149.093-2.089.932-2.193 1.957-.523 3.263-.627 6.525-.209 9.788a139.916 139.916 0 003.76 18.362 14.17 14.17 0 01.313 5.127c-.313 2.889-2.506 5.406-5.536 6.525-3.133 1.211-5.953.373-8.46-1.492-1.776-1.305-3.134-2.982-3.969-4.94-.209-.839-1.045-1.398-1.985-1.212-2.715.187-4.178-1.305-5.118-3.355-1.149-2.424-.94-4.94-.627-7.457.523-3.822 1.776-7.55 3.447-11.092 1.567-3.449 3.029-6.805 4.178-10.347.523-1.678.523-1.771-1.357-2.05-8.565-1.026-16.295-4.288-23.92-7.644-.522-.745-1.462-1.211-2.089-1.864a6.315 6.315 0 01-1.566-1.678 2.685 2.685 0 010-3.449c.835-1.025 2.089-1.211 3.446-1.025 1.358.187 2.612 1.119 3.97 1.585.522-.093.208-.373.104-.56-1.88-3.728-2.507-7.456-.94-11.371.627-1.492.731-1.771 2.507-1.305 2.611.652 5.431.839 8.042.373 4.596-1.026 8.983-1.119 13.266 1.118 2.611 1.305 2.82 1.305 2.924-1.398.105-2.703.314-5.313-2.82-6.898a2.462 2.462 0 01-1.462-1.957c-.627-1.025-1.358-2.144-1.985-3.263-.835-1.491-.94-3.169-.418-4.753.209-1.119 1.149-1.958 2.403-2.144 1.253-.093 2.402.559 2.82 1.584.627 1.305 1.149 2.704 1.776 4.288.94-3.635.417-5.872-1.672-8.389-.313-.373-.731-.746-1.044-1.212-.94-1.305-.94-2.703-.105-3.635 1.149-1.025 2.716-1.398 4.179-1.025 1.775.652 3.237 1.957 3.969 3.542 1.044 2.144 1.566 4.474 1.671 6.897.104.933.104 1.771.209 2.704 0 4.94.94 9.88.626 15.007 1.254-.094 2.403-.373 3.447-.932 2.925-1.026 5.745-.094 8.67-.373 3.656.186 7.311.093 10.967-.373l.836-.093c2.506-.187 2.924.279 2.298 2.516-.732 2.424-1.463 4.847-2.089 7.364-.523 1.585-.836 3.262-1.045 4.94 1.045-.373 1.88-.652 2.716-.932 2.193-.559 3.551.653 3.029 2.703-.209 1.119-1.045 2.144-2.089 2.797-.627.652-1.358 1.118-2.089 1.491z" fill="#000"/><path d="M511.978 531.56c1.672.373 3.343.466 5.119.28 2.193-.187 4.386-.187 6.58-.093a70.42 70.42 0 006.267 0c0 .279.104.652.104.932.105 2.796 1.149 3.915 4.283 3.821 3.551 0 7.103-.186 10.654-.559a68.971 68.971 0 018.774-.28c.522.373 1.149.467 1.775.373 3.447.187 6.894.932 10.028 2.331 3.551 1.305 6.267 3.914 7.416 7.084.94 2.33 1.358 4.753-1.045 6.804-1.149-1.025-.104-2.517-1.044-3.635-1.254-1.771-3.029-3.263-5.118-4.288-.836-.373-1.881-1.118-2.716-.28-.627.746-.522 1.771.104 2.517 1.358 1.958 2.194 4.288 3.969 6.059.209.186.418.559.418.839-2.611.093-5.013-.653-7.52-1.119-2.507-.466-4.283-.373-5.641 1.771-.626 1.026-1.671 1.771-2.82 2.331-.94-.653-.731-1.585-.94-2.517-.522-2.796-1.671-5.5-3.551-7.83-.627-.839-1.567-1.771-2.925-1.305-1.358.466-1.149 1.492-1.149 2.517-.104 2.051 0 4.101-1.358 5.872-2.089-.093-4.073.28-6.267.093-3.551-.186-6.267-1.677-8.773-3.542a20.83 20.83 0 00-5.641-3.355c-2.716-.932-5.327-.56-8.043.186-1.566.559-3.029 1.026-4.7 1.398-2.82.466-4.596-.372-5.64-2.703-1.776-3.728.835-9.973 5.327-10.905.209-.094.522-.187.731-.373 1.358-.466 2.507-1.398 3.342-2.424z" fill="#FFB26C"/><path d="M384.131 287.067c1.253 1.678 2.298 3.542 2.924 5.499.314.746.314 1.585 0 2.424-.313 1.491-1.984 2.517-3.76 2.144a7.695 7.695 0 01-.835-.28c-1.149-.466-2.194-1.212-2.925-2.144-.627-.745-1.149-1.491-1.776-2.237-.94-.093-1.358.746-2.089 1.026-1.88.932-4.491.932-5.745-.094-1.566-1.398-1.566-3.076-.94-4.753.314-1.026.94-1.958 1.881-2.704 1.357-.838 1.148-1.677.417-2.703-.835-1.211-1.253-2.61-1.358-4.008a4.551 4.551 0 010-1.678c.209-1.398.732-2.796 2.403-3.355 1.671-.559 3.029 0 4.282.932 3.029 2.237 3.029 2.237 6.685 1.864 2.716-.279 4.387.466 5.536 2.33 1.045 1.399.731 3.356-.522 4.568a33.515 33.515 0 01-4.178 3.169zm236.372-100.948a3.5 3.5 0 01.313-1.491c.94-1.585 0-2.331-1.358-3.076-1.88-.932-3.238-2.424-4.073-4.195-.627-1.398-.836-2.703.313-3.915 1.045-.932 2.611-1.398 4.074-1.025 1.462.187 2.82 1.305 4.073 1.212 1.254-.093 1.776-1.864 3.029-2.61 2.194-1.398 3.969-1.491 6.058-.28 2.09 1.212 2.507 2.517 1.776 4.94-.313.933-.627 1.865-1.149 2.797-.418.746-.209 1.212.627 1.491 1.671.653 3.133 1.585 4.491 2.797.731.652 1.254 1.398 1.463 2.33.417 1.491-.627 2.983-2.298 3.355h-.314c-1.984.28-4.073-.186-5.744-1.211-1.045-.56-1.567-.56-1.985.652-.313.932-1.045 1.771-1.985 2.237-2.715 1.678-5.431.932-6.58-1.864-.418-.559-.627-1.305-.731-2.144z" fill="#030303"/><path d="M272.473 399.666c1.358-.652 2.82-.932 4.387-.839 3.342.466 4.805 2.517 3.447 5.313-.627 1.492-1.88 2.703-3.552 3.356-1.044.373-1.358.932-1.044 1.864.209.746.418 1.585.418 2.424.209 1.491-.105 2.982-.836 4.287-1.462 2.797-4.387 3.076-6.58.653-.836-1.025-1.463-2.051-1.88-3.263-.209-.652-.627-.932-1.463-.652a6.733 6.733 0 01-4.282 0c-1.88-.466-3.134-1.864-3.343-3.542-.522-1.678.418-3.356 2.089-4.195 1.463-.745 3.656-1.118 4.387-2.237.731-1.118-.835-2.703-.835-4.194a7.983 7.983 0 010-2.237c.104-1.305 1.149-2.517 2.611-2.89 1.358-.373 2.82.093 3.656 1.119.731.652 1.253 1.398 1.671 2.237.313.839.731 1.678 1.149 2.796z" fill="#020202"/><path d="M639.931 340.291c-.105-.932.835-2.237.104-3.17-.731-.932-2.402-.559-3.551-1.118-1.045-.466-2.089-.932-3.134-1.491-1.253-.746-1.88-2.144-1.567-3.449.314-1.398 1.567-1.958 2.925-2.331 1.671-.279 3.343-.279 4.909.187 1.045.279 1.567 0 1.567-1.025 0-1.119.522-2.051 1.358-2.89 2.089-2.051 4.596-2.051 6.58.186 1.149 1.212 1.672 2.797 1.567 4.288-.104 1.119.418 1.585 1.462 1.864 1.88.373 3.656 1.212 5.014 2.424.627.559 1.253 1.212 1.671 1.957.94 1.492.314 3.263-1.358 4.102a1.825 1.825 0 01-.94.279c-1.253.28-2.507.373-3.864.093-1.463-.279-2.507-.186-2.716 1.399-.105.372-.209.652-.522.932-1.567 2.423-3.552 3.262-6.163 2.61-2.611-.653-3.342-1.771-3.342-4.847z" fill="#030303"/><path d="M493.386 126.091c1.045 1.119 2.298 2.144 3.76 2.796.732.28 1.149.839 1.149 1.492.314 2.796.209 5.499-.209 8.296-.731.279-1.149-.28-1.671-.653-3.133-2.144-6.894-3.076-10.758-2.796-1.358.093-2.716 0-4.074.093.731-2.237 2.089-4.381 3.865-6.059 1.88-2.05 4.805-3.169 7.938-3.169z" fill="#FFB26C"/><path d="M399.798 125.625c-.104-.746-.104-1.491-.104-2.237 0-.559.313-1.119 1.149-1.212.835-.093.94.466 1.044.932.105.373.209.839.209 1.212.418 7.923 2.716 15.473 4.805 23.116 1.567 5.873 3.656 11.652 6.163 17.245a50.893 50.893 0 004.073 7.27c.314.466.627 1.025.836 1.491.104.373-.105.839-.523 1.026a.877.877 0 01-1.044-.093c-.522-.467-.94-1.026-1.358-1.585-2.089-2.983-3.76-6.152-5.118-9.508-4.909-12.117-8.356-24.794-10.132-37.657z" fill="#030303"/><path d="M311.955 338.333c0-2.703 1.045-3.915 3.552-4.381 2.715-.466 4.387.28 5.431 2.61.522 1.212 1.045 2.424 1.358 3.729a50.078 50.078 0 003.76 9.414c.314.746.627 1.491.836 2.33.626 2.144.104 3.263-1.985 4.288-2.402 1.119-4.178.932-5.745-.559a5.553 5.553 0 01-1.149-1.398c-2.924-4.661-5.013-9.694-6.058-14.914v-1.119z" fill="#040303"/><path d="M316.447 428.096a27.029 27.029 0 01-6.685-.56c-2.403-.745-3.447-2.05-3.238-4.194.209-2.144 1.462-3.542 3.865-3.729 1.775-.279 3.655-.372 5.431-.279 3.656.186 7.103-.466 10.654-.746.313 0 .731-.093 1.044-.093 3.552-.28 5.014.559 5.641 2.983.626 2.703-.522 4.194-3.969 5.219-2.716.653-5.536 1.119-8.356 1.305-1.254-.093-2.612 0-4.387.094z" fill="#030303"/><path d="M632.41 247.545c.418.094 1.254.187 1.985.373 5.118 1.305 9.923 3.356 14.414 5.966.835.466 1.567 1.118 2.298 1.771 1.88 1.771 1.984 3.169.627 5.033-1.045 1.864-3.656 2.517-5.641 1.585-1.567-.559-3.133-1.305-4.596-2.144-3.029-1.585-6.162-2.89-9.4-4.008-.94-.373-1.88-.746-2.716-1.212-2.193-1.212-2.611-2.33-1.88-4.288.731-2.237 2.089-3.169 4.909-3.076zm63.402 49.868c-.105.746-.314 1.492-.523 2.238a47.51 47.51 0 01-6.267 12.21c-.626.932-1.357 1.771-2.297 2.424-1.881 1.491-3.552 1.584-5.536.466-1.985-.932-2.821-2.983-1.985-4.847.627-1.585 1.567-3.169 2.611-4.568 1.672-2.61 3.134-5.313 4.283-8.202.418-.839.835-1.678 1.358-2.424 1.358-1.957 2.611-2.423 4.804-1.771 2.507.839 3.552 2.051 3.552 4.474zm10.967 70.655c0 2.423-2.193 4.287-4.909 4.287-.522 0-.94-.093-1.462-.186-1.045-.373-1.985-.746-2.925-1.305a78.46 78.46 0 00-11.594-5.033c-.94-.28-1.88-.746-2.716-1.212-1.671-.653-2.402-2.424-1.775-3.915.626-2.144 2.089-3.356 4.178-3.356.731 0 1.462.094 2.193.28 5.745 1.398 11.176 3.635 16.085 6.711a18.693 18.693 0 012.089 1.864c.523.373.836 1.119.836 1.865z" fill="#050404"/><path d="M588.541 194.415c0 .932-.313 1.771-1.045 2.423-1.149 1.305-2.402 2.517-3.655 3.636-2.298 2.05-4.492 4.287-6.372 6.711a19.496 19.496 0 01-1.984 2.051c-1.881 1.677-3.343 1.864-5.327.652-2.298-1.305-3.134-2.983-2.089-4.94 3.029-5.686 7.624-10.626 13.474-14.168 3.029-1.771 6.998.373 6.998 3.635zm-255.904 79.416c3.133 0 4.491.932 5.118 3.076.522 2.33-.314 3.915-2.925 4.847a22.555 22.555 0 01-4.909 1.398c-3.238.746-6.476 1.771-9.505 3.076-.731.28-1.358.466-2.089.653-3.552 1.025-5.432 0-6.267-3.17-.418-1.211 0-2.516 1.044-3.355.523-.466 1.149-.839 1.776-1.212 4.909-2.517 10.341-4.288 15.876-5.313.523.093 1.254.093 1.881 0z" fill="#040303"/><path d="M360.734 226.759c0-3.169 1.253-4.474 4.178-4.754 2.298-.186 3.76.467 4.596 2.331.835 1.678 1.462 3.355 1.88 5.126.731 2.61 1.775 5.127 3.029 7.55a17.87 17.87 0 011.253 3.263c.627 2.144 0 3.356-2.089 4.288-2.298 1.025-4.178.839-5.745-.746-.417-.466-.835-.839-1.149-1.398-2.715-4.381-4.7-9.042-5.849-13.982 0-.652 0-1.118-.104-1.678z" fill="#030303"/><path d="M332.95 454.102c.731 0 1.044.559 1.358 1.025 4.073 7.084 9.714 13.329 15.458 19.295 5.014 5.313 10.759 10.066 17.13 14.168.836.466 2.403 1.025 1.463 2.144-.94 1.118-1.985 0-2.821-.466-2.611-1.399-5.013-3.076-7.207-4.847-9.714-7.83-17.965-16.872-24.65-26.938-.731-.933-1.253-1.958-1.671-3.076-.209-.56.104-1.119.626-1.305h.314z" fill="#030202"/><path d="M574.649 116.863c-.105 1.025 0 2.144.209 3.169.104.466.104.932.104 1.492 0 .652-.522 1.211-1.253 1.305h-.105c-.731.093-1.253-.373-1.357-.932-.105-.56-.314-1.119-.314-1.678l-1.567-10.906c0-.093 0-.186-.104-.28-.104-.745.104-1.305.94-1.491.731-.186 1.462.28 1.567.932v.093c.209.746.418 1.585.522 2.424 0 1.212.313 2.33.731 3.449 1.463-1.865 2.82-3.636 4.178-5.407.627-.745 1.045-2.05 2.403-1.305 1.357.746.417 1.771-.105 2.517a116.344 116.344 0 01-3.238 4.381c1.358.839 2.716 1.678 4.074 2.424.522.279 1.044.652 1.567 1.025.626.466.626 1.212.208 1.771-.417.466-1.149.559-1.775.28-1.149-.653-2.298-1.399-3.447-2.051-1.149-.653-1.671-1.491-3.238-1.212z" fill="#030303"/><path d="M518.037 134.48c-.523.28-1.254.373-1.88.28-4.074-.28-8.043.745-11.281 2.889.627-5.872.209-11.372.418-16.871.94 2.051 0 4.195.522 6.245.313.28.627.093.94 0 4.491-1.212 8.356 1.026 8.774 5.22.209 1.678.835 2.33 2.507 2.237z" fill="#FFB26C"/><path d="M589.899 110.059l3.133-.466c.418-.094.94-.094 1.358-.187.731-.093 1.462.28 1.671.932.209.746-.418 1.212-1.253 1.399-.836.186-1.776.279-2.716.466-.522.093-1.044.186-1.567.372-1.149.373-.94 1.305-.731 2.051.209.746 1.045.466 1.567.373.94-.093 1.776-.373 2.716-.466.731-.187 1.566.186 1.775.839.209.652-.209 1.305-.835 1.584h-.105c-1.88.653-3.864.932-5.953.746-1.254-.186-2.089-1.212-2.089-2.33a109.275 109.275 0 010-8.296c0-1.025.731-1.864 1.775-2.237 1.776-.746 3.656-1.025 5.641-.746.835.187 1.671.466 1.671 1.398 0 .932-.94 1.026-1.88 1.026-.523-.094-1.045-.094-1.672 0-2.611.652-3.237.093-2.506 3.542z" fill="#040303"/><path d="M701.974 477.498a2.366 2.366 0 01-.94 1.491c-5.953 6.711-13.16 12.397-21.203 16.871a20.426 20.426 0 01-4.7 1.958c-.732.279-1.463.466-1.881-.373-.417-.839.314-1.119 1.045-1.398 8.983-3.636 15.876-9.508 22.457-15.846.835-.839 1.671-1.771 2.507-2.61.313-.373.731-.746 1.149-.932.417-.187 1.044-.093 1.358.373.208.186.208.372.208.466z" fill="#040404"/><path d="M555.012 124.04l4.074-.652a3.237 3.237 0 011.88 0c.522.093.94.466 1.044 1.025.209.56-.208 1.212-.835 1.305-2.298.466-4.596.932-6.998 1.119-1.045.093-1.985-.653-2.089-1.678-.105-.373-.105-.839-.105-1.212.105-3.728-.313-7.363-.522-10.999 0-.745 0-1.491.209-2.144.104-.466.627-.838 1.253-.838.627 0 1.045.372 1.149.838.105.373.105.839.105 1.212.104 3.729.731 7.457.626 11.279 0 .279.105.559.209.745z" fill="#050505"/><path d="M650.898 249.037c-2.82-.093-4.178-1.398-3.969-3.915.209-2.424 2.402-4.195 5.118-4.195s4.7 1.492 4.7 3.542c-.104 2.331-2.924 4.661-5.849 4.568z" fill="#030303"/><path d="M302.868 340.943c2.82 0 5.64 2.051 5.64 4.101 0 1.771-2.715 3.822-5.013 3.822-2.82-.093-5.118-1.957-5.327-4.381 0-1.864 2.089-3.449 4.7-3.542z" fill="#030202"/><path d="M701.034 355.018c.105-2.423 2.403-4.381 5.223-4.288 2.611.094 4.387 1.492 4.491 3.542 0 2.424-2.82 4.754-5.64 4.661-2.82-.093-4.074-1.398-4.074-3.915z" fill="#030303"/><path d="M347.051 232.538c0-1.398 1.044-2.516 2.402-2.982 1.567-.56 3.238-.56 4.805.093 2.089.839 3.238 2.796 2.82 4.288-.94 2.423-3.865 3.728-6.58 2.889-2.089-.559-3.447-2.33-3.447-4.288z" fill="#020202"/><path d="M684.74 373.101c.104 2.61-1.671 4.474-4.282 4.567-2.403 0-4.387-1.677-4.387-3.821v-.094c0-2.05 1.88-3.635 4.595-3.728 2.507 0 4.074 1.119 4.074 3.076z" fill="#030303"/><path d="M630.635 263.391c0 2.517-1.881 4.381-4.387 4.474-2.403 0-4.283-1.677-4.283-3.821v-.093c0-2.144 1.985-3.729 4.805-3.729 2.507 0 3.865 1.212 3.865 3.169z" fill="#040404"/><path d="M389.458 235.521c-.105 2.051-1.776 3.729-4.074 3.915-2.298.093-5.118-2.237-5.014-4.101.105-1.585 2.821-3.636 4.91-3.636 2.193.187 3.969 1.865 4.178 3.822z" fill="#040303"/><path d="M340.575 347.281c.104 2.051-1.671 3.822-3.969 4.009-2.298.093-4.91-1.865-5.014-3.729-.104-1.864 2.507-3.822 4.909-3.822 2.194 0 3.969 1.585 4.074 3.542z" fill="#020202"/><path d="M714.091 475.261a56.898 56.898 0 01-3.76 11.651c-.836 2.051-1.776 4.101-2.925 6.059-.313.559-.836 1.118-1.254 1.584a.874.874 0 01-1.044.093c-.418-.186-.627-.559-.522-1.025.104-.373.209-.652.418-.932 2.82-4.847 4.804-10.067 6.162-15.38.209-.839.522-1.771.836-2.61.104-.559.731-.932 1.358-.839h.104c.836.373.627 1.026.627 1.399z" fill="#060606"/><path d="M567.651 123.202c0 .838-.105 1.584-1.149 1.677-1.045.094-1.567-.559-1.672-1.305-.417-2.703-.835-5.313-1.148-8.016-.209-1.864-.105-3.728-.836-5.592-.313-.839-.105-1.492.94-1.678.836-.187 1.567.279 1.776.932v.186c.209.839.417 1.771.522 2.61.313 3.449.627 6.805 1.358 10.253.104.373.209.653.209.933z" fill="#050505"/><path d="M424.553 164.867c.105.466-.209.932-.731 1.025-.418.094-.94-.093-1.149-.466-.418-.839-.836-1.678-1.149-2.516-1.358-4.009-2.298-8.11-3.969-11.932-.209-.559-.418-1.211.313-1.491.94-.373 1.358.187 1.672.746.313.559.522 1.212.731 1.864 1.253 3.822 2.507 7.643 3.864 11.465.209.466.314.839.418 1.305z" fill="#080808"/><path d="M353.213 463.609c.627 0 1.149.28 1.463.653 3.447 2.982 6.998 5.965 10.445 8.948.313.28.626.559.835.932.314.373.314.839-.104 1.119a1.216 1.216 0 01-1.254.186 7.846 7.846 0 01-1.462-1.025c-3.238-2.797-6.476-5.593-9.609-8.296-.523-.373-.94-.839-1.149-1.305-.209-.373 0-.932.418-1.119.208-.093.313-.093.417-.093z" fill="#080707"/><path d="M387.264 470.227c-.94-1.025-.313-2.33-.94-3.449a3.852 3.852 0 011.567 1.958c-.627.279-.522.932-.627 1.491z" fill="#fff"/><path d="M471.765 147.623c.418.093.523.466.314.652-.209.187-.418.094-.418-.186l.104-.466z" fill="#000"/><path d="M465.185 527.552c.94.466 2.089.559 3.133.28 3.238-.839 6.685-.653 10.027-.56 1.672.094 3.238-.093 4.805-.466 1.567.839 2.611 2.237 2.925 3.822 1.358 2.051 3.656 3.356 5.118 5.406 1.149 1.678 1.984 3.449 2.507 5.407.626 2.889-1.358 5.685-4.492 6.338-1.253.28-1.984.652-2.298 1.771-.209.559-.626 1.025-1.253 1.212-2.925 1.025-5.849 1.677-8.983.559 1.149-.932 2.611-.466 3.969-.746 1.358-.279 2.089-.839 1.985-2.144a16.49 16.49 0 00-.94-5.499c-.836-2.33-2.403-2.61-4.178-.839-1.776 1.771-2.403 4.381-2.82 6.804-.209 1.212 1.357 1.492 1.462 2.517-1.567.28-3.134.187-4.596-.279-1.984-.653-2.611-1.399-2.611-3.263 0-.839.104-1.584.313-2.423.418-1.585-.209-2.144-1.984-1.678a41.222 41.222 0 00-9.297 3.635c-1.566.746-3.029 1.585-4.491 2.33a8.345 8.345 0 01-3.656.839c-.626-1.771.418-3.355.627-4.94.313-1.491.313-3.076-.104-4.567-.314-.932-.627-1.958-1.881-2.237-1.253-.28-2.089.559-2.715 1.305a38.735 38.735 0 00-5.536 9.507c-.105.28-.209.653-.418.839-1.253-.652-2.089-1.864-2.089-3.262-.418-2.237-.104-4.474.836-6.525 1.462-2.796 3.551-5.406 5.953-7.55 1.88-1.771 4.805-2.331 7.312-1.398 2.089.559 4.178 1.025 6.371 1.305 1.149.186 2.403-.187 3.238-.933 1.358-1.491 2.194-3.262 3.761-4.567z" fill="#FFB26C"/><path d="M439.699 550.109c-.105-.652-.627-1.305-.105-2.05 1.567-1.865 2.298-4.102 3.551-6.059a15.097 15.097 0 012.194-2.796c.94-.839 1.984-1.865 3.551-1.399 1.567.466 1.88 1.678 2.194 2.89a11.685 11.685 0 010 4.661c-.314 1.677-.731 3.355-1.358 5.033-.522.652-1.462 1.025-2.403.932-2.611.186-5.222-.186-7.624-1.212zm101.839 3.076c.313-2.144.522-4.381.522-6.618 0-1.118.209-2.237 1.567-2.703 1.254-.373 2.716.093 3.343 1.119 2.402 2.423 3.864 5.406 4.282 8.575.104.932.209 1.958.313 2.89-1.253.745-2.506.372-3.655-.094-2.194-.838-4.387-1.957-6.372-3.169z" fill="#010101"/><path d="M476.047 551.135c-2.402-.56-2.611-.56-2.193-2.704.313-2.61 1.358-5.126 3.238-7.177 1.984-2.144 3.969-1.864 5.118.746 1.044 2.423 1.149 4.94 1.358 7.457.104.745-.627 1.118-1.358 1.305-1.776.372-3.656.466-5.431.373h-.732zm91.395 2.423c-1.149-.559-1.985-1.398-2.403-2.517a38.576 38.576 0 00-1.984-3.449c-.418-.652-.731-1.304-1.045-1.957-.522-.839-.209-1.957.731-2.517.732-.372 1.567-.279 2.194.094 2.82 1.118 5.223 2.982 6.894 5.406.835 1.118 0 2.423.104 3.635-.94 1.864-2.716 1.491-4.491 1.305z" fill="#020101"/><path d="M543.418 219.862c3.029 3.355 5.223 6.897 7.834 10.253 6.685 8.948 13.161 17.896 19.428 27.124 8.46 12.397 14.936 25.633 20.681 39.242 6.789 15.939 12.325 32.251 16.503 48.843.522 2.051.522 2.051-1.567 2.89-5.013 1.957-9.818 4.38-14.727 6.524l-4.387 1.865c-.836-.373-.836-.933-.94-1.492-2.507-7.457-3.865-15.1-5.745-22.743-2.507-10.533-6.58-20.6-10.445-30.76-2.298-6.152-4.596-12.49-7.416-18.456a76.833 76.833 0 00-5.014-8.948c-1.671-2.237-3.029-4.661-3.969-7.271-.104-.279-.209-.466-.313-.652-.313-.746-.836-1.492-1.88-1.025-1.045.466-.418 1.211-.105 1.864 1.045 2.516 2.298 5.033 3.865 7.363 3.029 4.475 5.536 9.228 7.416 14.169a675.116 675.116 0 0113.579 36.538c2.089 6.152 3.133 12.491 4.595 18.736 1.672 6.991 3.761 13.795 6.268 20.6 1.462 3.728 1.984 7.643 2.924 11.465 2.089 8.295 3.865 16.684 5.849 24.98.314 1.212 0 2.424-1.044 3.263-4.7 4.66-9.818 8.948-15.25 12.863-13.265 9.6-27.157 18.176-42.407 24.98-8.147 3.729-17.025 6.245-26.113 7.364a78.878 78.878 0 01-24.337-1.025c-20.054-3.729-39.064-10.999-55.985-21.439-7.834-4.847-14.832-10.626-20.995-17.151-2.298-2.05-3.238-5.033-2.611-7.923 1.358-6.991 2.298-14.075 2.716-21.252a79.45 79.45 0 011.253-12.211c3.969-21.065 9.087-41.945 17.13-62.078 3.865-9.508 8.46-18.829 13.787-27.777.314-.56.732-1.119.94-1.771.209-.653.523-1.305-.417-1.678-.732-.28-1.254.186-1.567.652-.627.839-1.045 1.678-1.567 2.61-9.087 15.66-16.19 32.251-20.994 49.402-2.403 8.949-5.223 17.71-6.894 26.752-.418 1.957-.627 3.915-.94 5.872-.209 1.492-.418 1.585-1.88.932-3.238-1.305-6.163-2.889-8.983-4.753-3.029-2.144-5.745-4.568-8.565-6.991-.836-.56-1.045-1.585-.522-2.331 6.998-18.828 14.623-37.564 24.023-55.553 1.045-2.051 1.985-4.195 2.925-6.339 3.76-9.135 9.296-17.43 14.31-26.006 4.491-7.736 9.087-15.38 14.727-22.464a93.266 93.266 0 017.207-8.389c1.567-1.678 1.672-1.678 3.761-.745a87.085 87.085 0 0019.323 6.152c4.805.932 9.714 1.677 14.728 1.118 1.357-.186 2.715.28 3.551 1.212 3.342 3.355 3.447 3.355 2.089 7.643-3.029 9.881-6.267 19.668-8.565 29.735-1.149 4.567-2.089 9.134-2.611 13.795a9.396 9.396 0 001.357 5.965c1.985 3.076 4.074 5.966 6.163 9.042.418.559.836 1.025 1.358 1.584 2.925 3.263 4.491 3.263 7.207 0 2.089-2.516 4.074-5.033 6.163-7.55 1.357-1.677 1.984-3.728 1.775-5.779-.313-8.389-1.462-16.778-2.611-25.167-.94-6.991-1.671-13.982-3.029-20.972 0-.187 0-.373-.104-.466-1.254-2.704-.523-4.754 2.089-6.525.835-.559 1.462-1.305 2.82-1.305 1.984-.187 3.969-.653 5.744-1.492 7.208-2.982 14.31-6.245 21.204-9.88 2.298-1.585 4.596-3.356 7.207-5.033z" fill="#fff"/><path d="M599.09 418.402c.627.279.836.745.836 1.398.836 6.059 1.671 12.117 2.298 18.176.313 2.61.836 5.127 1.358 7.737.313.745.209 1.584-.314 2.33-9.4 2.983-18.801 6.059-28.201 8.948-1.567.373-2.82 1.492-3.134 2.983-.94 2.61-1.149 5.313-.835 7.923.522 2.703.522 5.406.731 8.109.209.839-.105 1.678-.836 2.144-6.789 4.288-13.161 9.228-21.099 11.931-2.716.932-5.536 1.678-8.46 2.144-.94.093-1.672.653-1.88 1.398a253.728 253.728 0 00-10.968 32.345c-.313 1.398.105 3.355-1.358 4.101-1.149.559-3.029.093-4.595.093-2.507-.093-4.91 0-7.416.28-1.254.279-1.672-.28-1.776-1.212-2.089-12.397-7.73-23.862-12.116-35.607-.105-.279-.209-.652-.418-.932-.314-.559-.627-1.212-1.463-1.305-.835-.093-1.253.559-1.671 1.119-1.358 2.144-2.82 4.194-4.073 6.431-4.701 7.83-8.565 16.126-12.534 24.328-.314.839-.523 1.585-.627 2.424-4.283.186-8.565-.28-12.952.652-.105-5.686-1.253-11.092-2.194-16.405l-3.133-18.456c-.104-1.677-1.358-3.076-3.134-3.542-7.416-2.796-13.787-7.177-19.427-12.21-13.057-11.372-22.98-25.261-29.142-40.547-.836-2.144-1.567-4.381-1.985-6.618.94.373 1.776.932 2.403 1.678 16.921 13.981 36.244 24.234 58.492 29.827 13.161 3.449 26.844 4.847 40.527 4.008 35.931-2.237 64.759-16.219 86.59-41.852 1.044-1.118 1.88-2.423 2.506-3.821z" fill="#fff"/><path d="M383.608 461.652c-.522.652-.522 1.398-.208 2.05.208.466.313 1.212-.523 1.399-.835.186-1.149-.28-1.462-.839-.313-.56-.94-1.212-.94-1.771.104-1.678-1.776-2.89-.94-4.661.209-.466-.522-.839-.836-1.212-1.044-1.025-1.149-2.423-.522-3.635 1.045-1.678.104-3.356-.627-4.94-.522-.932-1.044-1.864-.626-2.983.417-1.118-.418-1.864-1.358-2.517-1.045-.466-1.463-1.584-.94-2.516.104-.187.209-.28.313-.466.731-.932 1.149-1.958 0-3.076-.627-.746-.209-1.585.313-2.331.732-.745.627-1.864-.208-2.516-.105-.094-.314-.187-.418-.28-.94-.559-1.149-1.119-.314-1.957 1.463-1.585 1.567-3.915.209-5.593-.94-1.119-1.253-2.144-.313-3.356a1.67 1.67 0 00.104-2.237c-.417-.373-.626-1.025-.313-1.584.313-.466.104-1.026-.418-1.305-1.462-.932-1.253-2.051-.522-3.263a2.434 2.434 0 00-.104-3.169c-.836-.932-.314-1.864.626-2.61 1.776-1.212 1.985-2.703 1.358-4.567-.418-1.212-1.149-2.61.105-3.915.417-.466-.105-1.025-.418-1.491-1.149-1.492-1.045-2.89.522-3.915 1.044-.56 1.462-1.771.836-2.703a2.558 2.558 0 010-2.144c.626-1.026.94-1.865 0-2.89-.523-.652-.209-1.398.731-1.864 2.82-1.678 2.82-4.381 3.133-6.898.209-1.677-.104-3.449 1.567-4.66.418-.373.627-.839.418-1.398-.522-1.399-.522-2.61 1.358-3.356.731-.28.209-1.025-.209-1.491-.731-.839-.209-1.305.731-1.678 1.462-.466 2.82-1.305 4.282.093.627.466 1.463.466 2.089.186 1.254-.372 1.776 0 1.567 1.212-.104.373 0 .653.314.932 2.089 1.305 3.238 3.636 6.058 4.008 1.253.28 2.402.746 3.551 1.305.627.28 1.358.839 2.089.466 1.776-.745 2.507.746 3.447 1.399.731.559.104 1.211-.522 1.864-1.463 1.398-1.149 2.423.94 3.262a64.311 64.311 0 01-.94 12.677c-1.254 8.669-2.612 17.337-3.447 26.099-.209 1.958.209 3.915-.94 5.966-.836-2.331-1.254-4.754-1.358-7.084-.209-1.865-.314-3.729-.522-5.593l-.314-1.398c-.209-.653-.626-1.212-1.567-1.119-.626.093-1.148.559-1.253 1.119-.209.932-.418 1.957-.522 2.889-1.149 11.372-2.925 22.744-2.507 34.302.104 2.983.209 6.059.313 9.228-.94-.373-1.044-1.212-1.357-1.864-2.194-5.22-3.865-10.533-4.91-16.033-.522-2.61-1.044-5.126-1.566-7.736-.105-.466-.209-.932-.418-1.398-.209-.653-1.045-.932-1.776-.746-.418.186-.731.466-.836.839-.208.652-.313 1.305-.417 1.957-.94 7.737-1.254 15.567-.94 23.303-.314 2.796.835 5.406 1.357 8.203z" fill="#FFB26C"/><path d="M515.634 461.372c3.134-4.474 2.82-6.431-1.984-10.253 2.611-.559 5.013-1.025 7.416-1.492 9.296-2.05 17.861-5.779 26.112-10.16 12.221-6.338 23.815-13.515 34.678-21.625a141.372 141.372 0 0014.414-12.024c.731.093.731.653.836 1.119.522 2.516.835 5.033 1.462 7.457.209.838 0 1.771-.522 2.516-15.981 20.786-37.289 34.768-64.551 41.573a92.135 92.135 0 01-11.28 2.143c-2.194.56-4.387.746-6.581.746zM406.797 409.64c11.385 13.049 26.008 22.277 42.407 29.361 16.398 7.084 33.215 11.931 51.389 13.143-2.82 4.754-2.715 5.872 1.254 9.881-3.238.186-6.372 0-9.61-.28-18.905-1.585-37.08-6.898-53.374-15.566-10.236-5.407-19.741-11.931-28.411-19.295-2.193-1.864-3.551-3.729-3.655-6.432-.105-3.542-.418-6.991-.732-10.439l.732-.373zM604.417 450c.418 3.636 1.776 6.898 3.029 10.347.418 1.118 1.881 1.584 1.881 2.889 0 1.678-.836 3.356-.418 5.034 0 .652.209 1.305.522 1.864.418.466.731 1.025 1.462.839.732-.187.836-.746.94-1.305.314-2.144.105-4.381-.94-6.432 5.432-2.33 6.894-6.991 8.356-11.651 1.358.373.627 1.305.523 1.957-.105 3.729-.94 7.457-1.254 11.186-.626 6.152-1.462 12.397-2.089 18.549-.209 2.144-.209 2.144-2.611 2.61-8.669 1.677-17.443 2.889-26.217 4.381-3.343.559-6.685 1.211-9.923 1.771-2.298.372-2.507.279-2.925-1.771-.417-1.771-.522-3.542-.417-5.407.417-4.101-.314-8.202-.523-12.21-.104-2.517-.522-5.034-.731-7.55-.104-1.865.836-3.542 1.254-5.22.104-.56.731-.746 1.253-.932L604.104 450c.105-.093.209-.093.313 0z" fill="#fff"/><path d="M618.518 484.955c.105-1.492.209-2.89.418-4.288 1.253-11.279 3.238-22.464 3.969-33.929.105-1.212.313-1.864 1.88-2.237 10.341-2.517 20.995-3.822 31.753-4.008h1.045c1.044-.093 1.462.373 1.358 1.305-.209 2.889-.418 5.686-.523 8.575-.417 7.364-.522 14.728-1.566 21.998-.105 1.305-.94 2.423-2.194 3.076a55.438 55.438 0 01-17.339 5.965c-5.64 1.026-11.28 2.238-16.921 3.263-.626.186-1.149.186-1.88.28z" fill="#FFFEFE"/><path d="M659.045 472.93c.418-3.635.836-6.711 1.045-9.88.522-6.898.835-13.889 1.149-20.786 0-1.026.522-2.051 1.357-2.797 2.925-2.703 5.954-5.313 9.088-7.736.104 3.169.209 5.965.313 8.669a97.808 97.808 0 003.447 21.997c.627 2.144.627 2.144-1.567 3.17-4.909 2.237-9.714 4.66-14.832 7.363z" fill="#FC9538"/><path d="M503.518 227.785c.209-1.119 1.358-.933 2.193-1.119 5.119-.932 10.132-2.237 14.937-4.008 5.745-2.144 11.385-4.474 16.294-8.016.522-.28 1.045-.559 1.671-.746.732.932 1.463 1.864 2.298 2.703.836.839.836 1.585-.313 2.424-2.089 1.491-4.387 2.982-6.685 4.194-6.476 3.169-12.952 6.339-19.637 9.135-.626.28-1.149.466-1.775.652-4.178 1.492-4.492 1.399-6.894-2.143-.731-1.026-1.358-2.051-2.089-3.076zm-41.154-8.949c3.238 2.144 6.79 3.822 10.654 5.034 6.163 1.584 12.43 2.889 18.697 3.821 1.462.094 2.925.187 4.387.094.731 0 1.462-.187 1.985.466-.209.186-.314.372-.523.559-1.88 3.169-4.7 4.288-8.669 4.101-3.029-.093-6.058-.373-8.983-.745-8.043-1.305-15.876-3.729-23.084-7.271a53.452 53.452 0 005.536-6.059z" fill="#fff"/><path d="M589.376 364.059c-2.611-4.753-2.611-4.753 2.194-6.897 7.311-3.263 14.727-6.618 22.039-9.881 1.88-.838 1.985-.838 2.716.839 1.775 3.449 1.775 3.449-1.985 5.407-6.476 3.355-13.578 5.685-20.263 8.575l-4.701 1.957zm-181.117 4.754c-5.327-1.118-10.236-3.355-14.414-6.618-3.029-2.33-5.85-4.754-8.461-7.363-1.358-1.212-1.88-2.517-1.149-4.195.418-1.025.731-1.957.94-2.983 1.254.187 1.776 1.026 2.507 1.678l5.64 5.034a44.98 44.98 0 0014.415 8.855c1.357.559 1.88 1.118 1.357 2.423-.313 1.025-.522 2.144-.835 3.169zm89.827-72.425h-4.282c-.627 0-1.358.093-1.776-.466-1.775-2.144-3.551-4.194-3.864-6.898-.209-1.491 0-1.677 1.566-1.584 5.432.279 10.968.839 16.295 1.771 1.044.186 1.253.466 1.462 1.398.418 2.423-1.044 4.008-2.507 5.686-.418.559-1.149.373-1.775.373-1.567-.093-3.134-.187-5.119-.28zm9.088-9.694c-5.536-.839-11.072-1.398-16.712-1.584-1.985-.094-1.985-.094-1.672-1.865l.314-1.677c.209-1.399 0-3.17 1.044-3.915 1.358-1.026 3.343-.28 5.014-.094 3.342.373 6.685 1.026 10.027 1.492 1.045.186 1.567.559 1.671 1.584 0 1.958.105 3.915.314 6.059zm1.044 165.637c1.985 0 3.865.559 5.432 1.677 1.775 1.119 2.193 3.356.835 4.941a3.037 3.037 0 01-.835.745c-3.029 2.237-8.774 1.958-11.385-.559-1.881-1.771-1.672-3.728.417-5.313a8.257 8.257 0 015.536-1.491z" fill="#FEFEFE"/><path d="M490.775 274.949c0-2.143.94-4.008 1.253-5.872.105-.746.731-.839 1.463-.746 3.655.467 7.207.933 10.862 1.305.941.094 1.149.653 1.254 1.305.209 1.771.418 3.542.731 5.593-5.327-.652-10.341-1.585-15.563-1.585z" fill="#fff"/><path d="M654.031 478.15c6.059-3.169 11.803-6.711 18.697-9.787-1.671 3.262-3.342 5.965-5.745 8.109-1.88 1.678-4.595 1.492-6.893 1.958-.731.093-1.463.093-2.194.093-1.358.093-2.716.839-3.865-.373z" fill="#FC9538"/><path d="M504.98 267.027c-1.462.279-2.715-.187-3.969-.28-2.298-.187-4.596-.466-6.789-.653-.94-.093-1.358-.466-1.045-1.305v-.279c.731-3.822.836-3.915 5.223-3.635 1.567.093 3.133.279 4.7.279.731-.093 1.358.466 1.358 1.026v.093c.209 1.584.313 2.983.522 4.754zm-3.864-38.87l3.864 5.686c0 .094.105.094.105.187.313 2.33-2.089 2.983-3.343 4.287-.835.933-1.671 0-2.193-.559a113.907 113.907 0 01-3.343-3.355c1.881-1.771 2.821-4.195 4.91-6.246zm2.715 30.387h-7.625c-.731 0-1.253-.279-.94-1.025.105-.28.105-.466.209-.746 1.149-4.287 1.358-4.381 6.267-4.101 1.254.093 1.567.559 1.672 1.491l.417 4.381zm-3.655-17.71c1.671 3.076 2.089 6.152 2.506 9.415a24.505 24.505 0 01-5.222 0l2.716-9.415zm-6.163 57.978c2.925-.094 5.745 0 8.669.466-1.357 1.677-2.506 3.076-3.76 4.474-.209.279-.627.373-.94.279-.104 0-.104-.093-.209-.186-1.462-1.585-3.029-2.983-3.76-5.033z" fill="#fff"/><path d="M619.876 453.542c-.313-.652.105-1.398-.522-1.957 0-.932.418-1.771.94-2.517.209 1.492.104 2.983-.418 4.474z" fill="#E5D6C9"/><path d="M654.031 478.15c1.149.746 2.612 0 3.865.466-1.358.559-2.82.373-4.178.466-.313 0-.627-.186-.522-.373.104-.186.522-.372.835-.559z" fill="#FC9538"/><path d="M398.858 421.944l-1.044-.932c-.105-.653-.105-1.305.104-1.958.105-.279.314-.279.523-.093.417 1.025.522 2.051.417 2.983zm-13.16 16.778l-1.045-.932a3.606 3.606 0 010-1.492c.209-.279.313-.279.522 0 .418.746.627 1.585.523 2.424z" fill="#FFB26C"/><path d="M398.44 419.054c-.208 0-.313.093-.522.093v-1.864c.522.466.627 1.119.522 1.771zm-13.265 17.151h-.522v-.932c.104-.28.313-.28.418 0l.104.932z" fill="#FFB26C"/><path d="M385.071 435.273h-.418c0-.28-.209-.559.314-.653l.104.653z" fill="#000"/><path d="M610.998 463.236c1.044.466 1.775 1.492 1.671 2.61v4.195c0 .839-.105 1.678-1.253 1.957-1.045.187-2.089-.279-2.507-1.118-1.045-1.771-1.254-3.729-.731-5.686.104-.746.522-1.398 1.044-1.958.627-.186 1.253-.186 1.776 0z" fill="#080707"/><path d="M384.549 470.32c0 .653-.314 1.305-1.254 1.212-.627-.093-1.358-.279-1.358-1.025 0-.746.523-1.119 1.358-1.212.836-.093 1.254.093 1.254 1.025zm121.267-307.317c-1.671 9.228.418 17.896 2.507 26.658.418 1.585.835 3.169 1.149 4.847.417 2.703-.209 5.22-2.716 7.084-1.88 1.585-4.7 1.864-6.894.653-2.193-1.212-3.969-2.983-4.805-5.22-.313-.653-.313-1.025.314-1.492 4.7-3.075 5.327-7.55 5.118-12.303-.209-4.754-.731-9.415-1.671-14.075-.314-1.678-.314-3.449.209-5.127.104-.652.731-1.118 1.462-1.025h5.327zm27.053-13.423c-.314 2.517-2.403 3.356-4.178 4.102a506.376 506.376 0 01-10.445 4.381c-7.312 2.889-15.459 3.821-23.397 2.796-8.774-1.025-16.817-3.729-24.651-7.271-1.358-.559-2.507-1.398-3.551-2.33-.836-.746-1.567-1.491-.94-2.61.418-.745 1.671-.745 3.238.093.418.187.731.466 1.149.653 6.893 4.008 14.727 6.431 22.874 6.991 1.149.093 2.403.279 3.552.559 3.76.932 7.729.932 11.385-.093 3.656-.932 7.207-1.864 10.863-2.61 3.447-.746 6.789-1.958 10.027-3.356 1.149-.745 2.611-1.211 4.074-1.305z" fill="#FFB26C"/><path d="M487.224 188.915c.104-4.008 1.044-7.922 2.715-11.558a133.847 133.847 0 005.432-13.888c.209-.653.522-1.026 1.358-.746.835.28.626.559.522 1.119-.418 2.61-.313 5.219.209 7.829a64.482 64.482 0 011.253 14.169c0 2.237-.731 4.38-1.984 6.245-.627.932-1.463 1.677-2.507 2.237-2.82 1.398-5.223.652-6.372-2.051-.522-1.118-.731-2.237-.626-3.356zm14.101-46.698c-1.149-.746-1.776-2.051-1.567-3.263.626-6.245.104-12.583.522-18.922.313-2.889-.731-5.779-2.925-7.923l-.208-.186c-.418-.653-1.358-1.305-.418-2.144.835-.652 2.193-.652 3.029.093 1.253.932 2.193 2.237 2.507 3.729.626 1.957.94 4.008 1.044 6.059.313 6.338.105 12.769-.418 19.108 0 1.305-.626 2.517-1.566 3.449zm-20.159 4.101c.835-2.237 2.506-4.195 4.7-5.5 3.656-1.864 7.311-1.025 9.4 2.238.314.466.418.932.732 1.304 1.357 1.772-.314 2.89-1.045 4.102-.731 1.212-1.985.652-2.925.466a65.88 65.88 0 01-8.565-1.678c-.835-.093-1.566-.466-2.297-.932zm30.604-6.525c2.82.093 5.327 1.398 6.893 3.449.523.559.314 1.025-.313 1.398-3.551 2.424-7.625 3.356-11.907 4.008-1.149.187-1.463-.466-1.254-1.305a13.458 13.458 0 012.194-5.499 4.705 4.705 0 014.387-2.051z" fill="#FFB26C"/><path d="M507.174 155.08c-5.118 2.05-9.819.186-14.832-.559 2.402-2.144 3.551-4.847 5.536-7.085 2.924-3.262 3.029-2.609 4.909.373.731 1.212 1.253 2.517 1.984 3.729.732 1.212 1.567 2.33 2.403 3.542z" fill="#fff"/><path d="M497.878 127.396c-2.612-1.305-4.492-3.542-5.223-6.152-.104-.559-.209-1.118-.104-1.678 0-.745.208-1.584 1.149-1.678.94-.093 1.044.839 1.253 1.399.836 2.144 1.462 4.381 3.029 6.245.418.373.313 1.025-.104 1.864zm31.857 8.482c-4.596.373-9.192.56-13.892.466-1.044 0-2.193.094-3.238.28-4.596.466-7.729 2.796-9.714 6.432-.626 1.211-.313 1.864.94 2.516.418-1.398 1.045-2.703 1.776-4.008 1.253-2.237 3.969-3.635 6.789-3.262 2.925.186 5.536 1.491 7.312 3.449.626.745 1.044 1.305 2.402.838.836-.279.94.467.731 1.119-.313.466-.731.932-1.358 1.212-.731.373-1.149 1.118-1.253 1.864-.418 3.356-2.716 5.22-6.267 6.059-2.507.279-5.014-.373-7.103-1.585 1.567 3.449 2.298 3.729 5.536 2.89l1.776-.466c.731-.187 1.462-.373 2.193-.466 2.507-.466 5.014-1.119 7.416-1.865 1.88-.466 3.238-1.957 3.447-3.728.522-3.263 1.776-6.338 2.507-9.508 0-.839.522-1.398 0-2.237z" fill="#FFB26C"/><path d="M516.157 150.046c-2.298 1.585-5.536 1.585-7.834 0 1.775-.559 3.133-1.025 4.596-.093.835.466 1.775-.186 2.611-.279.627-.373.627 0 .627.372z" fill="#fff"/><path d="M516.156 150.046l-.626-.372c.94-.56.313-2.144 1.671-2.424.627-.186.836.093.836.653-.209.838-.94 1.677-1.881 2.143zm-23.919.839c-1.149-.652-1.88-.186-3.029.28a4.802 4.802 0 01-2.298 0c-.418-.093-.731-.28-1.044-.559-1.254-1.585-2.403-1.399-3.761-1.771 1.045 3.169 7.939 4.567 10.132 2.05z" fill="#fff"/><path d="M499.131 142.589l-1.567-1.398a14.459 14.459 0 00-2.82-1.957c-.627-.559-1.358-1.025-2.193-1.305-.523-.187-1.672-.466-1.672-.466-2.715-.839-5.431-.559-8.147-.373-2.924.186-5.849.466-8.774-.186-.835-.187-1.462 0-1.671.745-.627 1.678-.731 3.356-.522 5.034a34.808 34.808 0 002.507 6.431c.209.56.626 1.026 1.253 1.212 2.82 1.119 5.745 1.864 8.67 2.983 1.044.373 2.089.652 3.238.839.835.093 1.566 0 2.402-.187.522 0 .94-.373.835-.745-.104-.373-.626-.187-.94-.094a1.458 1.458 0 00-.417.28c-1.045.093-2.089 0-3.029-.28l-1.881-.466c-3.342-1.398-4.282-4.753-6.998-6.618-.313-.186-.209-.559 0-.932.105-.186.418-.279.731-.186 1.776 1.118 2.089-.28 2.612-1.212 1.775-2.983 4.387-5.593 8.46-5.499 1.254.093 2.507.279 3.76.559h.105c1.253.559 2.402 1.491 3.133 2.517.836 1.211 1.985 2.609 2.298 3.075.94-.186 1.672-.652.627-1.771z" fill="#FFB26C"/><path d="M371.179 289.863c.209-1.305 1.149-2.516 2.507-3.169 1.775-.932 1.775-1.025.835-2.703-.522-.932-1.044-1.864-1.567-2.89a6.248 6.248 0 01-.626-3.355c0-.559.104-1.212.835-1.492.732-.279 1.254.094 1.776.467 1.045.838 1.88 1.771 2.507 2.889 1.462 2.051 1.567 2.051 3.656.466.94-.746 2.298-1.118 3.551-1.025 1.671.093 2.925 2.33 1.567 3.542-.94.746-1.88 1.491-2.925 2.237-2.298 1.491-2.402 1.678-.836 3.728 1.045 1.305 1.776 2.89 2.298 4.475.314.652.105 1.398-.522 1.771-.731.466-1.358-.094-1.984-.467a10.779 10.779 0 01-2.716-3.355c-1.254-1.958-1.776-2.051-3.656-.559-.731.745-1.671 1.305-2.82 1.491-1.462 0-2.089-.466-1.88-2.051zm264.678-103.278c-1.567-.279-3.134-.839-4.491-1.678-2.298-1.305-2.821-1.118-3.656 1.212-.209.839-.731 1.678-1.358 2.33-1.358.933-2.402.839-3.029-.652-.522-1.212-.522-2.61.209-3.822 1.044-1.864 1.044-1.864-.94-3.076-.94-.559-1.88-1.118-2.716-1.677-.94-.56-1.567-1.305-2.089-2.238-.313-.652-.94-1.305-.313-2.05.626-.746 1.566-.373 2.298-.187 1.149.373 2.193.746 3.238 1.212 2.297 1.025 2.506.932 3.342-1.118.313-1.026 1.149-1.865 2.089-2.424.836-.466 1.985-.466 2.82.093.94.466 1.254 1.492.836 2.331-.418 1.211-.94 2.33-1.463 3.448-.835 1.678-.626 2.051 1.149 2.89 1.463.652 2.925 1.398 4.178 2.33.418.28.836.653 1.149 1.119.314.373.418.932.209 1.398-.209.652-.835.559-1.462.559zm-372.471 224.36c-.627-.093-1.149-.187-1.672-.373-1.149-.373-1.775-1.585-1.357-2.703.104-.373.417-.653.731-.932a9.274 9.274 0 013.133-1.398c3.238-1.119 3.238-1.119 2.194-4.009-.418-1.118-.731-2.237-.731-3.355-.105-.466-.105-.932 0-1.492 0-.559.417-1.118 1.044-1.304.627-.094 1.045.279 1.358.652.836 1.025 1.462 2.237 1.671 3.542.105.466.105 1.025.313 1.398.209.746 1.045 1.305 1.881 1.119.208 0 .313-.093.522-.187.627-.279 1.358-.559 1.984-.932.732-.373 1.567-.466 2.403-.279 1.253.279 1.671.932 1.149 1.957-.523 1.305-1.671 2.33-3.238 2.796-2.298.653-2.298.653-1.776 2.89.418 1.678 1.045 3.355.418 5.033-.313.932-.313 2.144-1.671 2.237-1.149 0-1.567-1.025-1.985-1.864-.522-1.025-.835-2.144-1.358-3.169-.626-1.305-1.044-1.491-2.507-.839-.731.839-1.566 1.119-2.506 1.212z" fill="#FEFEFE"/><mask id="a" fill="#fff"><path d="M642.438 339.918l.417-2.144c.314-2.051.105-2.424-2.089-2.89-1.462-.186-2.82-.652-4.178-1.118a687.11 687.11 0 00-1.253-.559c-.627-.373-1.254-.839-1.149-1.585.104-.746 1.044-.839 1.776-.932 1.149 0 2.402.093 3.551.373.627.093 1.253.373 1.88.466 1.462.279 2.089-.187 2.193-1.398 0-.933.105-1.771.314-2.704.313-.745.835-1.584 1.88-1.677 1.044-.094 1.567.652 1.985 1.398.626.932.731 2.05.522 3.076-.522 2.144-.522 2.144 1.984 2.889 1.045.28 2.089.653 3.134 1.026 1.149.466 2.193 1.118 3.029 2.05.94 1.212.522 1.958-1.149 2.144-1.045.093-1.985 0-3.029-.186-.731-.093-1.462-.28-2.194-.373-.731-.28-1.671.093-1.88.839-.104.186-.104.373-.104.652a7.17 7.17 0 01-.313 2.144c-.732 1.398-2.089 2.144-3.447 1.864-1.358-.279-1.985-.932-1.88-3.355zm-325.678-4.102c.94-.093 1.776.373 2.089 1.119.627 1.119 1.045 2.237 1.253 3.449.523 3.262 2.089 6.245 3.447 9.321.314.652.627 1.398.94 2.051.314.932.627 1.957-.731 2.516-1.358.56-2.193.466-3.238-.839a5.79 5.79 0 01-.835-1.305c-2.194-3.728-3.761-7.643-4.91-11.744a11.394 11.394 0 01-.313-2.703c0-1.212.627-1.771 2.298-1.865zm-.836 90.136c-1.88.093-3.655-.093-5.431-.466-1.045-.093-1.776-1.026-1.567-1.958.105-1.025.522-1.957 1.88-2.05 1.567-.187 3.134-.28 4.596-.187 3.447.466 6.789-.279 10.132-.559 1.044-.093 2.193-.186 3.238-.28.94-.186 1.88.373 2.089 1.119v.279c.313.933-.209 1.865-1.149 2.238a21.043 21.043 0 01-4.805 1.118c-2.924.466-5.953.653-8.983.746zm316.277-176.263c.523.093 1.254.187 1.985.373a63.829 63.829 0 0113.161 5.406 16.761 16.761 0 012.089 1.585c.835.559.94 1.585.313 2.33 0 0 0 .093-.104.093-.523.839-1.567 1.212-2.612.933a12.456 12.456 0 01-3.969-1.771c-3.029-1.958-6.476-3.076-9.818-4.381-.836-.28-1.671-.653-2.507-1.026-.94-.279-1.462-1.118-1.149-1.957 0-.093 0-.093.105-.187.313-.932 1.357-1.584 2.506-1.398zm61.104 47.631a27.962 27.962 0 01-.522 2.144c-1.358 3.915-3.343 7.643-5.745 11.092a12.407 12.407 0 01-1.88 2.144c-.627.746-1.776.932-2.611.373l-.105-.093c-1.044-.653-1.567-1.398-1.044-2.517a20.765 20.765 0 011.88-3.262c2.298-2.704 3.551-5.873 5.013-8.949.314-.745.732-1.491 1.149-2.237.418-.839 1.358-1.211 2.298-.839 1.045.094 1.776 1.119 1.567 2.144zm-7.207 62.172c1.044 0 1.985.187 2.925.559 4.282 1.212 8.356 2.983 12.116 5.034.835.466 1.671 1.025 2.402 1.678.94.559 1.149 1.584.522 2.423 0 .093-.104.093-.208.187-.523.932-1.776 1.304-2.821.838a25.415 25.415 0 01-3.655-1.677c-3.029-2.051-6.581-3.17-10.028-4.475-.835-.279-1.671-.652-2.506-1.025-.836-.279-1.358-1.118-1.045-1.864v-.093c.522-.932 1.045-1.678 2.298-1.585zM583.945 192.178c1.358.186 2.298 1.305 2.194 2.517 0 .186-.105.466-.209.652-.731 1.212-1.776 2.237-3.029 3.076-2.821 1.957-4.805 4.661-7.103 7.084-.627.746-1.253 1.398-1.88 2.144-.522.746-1.671.932-2.507.466-.104 0-.104-.093-.209-.093-.94-.373-1.358-1.398-.94-2.33a9.063 9.063 0 011.253-2.144c2.507-3.449 5.432-6.525 8.774-9.321a8.007 8.007 0 013.656-2.051zm-251.1 83.797c1.358-.093 2.403.186 2.716 1.491.314 1.305-.104 2.051-1.775 2.61-1.045.466-2.194.746-3.447.932-3.969.466-7.521 2.051-11.177 3.356-.731.279-1.357.466-2.089.652a1.942 1.942 0 01-2.298-.559s0-.093-.104-.093c-.522-.839-.731-1.678.209-2.424.522-.466 1.149-.839 1.776-1.118 4.491-2.144 9.191-3.635 14.1-4.661.732-.093 1.358-.186 2.089-.186zm30.291-48.656c0-2.517.418-3.076 1.88-3.263 1.463-.186 2.194.28 2.82 1.771.314.746.627 1.492.836 2.33.731 4.195 2.82 7.923 4.491 11.745.732 1.678.523 2.237-.94 2.796-.835.466-1.88.28-2.506-.372-.105-.094-.209-.28-.314-.373-3.029-4.568-5.118-9.508-6.267-14.634z"/></mask><path d="M642.438 339.918l.417-2.144c.314-2.051.105-2.424-2.089-2.89-1.462-.186-2.82-.652-4.178-1.118a687.11 687.11 0 00-1.253-.559c-.627-.373-1.254-.839-1.149-1.585.104-.746 1.044-.839 1.776-.932 1.149 0 2.402.093 3.551.373.627.093 1.253.373 1.88.466 1.462.279 2.089-.187 2.193-1.398 0-.933.105-1.771.314-2.704.313-.745.835-1.584 1.88-1.677 1.044-.094 1.567.652 1.985 1.398.626.932.731 2.05.522 3.076-.522 2.144-.522 2.144 1.984 2.889 1.045.28 2.089.653 3.134 1.026 1.149.466 2.193 1.118 3.029 2.05.94 1.212.522 1.958-1.149 2.144-1.045.093-1.985 0-3.029-.186-.731-.093-1.462-.28-2.194-.373-.731-.28-1.671.093-1.88.839-.104.186-.104.373-.104.652a7.17 7.17 0 01-.313 2.144c-.732 1.398-2.089 2.144-3.447 1.864-1.358-.279-1.985-.932-1.88-3.355zm-325.678-4.102c.94-.093 1.776.373 2.089 1.119.627 1.119 1.045 2.237 1.253 3.449.523 3.262 2.089 6.245 3.447 9.321.314.652.627 1.398.94 2.051.314.932.627 1.957-.731 2.516-1.358.56-2.193.466-3.238-.839a5.79 5.79 0 01-.835-1.305c-2.194-3.728-3.761-7.643-4.91-11.744a11.394 11.394 0 01-.313-2.703c0-1.212.627-1.771 2.298-1.865zm-.836 90.136c-1.88.093-3.655-.093-5.431-.466-1.045-.093-1.776-1.026-1.567-1.958.105-1.025.522-1.957 1.88-2.05 1.567-.187 3.134-.28 4.596-.187 3.447.466 6.789-.279 10.132-.559 1.044-.093 2.193-.186 3.238-.28.94-.186 1.88.373 2.089 1.119v.279c.313.933-.209 1.865-1.149 2.238a21.043 21.043 0 01-4.805 1.118c-2.924.466-5.953.653-8.983.746zm316.277-176.263c.523.093 1.254.187 1.985.373a63.829 63.829 0 0113.161 5.406 16.761 16.761 0 012.089 1.585c.835.559.94 1.585.313 2.33 0 0 0 .093-.104.093-.523.839-1.567 1.212-2.612.933a12.456 12.456 0 01-3.969-1.771c-3.029-1.958-6.476-3.076-9.818-4.381-.836-.28-1.671-.653-2.507-1.026-.94-.279-1.462-1.118-1.149-1.957 0-.093 0-.093.105-.187.313-.932 1.357-1.584 2.506-1.398zm61.104 47.631a27.962 27.962 0 01-.522 2.144c-1.358 3.915-3.343 7.643-5.745 11.092a12.407 12.407 0 01-1.88 2.144c-.627.746-1.776.932-2.611.373l-.105-.093c-1.044-.653-1.567-1.398-1.044-2.517a20.765 20.765 0 011.88-3.262c2.298-2.704 3.551-5.873 5.013-8.949.314-.745.732-1.491 1.149-2.237.418-.839 1.358-1.211 2.298-.839 1.045.094 1.776 1.119 1.567 2.144zm-7.207 62.172c1.044 0 1.985.187 2.925.559 4.282 1.212 8.356 2.983 12.116 5.034.835.466 1.671 1.025 2.402 1.678.94.559 1.149 1.584.522 2.423 0 .093-.104.093-.208.187-.523.932-1.776 1.304-2.821.838a25.415 25.415 0 01-3.655-1.677c-3.029-2.051-6.581-3.17-10.028-4.475-.835-.279-1.671-.652-2.506-1.025-.836-.279-1.358-1.118-1.045-1.864v-.093c.522-.932 1.045-1.678 2.298-1.585zM583.945 192.178c1.358.186 2.298 1.305 2.194 2.517 0 .186-.105.466-.209.652-.731 1.212-1.776 2.237-3.029 3.076-2.821 1.957-4.805 4.661-7.103 7.084-.627.746-1.253 1.398-1.88 2.144-.522.746-1.671.932-2.507.466-.104 0-.104-.093-.209-.093-.94-.373-1.358-1.398-.94-2.33a9.063 9.063 0 011.253-2.144c2.507-3.449 5.432-6.525 8.774-9.321a8.007 8.007 0 013.656-2.051zm-251.1 83.797c1.358-.093 2.403.186 2.716 1.491.314 1.305-.104 2.051-1.775 2.61-1.045.466-2.194.746-3.447.932-3.969.466-7.521 2.051-11.177 3.356-.731.279-1.357.466-2.089.652a1.942 1.942 0 01-2.298-.559s0-.093-.104-.093c-.522-.839-.731-1.678.209-2.424.522-.466 1.149-.839 1.776-1.118 4.491-2.144 9.191-3.635 14.1-4.661.732-.093 1.358-.186 2.089-.186zm30.291-48.656c0-2.517.418-3.076 1.88-3.263 1.463-.186 2.194.28 2.82 1.771.314.746.627 1.492.836 2.33.731 4.195 2.82 7.923 4.491 11.745.732 1.678.523 2.237-.94 2.796-.835.466-1.88.28-2.506-.372-.105-.094-.209-.28-.314-.373-3.029-4.568-5.118-9.508-6.267-14.634z" fill="#fff" stroke="#000" stroke-width="2" mask="url(#a)"/><path d="M588.436 159.088c-1.253-2.237-3.029-4.101-5.327-5.593a29.187 29.187 0 002.612-2.33c1.671-2.424.731-5.406-2.194-6.245-1.775-.653-3.864-.56-5.64.186-2.194.932-2.298 1.026-2.194 3.169.314 3.822.732 7.644 1.149 11.465 0 .56.209 1.119.523 1.678.209.466.835.653 1.357.559.523-.093 1.045-.466 1.045-1.025 0-.466 0-.932-.104-1.491-.105-1.398-.314-2.797-.418-4.381 3.133.652 4.7 2.61 6.162 4.66.523.746.836 1.399 1.358 2.144.314.466.836.653 1.463.466.626-.093 1.149-.652 1.044-1.305a4.7 4.7 0 00-.836-1.957zm-9.191-6.805c-.523-1.025-.836-2.237-.731-3.355-.105-1.305.313-1.771 1.88-1.864.522 0 1.044 0 1.566.093 1.776.373 2.298 1.584 1.149 2.889-1.149.932-2.402 1.771-3.864 2.237z" fill="#020202"/><path d="M600.344 153.216c-.313-1.678-.94-3.263-1.88-4.847-.836-1.305-2.403-2.144-4.074-1.958-1.88.093-2.716 1.119-3.133 2.61-.523 1.585-.836 3.169-.836 4.754-.209 2.33.522 4.567 1.88 6.525 2.507 3.076 5.849 2.796 7.625-.653a7.4 7.4 0 00.627-2.144c.209-1.398.209-2.889-.209-4.287zm-3.134 5.313c-.209.559-.522 1.118-1.253 1.118-.731 0-1.149-.466-1.462-.932a7.51 7.51 0 01-1.358-4.847c-.105-1.305.104-2.61.626-3.915.523-1.025 1.463-1.305 1.985-.373 1.671 2.89 2.716 5.779 1.462 8.949zm-24.963-8.576c-.94-2.237-3.238-2.703-5.954-2.796-.522 0-1.045.093-1.671.186-2.194.466-2.82 1.678-2.298 3.635.522 2.051.731 4.195.731 6.339.104 2.33.209 4.754.313 7.084 0 .746.314 1.491 1.358 1.585 1.045.093 1.462-.746 1.462-1.678 0-1.119 0-2.331-.208-3.449-.523-1.398.313-2.89 1.775-3.449.94-.466 1.88-1.118 2.611-1.864 1.776-1.585 2.821-3.449 1.881-5.593zm-3.656 3.635c-.627.839-1.567 1.399-2.716 1.678a217.738 217.738 0 00-.627-4.194c-.208-1.026.105-1.585 1.463-1.398 1.358.186 2.507.279 2.924 1.398.418 1.118-.313 1.771-1.044 2.516z" fill="#030303"/><path d="M591.779 135.226c0-.373-.209-.839-.418-1.212-1.671-2.703-3.551-5.313-5.745-7.737-.626-.838-1.88-1.025-2.82-.466-.313.187-.627.56-.731.933-1.149 3.169-1.88 6.431-2.507 9.694 0 .838.209 1.584 1.149 1.771.94.186 1.462-.467 1.567-1.305.104-.56.313-1.119.313-1.678.105-.839.522-1.212 1.358-1.212 1.985 0 4.283-.932 5.118 1.771 0 .093.105.186.105.186.417.467 1.149.653 1.671.373.731-.093 1.044-.652.94-1.118zm-8.043-3.635c0-.839.105-1.678.522-2.424.836.559 1.463 1.305 1.985 2.144-.731.466-1.671.652-2.507.28z" fill="#040303"/><path d="M522.841 288.652c-.104-1.026-.209-2.144-.104-3.17.104-2.33-.313-4.381-2.402-6.152-1.881-1.677-2.716-4.008-3.552-6.338-.209-.839-.627-1.678-1.044-2.517-.94-1.491-.627-1.957 1.358-2.144 2.611-.279 5.327-.466 7.938-.652 6.162-.466 12.429-.932 18.592-1.491 3.029-.28 3.865.372 3.447 3.169-.418 3.542-1.253 7.084-2.611 10.533-.209.652-.209 1.398.104 2.05 1.045 2.61 1.985 5.313 2.611 8.017.836 3.914-.94 6.151-5.327 6.618-4.909.559-9.818.652-14.727 1.304-2.611.373-4.074-.932-4.283-3.355-.104-1.958.105-3.915 0-5.872z" fill="#010101"/><path d="M613.087 480.853c0 1.864-.731 2.983-2.089 3.076-1.358.093-2.298-.932-2.403-2.983-.313-2.05-.104-4.101.732-5.965.417-.839.731-1.678 1.775-1.585 1.045.094 1.463 1.119 1.567 1.958.104 1.771.209 3.542.418 5.499z" fill="#0B0908"/><path d="M603.895 469.575v3.169c0 .932-.835 1.771-1.984 1.678-.94 0-1.776-.56-1.881-1.399-.835-2.609-.731-5.313.209-7.922.314-.653.732-1.212 1.567-1.119.836.093 1.254.559 1.462 1.305.627 1.398.418 2.983.627 4.288z" fill="#090807"/><path d="M601.179 480.108c0-1.492-.208-2.61.523-3.729.418-.652 1.044-1.212 1.984-1.118.731.093 1.358.652 1.463 1.305.522 2.05.731 4.008.835 6.058 0 .56-.209 1.119-.522 1.585-.418.652-1.253.932-2.089.839-.731-.094-1.358-.56-1.567-1.212-.522-1.119-.731-2.424-.627-3.728z" fill="#0F0C0A"/><path d="M597.733 482.531c.104.932 0 1.958-.314 2.89a1.636 1.636 0 01-1.567 1.118c-.731 0-1.462-.279-1.88-.839-1.044-1.398-1.044-6.525 0-8.016.314-.652 1.045-1.025 1.776-.932.731.186 1.253.746 1.358 1.398a15.37 15.37 0 01.627 4.381z" fill="#0D0B0A"/><path d="M584.572 471.346c-.105-1.212.313-2.424 1.044-3.542 1.045-1.212 2.507-1.119 3.134.279.835 1.958 1.149 3.915 1.149 5.966.104.932-.627 1.771-1.671 1.864h-.105c-1.253.28-2.611-.373-3.133-1.398-.209-1.025-.314-2.144-.418-3.169z" fill="#0B0A09"/><path d="M603.164 459.135c0 2.051-.522 2.61-1.88 2.703-1.462.187-2.82-.652-3.029-1.864v-.28c-.418-1.864-.209-3.728.418-5.499.417-.746.731-1.585 1.775-1.678 1.254 0 1.672.932 1.88 1.771.418 1.678.732 3.262.836 4.847z" fill="#0A0908"/><path d="M579.14 482.624a9.448 9.448 0 010-2.423c0-.653.627-1.212 1.358-1.212.418 0 .836.186 1.045.466.418.373.835.839 1.149 1.398a12.447 12.447 0 011.253 4.754c.105 1.491-.522 1.957-2.193 2.237-1.463.187-1.985-.373-2.194-1.491-.104-.466-.313-.932-.313-1.398-.209-.839-.105-1.585-.105-2.331z" fill="#0F0D0B"/><path d="M590.525 459.135c-.104-.932 0-1.957.314-2.89.209-.745.94-1.305 1.776-1.305.835-.093 1.671.467 1.88 1.119.835 1.864 1.044 4.008.731 5.966-.209.838-.627 1.584-1.671 1.677-1.045.094-1.985-.466-2.403-1.305a5.933 5.933 0 01-.627-3.262zm-12.116 12.584c0-.839 0-1.678.209-2.424.105-.652.627-1.212 1.462-1.305.836-.186 1.672.187 1.985.932.836 2.051 1.149 4.288.836 6.432-.105.839-.94 1.491-1.881 1.491-1.044.187-1.462-.466-1.88-1.118-.626-1.305-.835-2.61-.731-4.008z" fill="#0A0909"/><path d="M592.092 471.252c.209-1.211-.313-2.33.522-3.262.418-.559.94-1.025 1.776-1.025.731.093 1.358.559 1.567 1.212.627 1.771.835 3.728.835 5.592 0 1.026-.835 1.958-1.984 2.051-1.149.186-2.194-.559-2.402-1.585-.105-.932-.209-1.957-.314-2.983z" fill="#090807"/><path d="M590.63 484.395c0 .56-.105 1.026-.209 1.585-.209.746-.94 1.212-1.88 1.212-.836.093-1.671-.28-1.88-1.026-.731-2.05-.836-4.194-.418-6.245.209-.746.627-1.398 1.567-1.398s1.358.559 1.671 1.305c.627 1.491.94 2.983 1.149 4.567z" fill="#0C0A09"/><path d="M584.05 460.533c-.209-1.118.104-2.237.731-3.169.731-1.212 2.089-1.305 2.715-.186 1.045 1.957 1.358 4.287.836 6.431-.209 1.025-1.253 1.305-2.402.839-2.089-.652-1.985-2.237-1.88-3.915z" fill="#0A0908"/><path d="M577.365 462.304c.104-.839.209-1.584.522-2.423.209-.746.94-1.305 1.776-1.305.835-.093 1.671.466 1.775 1.211.522 1.492.731 2.983.731 4.568.105.932-.626 1.771-1.671 1.864-1.149.186-2.298-.373-2.611-1.305-.209-.839-.418-1.771-.522-2.61z" fill="#0D0A08"/><path d="M623.114 469.948c.104-6.246 1.253-12.398 2.089-18.549a8.6 8.6 0 01.627-2.331c.418-1.305 1.566-2.237 3.133-2.516 5.432-1.026 10.759-2.517 16.295-3.17 1.357-.186 2.715-.186 4.073-.093 2.611.28 3.969 1.398 3.969 3.822 0 4.847 0 9.694-.104 14.448-.105 3.448-.627 6.804-.836 10.253 0 1.584-1.149 2.983-2.82 3.542a34.173 34.173 0 01-6.058 1.678c-5.327 1.118-10.759 2.143-16.086 3.262-.208 0-.313.093-.522.093-2.82.373-3.76-.279-3.76-2.796v-7.643z" fill="#010101"/><path d="M609.953 466.219c-.104-.559.209-1.118.836-1.305.209 1.585.313 3.263.104 4.847-.94-.186-1.044-.652-1.044-1.212.418-.652.418-1.584.104-2.33z" fill="#FC9538"/><path d="M609.954 466.219c.732.653.732 1.678 0 2.33-.21-.745-.21-1.491 0-2.33z" fill="#FC9538"/><path d="M502.787 153.122c-.314-.093-.627-.279-.94-.466a2.128 2.128 0 00-2.716-.093.89.89 0 01-1.149 0c-.522-.466-.104-.932.313-1.212 1.567-1.211 3.969-1.025 5.327.373.105.093.209.28.314.373.104.186.104.466.104.653-.209.279-.627.372-1.253.372z" fill="#000"/><path d="M544.567 268.332a3.008 3.008 0 010 2.33c-.522 2.33-1.149 4.66-1.567 6.991-.104 1.025-1.044 1.771-2.193 1.771-4.596.279-9.192.466-13.683.745-2.089.094-4.178-.839-5.223-2.516-1.671-2.237-2.715-4.754-3.342-7.364 8.669-.932 17.339-1.212 26.008-1.957z" fill="#fff"/><path d="M524.617 282.313c2.507-.186 4.596.093 6.58-.279.314.466.418 1.025.314 1.491-.105 1.119.104 2.144 1.462 2.61 1.358.466 4.282.186 5.014-.559.417-.466.626-1.026.522-1.585-.105-.746-.418-1.398-.522-2.051.313-.559.94-.466 1.462-.466 2.716-.093 2.716-.093 3.551 2.237a40.135 40.135 0 012.194 6.805c.418 2.517-.209 3.542-3.134 3.821-4.909.56-9.818.933-14.727 1.399-1.358.093-1.88-.466-1.985-1.492-.104-1.305 0-2.61-.104-3.915a103.96 103.96 0 00-.627-8.016z" fill="#FFFEFE"/><path d="M536.107 284.084c-2.403.56-2.821.28-2.298-1.491.104-.466.313-.746.835-.746.418-.093.731.093.836.466.104.653.627 1.119.627 1.771z" fill="#fff"/><path d="M610.684 481.692c-.522-1.491-.522-2.983-.208-4.567.731 1.491.731 3.076.208 4.567zm-8.565-13.422a16.04 16.04 0 010 4.474c-.94-1.398-1.044-2.983-.417-4.474.104-.28.209-.28.417 0z" fill="#FC9538"/><path d="M602.119 468.27h-.417c0-.373-.105-.839.313-1.119.104.28.209.746.104 1.119zm1.567 15.286c-.94-1.491-1.149-3.169-.522-4.753.731 1.491.94 3.076.522 4.753zm-8.356-3.542c.836 1.399.94 3.076.418 4.568-.94-2.237-.94-2.237-.418-4.568zm-8.356-10.812c1.149 1.398.731 2.889 1.149 4.288.105.372-.313.559-.627.652-.417.093-.731-.093-.835-.466a5.568 5.568 0 01.313-4.474zm13.997-13.236c.104 1.212.313 2.33.522 3.542.104.28-.105.652-.522.652-.418.094-.732-.186-.836-.466-.313-1.211-.313-2.516 0-3.821.209-.28.522-.28.836.093z" fill="#FC9538"/><path d="M600.97 455.966h-.835c0-.373 0-.839.522-.746.313 0 .313.373.313.746zm-19.218 29.827c-.836-1.118-1.045-2.516-.732-3.914.836 1.211 1.149 2.609.732 3.914zm11.071-28.615c.731 1.491.94 3.169.523 4.753-1.358-1.305-1.463-1.771-.523-4.753zm-12.22 16.964c-.836-1.305-.314-2.61-.418-4.288.835.56 1.253 1.398 1.044 2.237-.626.653.105 1.585-.626 2.051z" fill="#FC9538"/><path d="M580.603 474.142c.209-.652-.209-1.491.522-1.957a4.408 4.408 0 010 2.33c-.209.466-.418-.093-.522-.373zm14.101-.186c-1.045-1.305-.941-2.797-.627-4.661.835 1.398 1.044 3.076.627 4.661zm-6.372 8.016c.209 1.025.836 2.05.104 3.355a4.79 4.79 0 01-.626-3.355c.209-.28.418-.28.522 0z" fill="#FC9538"/><path d="M588.332 481.972h-.418c0-.187.105-.373.105-.56.522-.093.313.28.313.56zm-2.089-22.371c.627 1.025.731 2.237.418 3.356-1.463-1.212-1.149-2.331-.418-3.356zm-6.372 1.305c.105 1.212 1.149 2.424.105 3.542-.627-1.118-.731-2.423-.105-3.542zm71.236-4.847c.104 4.288-.418 9.601-.836 15.007 0 1.119-.835 2.237-2.089 2.517-1.462.373-2.924.839-4.491 1.211-5.118 1.119-10.341 2.238-15.459 3.17-2.402.466-2.507.279-2.507-1.865a136.792 136.792 0 011.881-24.421c.417-2.517 1.044-3.076 3.655-3.635l10.968-2.237c1.984-.373 3.969-.653 5.953-.653 2.403 0 2.925.56 2.925 2.61v8.296z" fill="#FC9538"/><path d="M648.391 460.254c-.104.186-.209.466-.313.559-.836.279-1.463 1.025-1.567 1.864-.104.373-.313.559-.731.652-.418 0-.731-.186-.731-.559-.105-1.305-1.149-1.491-2.298-1.491-.418 0-.836-.28-.836-.653v-.093c0-.373.314-.652.731-.652 1.672 0 2.089-.839 2.089-2.237 0-.28.314-.56.627-.466.209 0 .418.186.522.372.418 1.119.836 2.237 2.403 2.61 0-.186 0-.093.104.094z" fill="#FCF3EB"/><path d="M647.869 471.159c-1.358 1.398-4.283 1.864-5.745.839-.313-.186-.418-.559-.209-.839.105-.186.314-.279.522-.279 1.149-.187 1.463-.746 1.463-1.678.104-1.119 1.044-1.212 1.984-1.025.732.186 1.567.466 2.194.838 1.358.746.627 1.212-.314 1.678-.208 0-.313-.279-.522-.093.314.186.522.373.627.559z" fill="#fff"/><path d="M646.198 452.517c.94.186 2.507-.466 2.611.652.104 1.399-1.567.839-2.507 1.119-.835.186-1.775.186-2.716.093-.417 0-.835-.279-.835-.745 0-.467.313-.746.835-.839.836-.187 1.776-.187 2.612-.28z" fill="#FAECDF"/><path d="M644.422 467.151c-.731.093-1.462.093-2.089-.186-.209-.093-.418-.373-.418-.56-.104-.279.105-.559.522-.652H647.764c.418 0 .732.28.732.652 0 .373-.314.746-.732.746h-3.342z" fill="#FBF5EF"/><path d="M645.467 450.466h-1.881c-.313 0-.626-.279-.626-.559 0-.373.209-.652.626-.746a16.502 16.502 0 014.283 0c.209 0 .418.28.522.466.105.28 0 .653-.418.746h-.104c-.836.093-1.567.187-2.402.187v-.094z" fill="#FDF6EF"/><path d="M647.869 471.159c-.522-.559-1.462-.466-2.611-1.025 1.462-.28 2.089-.093 2.715.559l-.104.466z" fill="#E5A973"/><path d="M20.433 211.97c.691.383 1.314.929 2.032 1.565.833.782 1.109 1.336 1.157 1.759.047.41-.093.94-.684 1.746l-.035.048-.03.052c-.711 1.263-2.633 1.819-4.158 1.107l-.043-.02-.045-.016a26.847 26.847 0 01-4.282-1.986l-.017-.009-.017-.009c-2.973-1.545-6.041-2.816-9.202-3.902-.914-.36-1.752-.693-2.487-1.1l-.003-.002c-1.005-.551-1.388-.974-1.531-1.307-.129-.301-.15-.739.168-1.583l.007-.02.007-.02c.309-.939.703-1.468 1.202-1.785.506-.322 1.261-.515 2.476-.485.172.034.384.068.592.102l.21.033c.335.056.679.117.988.196 4.85 1.228 9.41 3.161 13.68 5.627l.007.004.008.005zm38.544 54.238l-.007.011-.008.01c-.56.828-1.184 1.53-1.96 2.066l-.027.018-.025.02c-.804.634-1.479.904-2.095.952-.617.047-1.303-.118-2.148-.592l-.032-.018-.034-.016c-1.483-.692-1.986-2.105-1.43-3.338l.01-.021.008-.021c.566-1.422 1.425-2.868 2.394-4.156l.022-.029.02-.031c1.634-2.536 3.074-5.177 4.211-8.01.403-.804.77-1.528 1.218-2.163l.002-.003c.605-.867 1.09-1.258 1.544-1.425.444-.163 1.03-.174 1.981.105 1.122.375 1.768.787 2.15 1.255.356.439.573 1.043.582 2.019-.091.608-.264 1.229-.459 1.92a44.552 44.552 0 01-5.917 11.447zm9.501 56.401l-.02-.012-.019-.01a77.108 77.108 0 00-11.354-4.899l-.02-.007-.02-.006c-.804-.237-1.638-.644-2.424-1.079l-.06-.033-.063-.025c-1.12-.435-1.53-1.556-1.157-2.439l.022-.053.016-.054c.259-.878.667-1.493 1.157-1.887.484-.39 1.114-.619 1.923-.619.621 0 1.245.079 1.874.238l.011.003c5.44 1.316 10.577 3.417 15.216 6.299.655.501 1.31 1.083 1.869 1.661l.064.067.076.054c.172.122.386.488.386.975 0 1.641-1.526 3.119-3.745 3.119-.335 0-.598-.047-1.007-.122a6.472 6.472 0 01-.15-.027c-.959-.342-1.772-.67-2.575-1.144zM87.44 33.384l.384 1.02.983-.47c1.142-.545 2.373-.785 3.712-.712 1.445.208 2.27.726 2.637 1.274.338.503.445 1.268-.106 2.395l-.012.025-.01.025c-.492 1.162-1.486 2.139-2.862 2.676-.586.21-1.181.542-1.518 1.14-.353.626-.29 1.3-.098 1.882.198.702.36 1.385.36 2.034v.07l.01.07c.17 1.2-.082 2.412-.689 3.487l-.007.013-.007.013c-.582 1.106-1.377 1.59-2.127 1.664-.758.074-1.696-.251-2.592-1.226-.742-.908-1.273-1.783-1.626-2.798-.143-.438-.42-.95-.986-1.228-.563-.277-1.168-.203-1.691-.03h0l-.007.003a5.547 5.547 0 01-3.495 0l-.04-.014-.043-.01c-1.456-.36-2.333-1.396-2.478-2.556l-.011-.09-.027-.085c-.32-1.02.21-2.186 1.511-2.836h0l.006-.002c.42-.213.87-.376 1.379-.559.287-.103.592-.213.921-.343.778-.307 1.777-.758 2.324-1.59.344-.523.393-1.08.328-1.564-.062-.457-.231-.896-.38-1.252a28.247 28.247 0 00-.162-.378 10.991 10.991 0 01-.264-.643c-.114-.314-.165-.552-.165-.742v-.07l-.01-.07a6.662 6.662 0 010-1.87l.004-.029.003-.03c.062-.779.726-1.62 1.773-1.886l.009-.002.008-.003c.948-.258 1.95.077 2.498.744l.05.061.06.053c.581.516 1.008 1.109 1.362 1.804.145.382.31.76.474 1.14l.043.097c.188.435.382.886.574 1.398z" stroke="#050404" stroke-width="2"/><path d="M139.44 245.384l.384 1.02.983-.469c1.142-.546 2.373-.786 3.712-.713 1.445.208 2.269.726 2.637 1.274.338.503.445 1.268-.106 2.395l-.012.025-.01.025c-.492 1.162-1.486 2.139-2.861 2.676-.587.21-1.182.542-1.519 1.14-.353.626-.29 1.299-.098 1.882.198.702.36 1.385.36 2.034v.07l.01.069c.169 1.201-.082 2.413-.689 3.488l-.007.013-.007.013c-.582 1.106-1.377 1.591-2.127 1.664-.758.074-1.696-.251-2.592-1.226-.742-.908-1.273-1.783-1.626-2.798-.143-.438-.42-.949-.986-1.228-.563-.277-1.168-.203-1.691-.029h0l-.008.002a5.552 5.552 0 01-3.494 0l-.041-.014-.042-.01c-1.456-.359-2.333-1.396-2.478-2.556l-.011-.089-.027-.086c-.32-1.021.21-2.186 1.511-2.835h0l.006-.003c.42-.213.87-.376 1.379-.559.287-.103.592-.214.921-.343.778-.307 1.777-.758 2.324-1.59.344-.523.393-1.081.328-1.564-.062-.457-.231-.896-.38-1.252a23.819 23.819 0 00-.162-.378c-.097-.224-.184-.424-.263-.643-.115-.314-.166-.552-.166-.742v-.07l-.01-.069a6.656 6.656 0 010-1.87l.004-.03.003-.029c.062-.78.726-1.622 1.773-1.887l.009-.002.008-.003c.948-.258 1.95.077 2.498.744l.05.062.06.052c.581.516 1.008 1.109 1.362 1.804.145.382.31.761.474 1.139l.043.098c.188.435.382.886.574 1.398zM208.558 101.537c-.158.337-.536.721-1.467 1.176-1.06.49-1.883.646-2.552.58-.65-.064-1.258-.347-1.885-.94l-.012-.011-.012-.011a4.321 4.321 0 01-.903-1.086l-.012-.022-.013-.021c-2.751-4.355-4.712-9.044-5.702-13.893v-.974c0-1.186.233-1.855.578-2.273.343-.414.935-.748 2.03-.95 1.201-.205 2.029-.116 2.631.166.582.273 1.093.795 1.53 1.76.509 1.175.976 2.259 1.255 3.412l.005.022.006.022a49.03 49.03 0 003.691 9.194c.3.71.566 1.346.743 2.053l.004.02.006.019c.275.935.23 1.432.079 1.757z" stroke="#040303" stroke-width="2"/><path d="M825.433 113.97c.691.383 1.314.929 2.032 1.565.833.782 1.109 1.336 1.157 1.759.047.41-.093.94-.684 1.746l-.035.048-.029.052c-.712 1.263-2.634 1.819-4.159 1.107l-.043-.02-.045-.016a26.842 26.842 0 01-4.282-1.986l-.017-.009-.017-.009c-2.973-1.545-6.041-2.816-9.202-3.902-.914-.36-1.752-.693-2.487-1.1l-.003-.002c-1.005-.551-1.388-.974-1.531-1.307-.129-.301-.149-.739.168-1.583l.007-.02.007-.02c.309-.939.703-1.468 1.202-1.785.506-.322 1.261-.515 2.476-.485.172.034.384.068.592.102l.209.033c.336.056.68.117.989.196 4.85 1.228 9.409 3.161 13.68 5.627l.007.004.008.005zm38.544 54.238l-.007.011-.007.01c-.561.828-1.185 1.53-1.961 2.066l-.027.018-.025.02c-.804.634-1.479.904-2.095.952-.617.047-1.303-.118-2.148-.592l-.032-.018-.034-.016c-1.483-.692-1.986-2.105-1.43-3.338l.009-.021.009-.021c.566-1.422 1.425-2.868 2.394-4.156l.022-.029.02-.031c1.634-2.536 3.074-5.177 4.211-8.01.403-.804.77-1.528 1.218-2.163l.002-.003c.605-.867 1.09-1.258 1.544-1.425.444-.163 1.031-.174 1.981.105 1.122.375 1.768.787 2.149 1.255.357.439.574 1.043.583 2.019-.091.608-.264 1.229-.459 1.92a44.55 44.55 0 01-5.917 11.447zm9.501 56.401l-.019-.012-.02-.01a77.125 77.125 0 00-11.354-4.899l-.02-.007-.02-.006c-.804-.237-1.638-.644-2.424-1.079l-.059-.033-.064-.025c-1.121-.435-1.53-1.556-1.157-2.439l.022-.053.016-.054c.259-.878.667-1.493 1.157-1.887.484-.39 1.114-.619 1.923-.619.621 0 1.245.079 1.875.238l.01.003c5.441 1.316 10.577 3.417 15.216 6.299a17.293 17.293 0 011.869 1.661l.064.067.076.054c.172.122.387.488.387.975 0 1.641-1.527 3.119-3.746 3.119-.335 0-.598-.047-1.007-.122a6.09 6.09 0 01-.149-.027c-.96-.342-1.773-.67-2.576-1.144zM768.433 236.97c.691.383 1.314.929 2.032 1.565.833.782 1.109 1.336 1.157 1.759.047.41-.093.94-.684 1.746l-.035.048-.029.052c-.712 1.263-2.634 1.819-4.159 1.107l-.043-.02-.045-.016a26.842 26.842 0 01-4.282-1.986l-.017-.009-.017-.009c-2.973-1.545-6.041-2.816-9.202-3.902-.914-.36-1.752-.693-2.487-1.1l-.003-.002c-1.005-.551-1.388-.974-1.531-1.307-.129-.301-.149-.739.168-1.583l.007-.02.007-.02c.309-.939.703-1.468 1.202-1.785.506-.322 1.261-.515 2.476-.485.172.034.384.068.592.102l.209.033c.336.056.68.117.989.196 4.85 1.228 9.409 3.161 13.68 5.627l.007.004.008.005zm38.544 54.238l-.007.011-.007.01c-.561.828-1.185 1.53-1.961 2.066l-.027.018-.025.02c-.804.634-1.479.904-2.095.952-.617.047-1.303-.118-2.148-.592l-.032-.018-.034-.016c-1.483-.692-1.986-2.105-1.43-3.338l.009-.021.009-.021c.566-1.422 1.425-2.868 2.394-4.156l.022-.029.02-.031c1.634-2.536 3.074-5.177 4.211-8.01.403-.804.77-1.528 1.218-2.163l.002-.003c.605-.867 1.09-1.258 1.544-1.425.444-.163 1.031-.174 1.981.105 1.122.375 1.768.787 2.149 1.255.357.439.574 1.043.583 2.019-.091.608-.264 1.229-.459 1.92a44.55 44.55 0 01-5.917 11.447zm9.501 56.401l-.019-.012-.02-.01a77.125 77.125 0 00-11.354-4.899l-.02-.007-.02-.006c-.804-.237-1.638-.644-2.424-1.079l-.059-.033-.064-.025c-1.121-.435-1.53-1.556-1.157-2.439l.022-.053.016-.054c.259-.878.667-1.493 1.157-1.887.484-.39 1.114-.619 1.923-.619.621 0 1.245.079 1.875.238l.01.003c5.441 1.316 10.577 3.417 15.216 6.299a17.293 17.293 0 011.869 1.661l.064.067.076.054c.172.122.387.488.387.975 0 1.641-1.527 3.119-3.746 3.119-.335 0-.598-.047-1.007-.122a6.09 6.09 0 01-.149-.027c-.96-.342-1.773-.67-2.576-1.144zM888.44 6.384l.384 1.02.983-.47c1.142-.545 2.373-.785 3.712-.712 1.445.208 2.269.726 2.637 1.274.338.503.445 1.268-.106 2.395l-.012.025-.01.025c-.492 1.162-1.486 2.138-2.861 2.676-.587.21-1.182.542-1.519 1.14-.353.626-.29 1.3-.098 1.882.198.702.36 1.385.36 2.034v.07l.01.07c.169 1.2-.082 2.412-.689 3.487l-.007.013-.007.013c-.582 1.106-1.377 1.59-2.127 1.664-.758.074-1.696-.251-2.592-1.226-.742-.908-1.273-1.783-1.626-2.798-.143-.438-.42-.95-.986-1.228-.563-.277-1.168-.203-1.691-.03h0l-.008.003a5.547 5.547 0 01-3.494 0l-.041-.014-.042-.01c-1.456-.36-2.333-1.396-2.478-2.556l-.011-.09-.027-.085c-.32-1.02.21-2.186 1.511-2.835h0l.006-.003c.42-.213.87-.376 1.379-.559.287-.103.592-.213.921-.343.778-.307 1.777-.758 2.324-1.59.344-.523.393-1.08.328-1.564-.062-.457-.231-.896-.38-1.252-.057-.137-.111-.26-.162-.378-.097-.224-.184-.424-.263-.643-.115-.314-.166-.552-.166-.742v-.07l-.01-.07a6.655 6.655 0 010-1.87l.004-.029.003-.03c.062-.779.726-1.62 1.773-1.886l.009-.002.008-.003c.948-.258 1.95.077 2.498.744l.05.062.06.052c.581.516 1.008 1.109 1.362 1.804.145.382.31.76.474 1.14l.043.097c.188.435.382.886.574 1.398z" stroke="#050404" stroke-width="2"/><path d="M942.44 257.384l.384 1.02.983-.469c1.142-.546 2.373-.786 3.712-.713 1.445.208 2.269.726 2.637 1.274.338.503.445 1.268-.106 2.395l-.012.025-.01.025c-.492 1.162-1.486 2.139-2.861 2.676-.587.21-1.182.542-1.519 1.14-.353.626-.29 1.299-.098 1.882.198.702.36 1.385.36 2.034v.07l.01.069c.169 1.201-.082 2.413-.689 3.488l-.007.013-.007.013c-.582 1.106-1.377 1.591-2.127 1.664-.758.074-1.696-.251-2.592-1.226-.742-.908-1.273-1.783-1.626-2.798-.143-.438-.42-.949-.986-1.228-.563-.277-1.168-.203-1.691-.029h0l-.008.002a5.552 5.552 0 01-3.494 0l-.041-.014-.042-.01c-1.456-.359-2.333-1.396-2.478-2.556l-.011-.089-.027-.086c-.32-1.021.21-2.186 1.511-2.835h0l.006-.003c.42-.213.87-.376 1.379-.559.287-.103.592-.214.921-.343.778-.307 1.777-.758 2.324-1.59.344-.523.393-1.081.328-1.564-.062-.457-.231-.896-.38-1.252a23.819 23.819 0 00-.162-.378c-.097-.224-.184-.424-.263-.643-.115-.314-.166-.552-.166-.742v-.07l-.01-.069a6.656 6.656 0 010-1.87l.004-.03.003-.029c.062-.78.726-1.622 1.773-1.887l.009-.002.008-.003c.948-.258 1.95.077 2.498.744l.05.062.06.052c.581.516 1.008 1.109 1.362 1.804.145.382.31.761.474 1.139l.043.098c.188.435.382.886.574 1.398zM986.141 192.537c-.157.337-.535.721-1.467 1.176-1.06.49-1.883.646-2.552.58-.65-.064-1.258-.347-1.885-.94l-.011-.011-.012-.011a4.28 4.28 0 01-.903-1.086l-.013-.022-.013-.021c-2.75-4.355-4.712-9.044-5.702-13.893v-.974c0-1.186.233-1.855.579-2.273.343-.414.934-.747 2.029-.951 1.202-.204 2.03-.115 2.631.167.582.273 1.093.795 1.53 1.761.509 1.174.976 2.258 1.255 3.411l.005.022.007.022a48.89 48.89 0 003.691 9.194c.299.709.565 1.346.742 2.053l.005.02.005.019c.276.935.231 1.432.079 1.757z" stroke="#040303" stroke-width="2"/></svg>