<svg viewBox="0 0 747 164" fill="none" xmlns="http://www.w3.org/2000/svg"><path d="M161.401 87.707l-35.365 36.826c-11.549 12.111-27.125 18.784-43.858 18.784-33.398 0-60.566-27.168-60.566-60.565 0-18.86 8.56-36.315 23.487-47.893 10.697-8.291 23.512-12.673 37.08-12.673 34.601 0 57.272 32.205 79.256 54.197 3.09 3.08 3.106 8.12-.034 11.324zm15.315-26.61C149.26 33.633 124.927.573 82.178.573c-18.404 0-35.804 5.948-50.316 17.207C11.607 33.48 0 57.163 0 82.752c0 45.315 36.868 82.177 82.178 82.177 22.702 0 43.832-9.05 59.469-25.457l35.254-36.708c11.338-11.545 11.254-30.236-.185-41.667zM258.507 116.936c-7.399 0-14.04-1.56-19.924-4.68-5.883-3.12-10.474-7.443-13.772-12.97-3.298-5.616-4.947-11.945-4.947-18.987 0-7.042 1.649-13.327 4.947-18.853 3.298-5.527 7.845-9.85 13.639-12.97 5.883-3.12 12.569-4.68 20.057-4.68 7.042 0 13.192 1.426 18.452 4.278 5.348 2.853 9.36 6.953 12.034 12.302l-12.836 7.488c-2.051-3.299-4.636-5.75-7.756-7.354-3.031-1.694-6.373-2.54-10.028-2.54-6.24 0-11.41 2.05-15.511 6.15-4.1 4.011-6.151 9.404-6.151 16.179 0 6.775 2.006 12.212 6.018 16.313 4.1 4.011 9.315 6.017 15.644 6.017 3.655 0 6.997-.802 10.028-2.407 3.12-1.694 5.705-4.19 7.756-7.488l12.836 7.488c-2.764 5.349-6.819 9.494-12.168 12.435-5.259 2.853-11.365 4.279-18.318 4.279zM334.487 116.936c-7.22 0-13.727-1.56-19.522-4.68-5.794-3.12-10.34-7.443-13.638-12.97-3.209-5.616-4.814-11.945-4.814-18.987 0-7.042 1.605-13.327 4.814-18.853 3.298-5.527 7.844-9.85 13.638-12.97 5.795-3.12 12.302-4.68 19.522-4.68 7.31 0 13.862 1.56 19.656 4.68 5.794 3.12 10.296 7.443 13.505 12.97 3.298 5.526 4.947 11.81 4.947 18.853 0 7.042-1.649 13.371-4.947 18.987-3.209 5.527-7.711 9.85-13.505 12.97-5.794 3.12-12.346 4.68-19.656 4.68zm0-14.307c6.151 0 11.232-2.05 15.243-6.15 4.012-4.101 6.018-9.494 6.018-16.18s-2.006-12.079-6.018-16.18c-4.011-4.1-9.092-6.15-15.243-6.15-6.15 0-11.231 2.05-15.243 6.15-3.922 4.101-5.883 9.494-5.883 16.18s1.961 12.079 5.883 16.18c4.012 4.1 9.093 6.15 15.243 6.15zM420.669 116.936c-7.221 0-13.728-1.56-19.522-4.68-5.794-3.12-10.34-7.443-13.639-12.97-3.209-5.616-4.813-11.945-4.813-18.987 0-7.042 1.604-13.327 4.813-18.853 3.299-5.527 7.845-9.85 13.639-12.97 5.794-3.12 12.301-4.68 19.522-4.68 7.309 0 13.861 1.56 19.656 4.68 5.794 3.12 10.295 7.443 13.504 12.97 3.299 5.526 4.948 11.81 4.948 18.853 0 7.042-1.649 13.371-4.948 18.987-3.209 5.527-7.71 9.85-13.504 12.97-5.795 3.12-12.347 4.68-19.656 4.68zm0-14.307c6.151 0 11.232-2.05 15.243-6.15 4.011-4.101 6.017-9.494 6.017-16.18s-2.006-12.079-6.017-16.18c-4.011-4.1-9.092-6.15-15.243-6.15s-11.232 2.05-15.243 6.15c-3.923 4.101-5.884 9.494-5.884 16.18s1.961 12.079 5.884 16.18c4.011 4.1 9.092 6.15 15.243 6.15zM474.76 16.786h16.714V116H474.76V16.786zM518.759 116.936c-3.031 0-5.616-1.025-7.755-3.075-2.14-2.14-3.209-4.814-3.209-8.023 0-3.298 1.025-5.972 3.075-8.023 2.14-2.05 4.769-3.075 7.889-3.075s5.705 1.025 7.755 3.075c2.14 2.05 3.21 4.725 3.21 8.023 0 3.209-1.07 5.883-3.21 8.023-2.139 2.05-4.724 3.075-7.755 3.075zM585.634 43.796c6.953 0 13.148 1.515 18.586 4.546 5.527 3.03 9.85 7.31 12.97 12.836 3.12 5.527 4.68 11.9 4.68 19.121 0 7.22-1.56 13.639-4.68 19.254-3.12 5.527-7.443 9.806-12.97 12.837-5.438 3.031-11.633 4.546-18.586 4.546-4.903 0-9.404-.847-13.505-2.54-4.011-1.694-7.399-4.235-10.162-7.622V116h-15.912V16.786h16.714v36.503c2.853-3.12 6.196-5.482 10.029-7.087 3.922-1.604 8.201-2.406 12.836-2.406zm-1.872 58.833c6.151 0 11.187-2.05 15.109-6.15 4.012-4.101 6.017-9.494 6.017-16.18s-2.005-12.079-6.017-16.18c-3.922-4.1-8.958-6.15-15.109-6.15-4.011 0-7.622.936-10.831 2.808-3.209 1.783-5.749 4.368-7.621 7.755-1.872 3.388-2.808 7.31-2.808 11.767s.936 8.38 2.808 11.767c1.872 3.387 4.412 6.017 7.621 7.889 3.209 1.782 6.82 2.674 10.831 2.674zM637.721 44.598h16.714V116h-16.714V44.598zm8.424-11.767c-3.031 0-5.571-.936-7.622-2.808-2.05-1.96-3.075-4.368-3.075-7.22 0-2.853 1.025-5.215 3.075-7.087 2.051-1.961 4.591-2.942 7.622-2.942 3.031 0 5.571.936 7.622 2.808 2.05 1.783 3.075 4.056 3.075 6.82 0 2.941-1.025 5.437-3.075 7.488-1.962 1.96-4.502 2.941-7.622 2.941zM708.463 116.936c-7.22 0-13.728-1.56-19.522-4.68-5.794-3.12-10.34-7.443-13.639-12.97-3.209-5.616-4.813-11.945-4.813-18.987 0-7.042 1.604-13.327 4.813-18.853 3.299-5.527 7.845-9.85 13.639-12.97 5.794-3.12 12.302-4.68 19.522-4.68 7.31 0 13.862 1.56 19.656 4.68 5.794 3.12 10.296 7.443 13.505 12.97 3.298 5.526 4.947 11.81 4.947 18.853 0 7.042-1.649 13.371-4.947 18.987-3.209 5.527-7.711 9.85-13.505 12.97-5.794 3.12-12.346 4.68-19.656 4.68zm0-14.307c6.151 0 11.232-2.05 15.243-6.15 4.012-4.101 6.017-9.494 6.017-16.18s-2.005-12.079-6.017-16.18c-4.011-4.1-9.092-6.15-15.243-6.15s-11.232 2.05-15.243 6.15c-3.922 4.101-5.883 9.494-5.883 16.18s1.961 12.079 5.883 16.18c4.011 4.1 9.092 6.15 15.243 6.15z" fill="#F87E0F"/><path d="M66.738 60.088l23.099 22.997-22.989 22.222 15.028 15.541 38.826-37.535-38.717-38.54-15.247 15.315z" fill="#F87E0F"/></svg>