<svg width="732" height="179" fill="none" xmlns="http://www.w3.org/2000/svg"><path d="M161.401 100.957l-35.365 36.827c-11.549 12.111-27.125 18.784-43.858 18.784-33.398 0-60.566-27.168-60.566-60.565 0-18.86 8.56-36.315 23.487-47.894 10.697-8.29 23.512-12.672 37.08-12.672 34.601 0 57.272 32.204 79.256 54.196 3.09 3.082 3.106 8.122-.034 11.324zm15.315-26.61c-27.456-27.463-51.789-60.523-94.538-60.523-18.404 0-35.804 5.948-50.316 17.207C11.607 46.732 0 70.413 0 96.003c0 45.314 36.868 82.177 82.178 82.177 22.702 0 43.832-9.051 59.469-25.457l35.254-36.708c11.338-11.546 11.254-30.236-.185-41.667zM257.169 129.919c-6.953 0-13.192-1.515-18.719-4.546-5.438-3.031-9.717-7.265-12.837-12.703-3.12-5.526-4.68-11.722-4.68-18.585 0-6.864 1.56-13.015 4.68-18.453 3.12-5.437 7.399-9.672 12.837-12.702 5.527-3.031 11.766-4.547 18.719-4.547 6.062 0 11.455 1.204 16.18 3.61 4.813 2.318 8.602 5.75 11.365 10.296l-7.087 4.814c-2.317-3.477-5.259-6.062-8.825-7.755-3.565-1.783-7.443-2.674-11.633-2.674-5.081 0-9.671 1.158-13.772 3.476-4.011 2.229-7.176 5.438-9.493 9.627-2.229 4.19-3.343 8.959-3.343 14.308 0 5.437 1.114 10.251 3.343 14.44 2.317 4.101 5.482 7.31 9.493 9.628 4.101 2.228 8.691 3.342 13.772 3.342 4.19 0 8.068-.846 11.633-2.54 3.566-1.694 6.508-4.279 8.825-7.755l7.087 4.813c-2.763 4.546-6.552 8.023-11.365 10.43-4.814 2.317-10.207 3.476-16.18 3.476zm73.768 0c-6.775 0-12.881-1.515-18.319-4.546-5.438-3.12-9.716-7.399-12.836-12.836-3.12-5.438-4.68-11.589-4.68-18.453 0-6.863 1.56-13.014 4.68-18.452 3.12-5.437 7.398-9.672 12.836-12.702 5.438-3.031 11.544-4.547 18.319-4.547 6.774 0 12.881 1.516 18.318 4.547 5.438 3.03 9.672 7.265 12.703 12.702 3.12 5.438 4.68 11.589 4.68 18.453 0 6.863-1.56 13.014-4.68 18.452-3.031 5.437-7.265 9.716-12.703 12.836-5.437 3.031-11.544 4.546-18.318 4.546zm0-8.424c4.992 0 9.449-1.114 13.371-3.342 4.011-2.318 7.131-5.572 9.36-9.761 2.228-4.19 3.342-8.959 3.342-14.307 0-5.349-1.114-10.118-3.342-14.308-2.229-4.19-5.349-7.398-9.36-9.627-3.922-2.318-8.379-3.477-13.371-3.477-4.992 0-9.494 1.16-13.505 3.477-3.922 2.229-7.042 5.438-9.36 9.627-2.229 4.19-3.343 8.959-3.343 14.308 0 5.348 1.114 10.117 3.343 14.307 2.318 4.189 5.438 7.443 9.36 9.761 4.011 2.228 8.513 3.342 13.505 3.342zm83.831 8.424c-6.775 0-12.881-1.515-18.319-4.546-5.437-3.12-9.716-7.399-12.836-12.836-3.12-5.438-4.68-11.589-4.68-18.453 0-6.863 1.56-13.014 4.68-18.452 3.12-5.437 7.399-9.672 12.836-12.702 5.438-3.031 11.544-4.547 18.319-4.547 6.775 0 12.881 1.516 18.318 4.547 5.438 3.03 9.672 7.265 12.703 12.702 3.12 5.438 4.68 11.589 4.68 18.453 0 6.863-1.56 13.014-4.68 18.452-3.031 5.437-7.265 9.716-12.703 12.836-5.437 3.031-11.543 4.546-18.318 4.546zm0-8.424c4.992 0 9.449-1.114 13.371-3.342 4.011-2.318 7.131-5.572 9.36-9.761 2.228-4.19 3.343-8.959 3.343-14.307 0-5.349-1.115-10.118-3.343-14.308-2.229-4.19-5.349-7.398-9.36-9.627-3.922-2.318-8.379-3.477-13.371-3.477-4.992 0-9.494 1.16-13.505 3.477-3.922 2.229-7.042 5.438-9.36 9.627-2.228 4.19-3.343 8.959-3.343 14.308 0 5.348 1.115 10.117 3.343 14.307 2.318 4.189 5.438 7.443 9.36 9.761 4.011 2.228 8.513 3.342 13.505 3.342zm55.083-91.459h9.493v99.215h-9.493V30.036zm36.845 99.883c-1.961 0-3.655-.713-5.081-2.139-1.337-1.426-2.006-3.165-2.006-5.215s.669-3.744 2.006-5.081c1.426-1.426 3.12-2.139 5.081-2.139 1.961 0 3.655.713 5.081 2.139 1.426 1.337 2.139 3.031 2.139 5.081 0 2.05-.713 3.789-2.139 5.215-1.426 1.426-3.12 2.139-5.081 2.139zm63.635-71.536c6.597 0 12.569 1.516 17.918 4.547 5.348 2.941 9.538 7.13 12.569 12.569 3.03 5.437 4.546 11.633 4.546 18.586 0 6.953-1.516 13.148-4.546 18.585-3.031 5.438-7.221 9.672-12.569 12.703-5.349 3.031-11.321 4.546-17.918 4.546-5.883 0-11.187-1.248-15.911-3.744-4.636-2.496-8.38-6.106-11.232-10.83v13.906h-9.093V30.036h9.494V72.29c2.942-4.546 6.685-7.978 11.232-10.295 4.635-2.407 9.805-3.61 15.51-3.61zm-.668 63.112c4.902 0 9.36-1.114 13.371-3.342 4.011-2.318 7.131-5.572 9.36-9.761 2.317-4.19 3.476-8.959 3.476-14.307 0-5.349-1.159-10.118-3.476-14.308-2.229-4.19-5.349-7.398-9.36-9.627-4.011-2.318-8.469-3.477-13.371-3.477-4.992 0-9.494 1.16-13.505 3.477-3.922 2.229-7.042 5.438-9.36 9.627-2.229 4.19-3.343 8.959-3.343 14.308 0 5.348 1.114 10.117 3.343 14.307 2.318 4.189 5.438 7.443 9.36 9.761 4.011 2.228 8.513 3.342 13.505 3.342zm55.054-62.577h9.493v70.333h-9.493V58.918zm4.813-15.377c-1.961 0-3.61-.668-4.947-2.005-1.337-1.337-2.006-2.942-2.006-4.814 0-1.783.669-3.343 2.006-4.68 1.337-1.337 2.986-2.006 4.947-2.006 1.961 0 3.61.669 4.947 2.006 1.338 1.248 2.006 2.764 2.006 4.546 0 1.961-.668 3.61-2.006 4.948-1.337 1.337-2.986 2.005-4.947 2.005zm59.844 86.378c-6.775 0-12.881-1.515-18.319-4.546-5.438-3.12-9.716-7.399-12.836-12.836-3.12-5.438-4.68-11.589-4.68-18.453 0-6.863 1.56-13.014 4.68-18.452 3.12-5.437 7.398-9.672 12.836-12.702 5.438-3.031 11.544-4.547 18.319-4.547 6.774 0 12.881 1.516 18.318 4.547 5.438 3.03 9.672 7.265 12.703 12.702 3.12 5.438 4.68 11.589 4.68 18.453 0 6.863-1.56 13.014-4.68 18.452-3.031 5.437-7.265 9.716-12.703 12.836-5.437 3.031-11.544 4.546-18.318 4.546zm0-8.424c4.992 0 9.449-1.114 13.371-3.342 4.011-2.318 7.131-5.572 9.36-9.761 2.228-4.19 3.342-8.959 3.342-14.307 0-5.349-1.114-10.118-3.342-14.308-2.229-4.19-5.349-7.398-9.36-9.627-3.922-2.318-8.379-3.477-13.371-3.477-4.992 0-9.494 1.16-13.505 3.477-3.923 2.229-7.042 5.438-9.36 9.627-2.229 4.19-3.343 8.959-3.343 14.308 0 5.348 1.114 10.117 3.343 14.307 2.318 4.189 5.437 7.443 9.36 9.761 4.011 2.228 8.513 3.342 13.505 3.342z" fill="#F46D16"/><path d="M66.739 73.339l23.098 22.997-22.989 22.221 15.028 15.542 38.826-37.535-38.716-38.54-15.248 15.315z" fill="#F46D16"/></svg>