<svg width="25" height="30" viewBox="0 0 25 30" fill="none" xmlns="http://www.w3.org/2000/svg">
<path d="M3.16549 17.4792L4.18264 18.1453L4.56739 16.7013C5.24831 14.163 5.17621 14.2751 5.24442 13.9934C5.21673 13.8352 4.49987 11.9282 4.99906 9.61119L5.0089 9.55786C5.6912 5.053 13.2301 3.82688 16.7309 6.75817C18.241 8.02275 18.8093 9.92041 18.3738 12.2461C18.0611 13.9162 17.5152 15.1616 16.6562 16.1652C15.4704 17.5509 13.979 17.6635 13.0955 17.1817C12.7666 17.0025 12.0379 16.4632 12.3757 15.3328C12.8589 13.7148 13.7318 11.2779 13.835 9.51071C13.9271 7.93646 12.9777 6.65518 11.4725 6.32238C9.79482 5.95137 7.86169 6.85682 7.02581 8.96872C6.42431 10.4878 6.42591 12.0666 7.03085 13.7933C7.05053 14.2193 6.61703 15.8256 6.26729 17.1215C5.21009 21.0395 3.76195 26.4049 5.17232 29.1371L5.61796 30L6.43186 29.4706C8.75799 27.9584 10.1169 23.5595 10.8616 20.8191C12.8222 22.2709 15.6004 22.3933 18.3484 21.0514C22.7598 18.8969 25.7026 13.7558 24.2281 8.0319C22.5848 1.65227 16.2067 -0.820567 9.78269 0.235952C4.48705 1.10662 1.11905 4.53687 0.225038 8.76478C-0.529128 12.3319 0.65259 15.834 3.16549 17.4792ZM1.94417 9.12825C2.74274 5.35101 5.77955 2.67492 10.0677 1.96973C15.2175 1.12287 21.0673 2.80447 22.5266 8.47021C23.8763 13.7098 20.9073 17.8464 17.5773 19.4726C15.5345 20.47 12.7584 20.7658 11.0928 18.604L10.0061 17.1936L9.54786 18.9139C8.9427 21.1835 7.964 25.0365 6.39181 27.0957C6.08304 24.5485 7.23089 20.2943 7.96354 17.5795C8.663 14.9879 8.93743 13.9101 8.70351 13.2536C8.23042 11.9259 8.216 10.7359 8.65934 9.61531C9.15601 8.36081 10.2153 7.84376 11.093 8.03785C11.41 8.10812 12.1409 8.38186 12.0809 9.40817C11.9921 10.9263 11.1443 13.3156 10.692 14.8299C10.2171 16.4195 10.8303 17.9482 12.2544 18.7246C13.8547 19.5969 16.2573 19.3334 17.9911 17.3078C19.0586 16.0604 19.729 14.5548 20.1007 12.5695C20.3882 11.0346 20.32 9.62332 19.8981 8.37431C19.5058 7.21251 18.8196 6.2155 17.8588 5.41075C13.3246 1.61428 4.19843 3.3579 3.27581 9.26741C2.94736 10.8124 3.00115 12.4205 3.43534 14.051C3.36553 14.3568 3.26642 14.7484 3.16137 15.151C1.93845 13.713 1.45276 11.4532 1.94417 9.12825Z" fill="#F87E0F"/>
</svg>
