<svg width="33" height="30" viewBox="0 0 33 30" fill="none" xmlns="http://www.w3.org/2000/svg">
<path d="M2.80153 20.1983L1.51821 20.6996C0.157737 21.0053 -0.434113 22.5169 0.35209 23.7184C1.12609 24.9014 2.81349 25.3231 4.10731 25.5755C4.18739 25.9437 4.30337 26.4194 4.58977 26.8349C5.03366 27.4788 5.73685 27.7625 6.5692 27.6336C9.38561 27.1987 9.70278 27.4236 10.7544 28.1688C11.2752 28.5377 12.1178 29.1044 12.6918 29.3752C13.7041 29.7922 14.8522 30 15.9997 30C18.186 30 19.597 29.2453 19.6031 29.2433C20.8627 28.5199 22.5189 26.8642 25.0538 27.5269C25.7985 27.7215 26.4289 27.6587 26.9282 27.3406C27.6443 26.8842 27.8182 26.0839 27.9136 25.5682C29.354 25.2735 31.2242 24.8406 31.8429 23.3522C32.0732 22.7984 32.0539 22.1914 31.79 21.6875C31.5387 21.207 31.0838 20.8559 30.534 20.7145L29.2067 20.2003C27.6883 19.6119 26.528 18.4296 25.9081 16.877H27.3157C28.8666 16.877 30.1284 15.6152 30.1284 14.064C30.1284 12.5131 28.8666 11.2513 27.3157 11.2513H25.4442L25.5255 10.3601C26.0294 4.81537 21.5984 0 16.0019 0C10.4218 0 5.97271 4.79779 6.47837 10.3603L6.55968 11.2513H4.68793C3.13701 11.2513 1.87518 12.5131 1.87518 14.0642C1.87518 15.6152 3.13701 16.8763 4.68793 16.8763H6.11286C5.49195 18.4201 4.32632 19.6026 2.80153 20.1983ZM4.68793 15.0018C4.17104 15.0018 3.75034 14.5811 3.75034 14.0642C3.75034 13.5471 4.17104 13.1264 4.68793 13.1264H8.61382L8.34597 10.1904C7.93138 5.62941 11.6136 1.87517 16.0019 1.87517C20.3881 1.87517 24.0725 5.62795 23.6579 10.1901L23.3903 13.1264H27.3157C27.8328 13.1264 28.2533 13.5471 28.2533 14.0642C28.2533 14.5811 27.8328 15.0018 27.3157 15.0018H23.4945L23.7328 16.1328C24.31 18.8716 26.0582 20.9914 28.5292 21.9487L29.9844 22.5128C30.0537 22.533 30.0496 22.5174 30.1277 22.5552C30.1294 22.5609 30.1299 22.5877 30.1113 22.6324C29.8498 23.2616 28.2347 23.5895 27.367 23.7658C27.259 23.7878 27.1548 23.8088 27.0554 23.8295C26.2953 23.9887 26.1564 24.7517 26.0817 25.1617C26.0519 25.325 25.9913 25.6576 25.9181 25.7569C25.8834 25.7635 25.7675 25.7753 25.5279 25.7125C22.1719 24.8355 19.8905 26.8955 18.709 27.5943C17.1258 28.2874 15.0722 28.3126 13.4487 27.6587C12.7348 27.2739 12.2592 26.937 11.8385 26.6389C10.4594 25.6617 9.70571 25.252 6.2828 25.7806C6.20418 25.7926 6.16169 25.7892 6.14485 25.7865C6.0484 25.6839 5.96099 25.2759 5.9229 25.0992C5.83183 24.6741 5.67923 23.9626 4.94845 23.8261L4.88057 23.8134C4.05774 23.6601 2.34592 23.341 1.92132 22.6917C1.8698 22.6131 1.87273 22.5621 1.87786 22.5504C1.88641 22.5306 2.01239 22.5162 2.03486 22.511L3.48372 21.9451C5.93535 20.9875 7.70309 18.8535 8.28078 16.176L8.5352 15.0018H4.68793Z" fill="#F87E0F"/>
</svg>
