<svg width="20" height="30" viewBox="0 0 20 30" fill="none" xmlns="http://www.w3.org/2000/svg">
<path d="M5.27344 0V2.63672V2.64038V2.64061C5.27138 5.04662 3.31512 7.03125 0.878906 7.03125H0V14.0625H3.51562V20.332C3.51562 25.6629 7.85271 30 13.1836 30H19.3359V21.2109H13.1836C12.6991 21.2109 12.3047 20.8166 12.3047 20.332V14.0625H19.3359V7.03125H12.3047V0H5.27344ZM17.5781 8.78906V12.3047H10.5469V20.332C10.5469 21.7859 11.7297 22.9688 13.1836 22.9688H17.5781V28.2422H13.1836C8.82202 28.2422 5.27344 24.6936 5.27344 20.332V12.3047H1.75781V8.72658C2.98485 8.55034 4.0963 8.01041 4.97887 7.22008L4.9807 7.22237C6.23108 6.10313 7.03125 4.45862 7.03125 2.63672V1.75781H10.5469V8.78906H17.5781Z" fill="#F87E0F"/>
</svg>
