<svg width="30" height="30" viewBox="0 0 30 30" fill="none" xmlns="http://www.w3.org/2000/svg">
<path d="M4.88156 29.2685H14.1201V19.2001H10.8009V15.8809H14.1201V11.7319C14.1201 9.44405 15.9813 7.58281 18.2691 7.58281H22.4182V10.902H19.099C18.1838 10.902 17.4393 11.6465 17.4393 12.5617V15.8809H22.2684L21.7152 19.2001H17.4393V29.2685H24.9076C27.1954 29.2685 29.0567 27.4073 29.0567 25.1194V5.09338C29.0567 2.80557 27.1954 0.944336 24.9076 0.944336H4.88156C2.59375 0.944336 0.732513 2.80557 0.732513 5.09338V25.1194C0.732513 27.4073 2.59375 29.2685 4.88156 29.2685ZM2.39213 5.09338C2.39213 3.72074 3.50892 2.60395 4.88156 2.60395H24.9076C26.2803 2.60395 27.3971 3.72074 27.3971 5.09338V25.1194C27.3971 26.4921 26.2803 27.6089 24.9076 27.6089H19.099V20.8598H23.1212L24.2276 14.2213H19.099V12.5617H24.0778V5.92319H18.2691C15.0662 5.92319 12.4605 8.52888 12.4605 11.7319V14.2213H9.14125V20.8598H12.4605V27.6089H4.88156C3.50892 27.6089 2.39213 26.4921 2.39213 25.1194V5.09338Z" fill="#F87E0F"/>
</svg>
