<svg width="36" height="30" viewBox="0 0 36 30" fill="none" xmlns="http://www.w3.org/2000/svg">
<path d="M1.69644 10.1981C1.78565 10.1377 1.3732 10.417 2.56879 9.60726C3.39395 9.06031 4.12476 8.60746 4.7094 8.60746C4.86396 8.60746 5.33363 8.60746 5.86431 9.39575C7.32889 11.5686 8.24572 15.0727 9.1338 18.4672C10.1355 22.2926 11.1711 26.2478 13.005 28.434C13.8782 29.4731 14.9862 30 16.2978 30C18.0409 30 20.134 29.0609 22.0406 27.4234C27.508 22.7272 35.9446 12.5682 35.5278 5.3762C35.3266 1.90442 33.0677 0 29.9143 0C27.2078 0 24.3849 1.40791 22.7224 3.58703C21.3565 5.37837 21.0566 6.62684 20.4388 7.95502L22.2999 7.65701C22.5906 7.61037 22.8495 7.58759 23.0917 7.58759C23.8483 7.58759 24.4321 7.81917 24.8771 8.29642C25.3313 8.78236 25.5192 9.45622 25.4514 10.356C25.2328 13.251 22.301 17.5384 20.431 19.016C20.2013 19.1977 19.9095 19.3062 19.6511 19.3062C19.4163 19.3062 18.7923 19.3062 18.0574 17.4522C16.8299 14.3562 15.9521 7.02573 14.6407 3.01567C14.1401 1.48682 12.7382 0.498951 11.0689 0.498951C9.9511 0.498951 8.80107 0.942313 7.74378 1.78023C3.00483 5.53158 1.98794 6.44542 0 8.0719L1.69644 10.1981ZM9.03672 3.41239C9.72278 2.8687 10.4254 2.58126 11.0689 2.58126C11.833 2.58126 12.4434 2.99615 12.662 3.66323C13.7922 7.11955 14.9075 15.1573 16.1218 18.2196C16.4326 19.0035 17.3782 21.3882 19.6511 21.3882C20.3735 21.3882 21.1284 21.1189 21.7223 20.6495C23.9076 18.9227 27.256 14.1152 27.5278 10.5124C27.64 9.02045 27.2601 7.79666 26.3991 6.87577C25.7332 6.16097 24.8711 5.71489 23.8762 5.56331C24.0308 5.3236 24.1978 5.08632 24.3781 4.84986C25.6605 3.16861 27.8336 2.08204 29.9143 2.08204C31.4367 2.08204 33.2855 2.67454 33.449 5.49633C33.8186 11.8729 25.626 21.5989 20.684 25.8438C19.1944 27.1229 17.5137 27.9177 16.2978 27.9177C15.6015 27.9177 15.0776 27.6636 14.5995 27.095C13.0668 25.2681 12.0914 21.5425 11.1467 17.9346C10.216 14.3771 9.25365 10.6987 7.59138 8.23243C6.79415 7.04823 5.86187 6.64907 5.11561 6.55145C6.48962 5.43369 7.8395 4.36013 9.03672 3.41239Z" fill="#F87E0F"/>
</svg>
