<svg width="30" height="30" viewBox="0 0 30 30" fill="none" xmlns="http://www.w3.org/2000/svg">
<path d="M7.25578 27.8593C9.57367 29.2541 12.2239 29.9892 14.9469 29.9892C23.1983 29.9892 30 23.256 30 14.9945C30 6.74263 23.2079 0 14.9469 0C6.71104 0 0.0107575 6.72661 0.0107575 14.9945C0.0107575 17.7539 0.746155 20.4243 2.14073 22.744L0 30L7.25578 27.8593ZM1.76811 14.9945C1.76811 7.69547 7.68013 1.75713 14.9469 1.75713C22.2782 1.75713 28.2429 7.69547 28.2429 14.9945C28.2429 22.2938 22.2782 28.2319 14.9469 28.2319C12.4242 28.2319 9.97261 27.5173 7.85797 26.1651L7.52014 25.9492L2.59895 27.4013L4.05075 22.4799L3.83492 22.1423C2.48268 20.0272 1.76811 17.5557 1.76811 14.9945Z" fill="#F87E0F"/>
<path d="M7.30233 12.2317C7.59255 13.7558 8.45406 16.6873 10.9624 19.1956C13.4707 21.704 16.4022 22.5657 17.9266 22.8559C19.672 23.1882 22.2334 23.2384 23.4852 21.9866L24.1831 21.2888C24.5353 20.9365 24.7294 20.468 24.7294 19.9697C24.7294 19.4714 24.5353 19.0031 24.1831 18.6509L21.3923 15.8601C21.0398 15.5077 20.5715 15.3138 20.0732 15.3138C19.575 15.3138 19.1067 15.5077 18.7542 15.8601L18.0566 16.5578C17.6304 16.984 16.8259 16.9858 16.3965 16.563L13.6128 13.6626C13.6087 13.6583 13.6046 13.6539 13.6002 13.6498C13.1734 13.223 13.1734 12.5283 13.6002 12.1014L14.2979 11.4038C15.0271 10.6746 15.0271 9.49471 14.2979 8.76572L11.5071 5.97496C10.78 5.24781 9.59664 5.24781 8.86925 5.97496L8.17162 6.67282V6.6726C7.17255 7.67189 6.83953 9.80187 7.30233 12.2317ZM9.41422 7.91542C10.1466 7.19971 10.1075 7.18598 10.1883 7.18598C10.216 7.18598 10.2437 7.19651 10.2647 7.21756C13.2054 10.174 13.0873 10.0003 13.0873 10.085C13.0873 10.1145 13.0766 10.1404 13.0557 10.1614L12.3579 10.8591C11.2466 11.9703 11.2423 13.7691 12.3508 14.8853L15.136 17.7876C15.1404 17.7917 15.1445 17.796 15.1489 17.8004C16.2598 18.9114 18.1845 18.915 19.2992 17.8004L19.9968 17.1027C20.0389 17.0606 20.1076 17.0606 20.1497 17.1027C23.0904 20.059 22.9723 19.8853 22.9723 19.9699C22.9723 19.9997 22.9615 20.0253 22.9407 20.0464L22.2428 20.744C21.7647 21.2222 20.2417 21.5083 18.2552 21.1299C16.9296 20.8772 14.3805 20.1288 12.205 17.9533C10.0295 15.7777 9.28101 13.2287 9.02855 11.903C8.64998 9.91654 8.93609 8.39333 9.41422 7.91542Z" fill="#F87E0F"/>
</svg>
